<svg width="150" height="75" viewBox="0 0 150 75" fill="none" xmlns="http://www.w3.org/2000/svg">
<mask id="mask0_496_2249" style="mask-type:luminance" maskUnits="userSpaceOnUse" x="0" y="0" width="150" height="75">
<path d="M150 0H0V74.3723H150V0Z" fill="white"/>
</mask>
<g mask="url(#mask0_496_2249)">
<path d="M72.8271 10.3178C73.4707 10.9532 73.9803 11.7112 74.3259 12.547C74.6715 13.3828 74.846 14.2795 74.839 15.1839V24.7607C74.8207 26.5608 74.0963 28.2817 72.8218 29.553C71.5472 30.8242 69.8245 31.5442 68.0244 31.5579H64.3084C63.2236 31.5579 62.2945 31.8664 61.6745 32.6386C61.3158 32.9771 61.0283 33.3838 60.8289 33.8349C60.6295 34.286 60.5222 34.7724 60.5133 35.2655C60.5373 36.1335 60.8355 36.9716 61.3653 37.6596L61.9853 38.3554L74.3753 50.7902C74.9946 51.4078 74.9946 52.18 74.3753 52.8741C73.6788 53.5706 72.9043 53.5706 72.2068 52.8741L59.5066 40.2083C58.1902 38.741 57.4927 37.1959 57.4927 35.2658C57.4863 34.3729 57.6615 33.488 58.0077 32.6649C58.3539 31.8418 58.8639 31.0977 59.5066 30.4779C60.1296 29.8409 60.878 29.3403 61.7046 29.0079C62.5312 28.6755 63.4179 28.5184 64.3084 28.5468H68.0254C68.5192 28.5377 69.0063 28.4306 69.4583 28.2316C69.9104 28.0327 70.3184 27.7459 70.6586 27.3879C71.0073 27.046 71.2831 26.6369 71.4694 26.1854C71.6556 25.734 71.7485 25.2494 71.7424 24.7611V15.1839C71.7704 14.6814 71.6879 14.1789 71.5007 13.7119C71.3134 13.2448 71.026 12.8245 70.6586 12.4805C69.9443 11.8076 69.0065 11.4224 68.0254 11.3992H48.5873C48.0864 11.3864 47.5881 11.4756 47.1226 11.6612C46.6572 11.8467 46.2342 12.1249 45.8794 12.4787C45.5247 12.8326 45.2454 13.2548 45.0587 13.7198C44.8719 14.1848 44.7815 14.6829 44.7929 15.1839V51.7914C44.782 52.1984 44.6151 52.5857 44.3268 52.8733C44.0385 53.1608 43.6508 53.3267 43.2437 53.3365C43.0526 53.3339 42.8642 53.2912 42.6907 53.2111C42.5172 53.131 42.3624 53.0154 42.2364 52.8718C42.0913 52.7314 41.9755 52.5636 41.8959 52.378C41.8163 52.1925 41.7744 51.993 41.7727 51.7911V15.1839C41.7644 14.2875 41.9352 13.3984 42.2749 12.5689C42.6147 11.7393 43.1166 10.986 43.7513 10.3529C44.386 9.71984 45.1407 9.21985 45.9711 8.88222C46.8015 8.54459 47.691 8.37613 48.5873 8.3867H68.0257C68.9139 8.3762 69.7953 8.54141 70.6194 8.87281C71.4435 9.20422 72.1935 9.69529 72.8271 10.3178Z" fill="black"/>
<path d="M122.18 32.101C122.836 32.7656 123.354 33.5536 123.703 34.4195C124.053 35.2854 124.227 36.212 124.216 37.1456V47.1563C124.193 49.0193 123.437 50.7982 122.112 52.1079C120.787 53.4177 118.999 54.1528 117.136 54.1541H110.788C110.58 54.1746 110.37 54.1487 110.173 54.0782C109.976 54.0077 109.797 53.8944 109.649 53.7464C109.501 53.5985 109.388 53.4196 109.317 53.2226C109.247 53.0256 109.221 52.8155 109.242 52.6073C109.253 52.219 109.397 51.8461 109.648 51.5499C109.975 51.2968 110.374 51.1544 110.788 51.1434H117.135C117.66 51.1662 118.182 51.0678 118.662 50.8559C119.142 50.644 119.566 50.3242 119.902 49.9215C120.624 49.1809 121.032 48.1903 121.041 47.1563V37.1459C121.052 36.6191 120.957 36.0954 120.761 35.6061C120.566 35.1168 120.274 34.6719 119.902 34.2978C119.549 33.9216 119.119 33.6253 118.642 33.4288C118.165 33.2324 117.651 33.1403 117.135 33.1589H106.392C105.361 33.1839 104.376 33.5896 103.626 34.2978C103.24 34.6606 102.937 35.1035 102.741 35.5956C102.544 36.0876 102.457 36.6168 102.486 37.1459V71.1627C102.489 71.5538 102.344 71.9316 102.08 72.2201C101.753 72.473 101.354 72.6155 100.941 72.6273C100.5 72.6293 100.071 72.4862 99.7191 72.2201C99.5729 72.0883 99.4599 71.9238 99.3893 71.74C99.3187 71.5563 99.2924 71.3585 99.3126 71.1627V37.1459C99.2829 36.21 99.4485 35.2781 99.7986 34.4096C100.149 33.5411 100.676 32.7551 101.346 32.1014C102.011 31.4458 102.8 30.9284 103.666 30.5792C104.532 30.23 105.458 30.0559 106.392 30.0669H117.135C118.069 30.0557 118.995 30.2298 119.861 30.579C120.727 30.9282 121.515 31.4456 122.18 32.1014" fill="black"/>
<path d="M135.433 48.3175C135.431 48.8141 135.531 49.3058 135.727 49.762C135.923 50.2182 136.211 50.6293 136.572 50.9696C136.911 51.3685 137.336 51.6846 137.816 51.8937C138.296 52.1029 138.817 52.1995 139.339 52.1763H140.967C141.417 52.1924 141.848 52.3627 142.187 52.6585C142.338 52.7883 142.459 52.9484 142.543 53.1284C142.627 53.3083 142.672 53.504 142.675 53.7025C142.68 53.9024 142.639 54.1008 142.554 54.2819C142.47 54.4631 142.344 54.6221 142.187 54.7466C141.848 55.0418 141.417 55.2117 140.967 55.2278H139.339C137.458 55.2522 135.644 54.5307 134.294 53.221C133.001 51.9151 132.271 50.155 132.26 48.3175V32.6079C132.262 32.3973 132.306 32.1893 132.39 31.996C132.473 31.8028 132.595 31.6283 132.747 31.4827C133.045 31.2333 133.418 31.091 133.806 31.0786C134.219 31.0901 134.617 31.2316 134.945 31.4827C135.098 31.6283 135.219 31.8028 135.303 31.996C135.387 32.1893 135.431 32.3973 135.433 32.6079L135.433 48.3175ZM134.619 71.4695C134 70.8818 133.513 70.1694 133.191 69.3794C132.868 68.5894 132.717 67.7398 132.747 66.887L132.829 65.1186C132.826 64.7313 132.972 64.3578 133.236 64.0746C133.341 63.9396 133.478 63.8322 133.634 63.7618C133.79 63.6914 133.961 63.66 134.131 63.6704C134.519 63.6823 134.892 63.8247 135.189 64.0746C135.346 64.1987 135.472 64.3577 135.557 64.5389C135.641 64.7201 135.683 64.9186 135.678 65.1186V66.887C135.652 67.8396 136.003 68.7639 136.654 69.4596C137.365 70.1053 138.298 70.4511 139.258 70.4248H143.489C144.422 70.4361 145.325 70.0909 146.012 69.4596C146.35 69.126 146.612 68.7235 146.78 68.2796C146.949 67.8357 147.02 67.3608 146.989 66.887V32.6884C146.986 32.3013 147.132 31.9279 147.396 31.6444C147.721 31.3958 148.128 31.2808 148.535 31.3231C148.916 31.2929 149.294 31.4077 149.593 31.6444C149.857 31.9276 150.003 32.3012 150 32.6884V66.887C150.015 67.7453 149.849 68.5971 149.512 69.3867C149.176 70.1764 148.676 70.8861 148.047 71.4695C147.461 72.0822 146.752 72.5638 145.966 72.8825C145.181 73.2012 144.337 73.3497 143.49 73.3184H139.258C138.399 73.3501 137.542 73.202 136.743 72.8836C135.945 72.5653 135.221 72.0836 134.619 71.4695Z" fill="black"/>
<path d="M86.9691 53.7971C86.819 53.671 86.6978 53.5142 86.6135 53.3372C86.5292 53.1603 86.4838 52.9673 86.4804 52.7713V31.7036C86.4836 31.5076 86.5289 31.3146 86.6133 31.1376C86.6976 30.9606 86.8189 30.8038 86.9691 30.6778C87.2679 30.4324 87.64 30.2936 88.0265 30.2834C88.1964 30.2725 88.3664 30.3026 88.5222 30.3713C88.6779 30.4399 88.8148 30.5451 88.9214 30.6778C89.1723 30.9619 89.3163 31.3247 89.3285 31.7036V52.7717C89.316 53.1505 89.1721 53.5132 88.9214 53.7975C88.8147 53.9301 88.6778 54.0352 88.5221 54.1038C88.3663 54.1724 88.1964 54.2026 88.0265 54.1918C87.6374 54.1958 87.2606 54.055 86.9691 53.7971Z" fill="black"/>
<path d="M38.4103 41.6231C38.5675 41.7498 38.6933 41.9111 38.7779 42.0944C38.8624 42.2777 38.9035 42.4781 38.8979 42.6799C38.8879 43.1084 38.7132 43.5166 38.4102 43.8198C38.1072 44.123 37.6992 44.2979 37.2706 44.3082L35.0742 44.3894H35.4807C35.1668 44.3771 34.8536 44.4283 34.56 44.5401C34.2664 44.652 33.9984 44.822 33.7722 45.04C33.5614 45.2547 33.3953 45.5091 33.2835 45.7884C33.1718 46.0677 33.1166 46.3665 33.1212 46.6673C33.1284 47.6078 32.9445 48.5399 32.5808 49.4072C32.2171 50.2745 31.6811 51.0589 31.0053 51.7129C30.3403 52.3685 29.5521 52.8858 28.686 53.235C27.82 53.5842 26.8934 53.7583 25.9597 53.7474H7.1612C6.2275 53.7583 5.3009 53.5841 4.43489 53.2349C3.56887 52.8857 2.78062 52.3684 2.11562 51.7129C1.43991 51.0589 0.90399 50.2745 0.540334 49.4073C0.176679 48.5401 -0.0071469 47.608 -6.70151e-06 46.6677V15.1748C-0.0148555 14.2333 0.165493 13.2989 0.529671 12.4306C0.893848 11.5622 1.43396 10.7787 2.11596 10.1295C2.76528 9.44754 3.54883 8.90745 4.41721 8.54327C5.28559 8.1791 6.22 7.99873 7.16153 8.01355H25.9597C26.9012 7.99865 27.8357 8.17898 28.7041 8.54316C29.5725 8.90734 30.356 9.44747 31.0053 10.1295C31.6872 10.7788 32.2273 11.5623 32.5914 12.4306C32.9555 13.2989 33.1358 14.2333 33.1209 15.1748V38.776C33.1262 39.4052 33.3572 40.0116 33.7719 40.4848C33.9815 40.7297 34.2446 40.923 34.541 41.0499C34.8373 41.1767 35.1588 41.2337 35.4807 41.2163H37.2706C37.6843 41.2274 38.0836 41.3704 38.4103 41.6245M29.9475 15.1748C29.9382 14.6554 29.8255 14.1431 29.6159 13.6677C29.4063 13.1924 29.1041 12.7636 28.727 12.4065C28.3749 12.0232 27.9473 11.7169 27.4711 11.507C26.9949 11.297 26.4805 11.1878 25.96 11.1863H7.1612C6.64222 11.1957 6.13033 11.3085 5.65542 11.518C5.18051 11.7275 4.75211 12.0295 4.39526 12.4065C4.02836 12.7671 3.73824 13.1983 3.54238 13.6741C3.34653 14.1498 3.24898 14.6603 3.25561 15.1748V46.6677C3.22636 47.1849 3.31358 47.702 3.51082 48.181C3.70806 48.66 4.0103 49.0887 4.39526 49.4353C4.75225 49.8122 5.18072 50.1141 5.65567 50.3236C6.13061 50.5331 6.64253 50.6459 7.16153 50.6554H25.9597C26.4801 50.6538 26.9945 50.5445 27.4707 50.3345C27.9468 50.1245 28.3744 49.8184 28.7266 49.4353C29.1226 49.0934 29.4376 48.6677 29.6487 48.189C29.8599 47.7103 29.9619 47.1907 29.9475 46.6677C29.9559 46.3588 29.8944 46.0519 29.7676 45.7701C29.6409 45.4882 29.452 45.2387 29.2153 45.04C28.7421 44.6254 28.1357 44.3944 27.5065 44.3891H20.1015C19.8902 44.3971 19.6805 44.3486 19.4943 44.2484C19.3081 44.1482 19.152 44 19.0423 43.8192C18.8896 43.6711 18.7678 43.494 18.6841 43.2984C18.6004 43.1027 18.5564 42.8924 18.5547 42.6796C18.5491 42.4778 18.5902 42.2774 18.6748 42.0941C18.7593 41.9108 18.8851 41.7495 19.0423 41.6228C19.3389 41.3706 19.7124 41.2267 20.1015 41.2146H27.5065C27.8284 41.2319 28.1499 41.1749 28.4462 41.0481C28.7425 40.9212 29.0056 40.7279 29.2153 40.4831C29.4474 40.2633 29.6321 39.9983 29.7581 39.7044C29.8841 39.4106 29.9486 39.094 29.9478 38.7743L29.9475 15.1748Z" fill="black"/>
<path d="M26.8818 7.91947C26.8818 6.80205 25.9574 6.07293 24.2583 6.07293H20.2743C20.2743 6.07293 21.2964 -0.000488281 16.5815 -0.000488281H16.5034C11.7899 -0.000488281 12.8096 6.07293 12.8096 6.07293H8.82692C7.12552 6.07293 6.20343 6.80205 6.20343 7.91947V10.1062H26.8815L26.8818 7.91947Z" fill="black"/>
<path d="M16.4997 4.82594C16.2307 4.82575 15.9678 4.7458 15.7442 4.59621C15.5207 4.44663 15.3465 4.23412 15.2437 3.98555C15.1409 3.73698 15.1141 3.46351 15.1667 3.19972C15.2193 2.93593 15.3489 2.69365 15.5392 2.50352C15.7295 2.31339 15.9718 2.18394 16.2357 2.13153C16.4995 2.07913 16.773 2.10613 17.0215 2.20911C17.2699 2.31209 17.4823 2.48644 17.6317 2.7101C17.7812 2.93377 17.8609 3.19672 17.8609 3.46571C17.8609 3.64442 17.8257 3.82138 17.7573 3.98648C17.6889 4.15158 17.5886 4.30157 17.4622 4.4279C17.3357 4.55422 17.1857 4.65439 17.0205 4.72269C16.8554 4.79099 16.6784 4.82608 16.4997 4.82594Z" fill="white"/>
<path d="M8.53292 72.2027H7.68256L7.07064 67.1847L4.9769 71.486H4.22219L2.10959 67.1841L1.50777 72.202H0.656738L1.45995 65.6167H2.24329L4.595 70.5L6.93626 65.6167H7.72095L8.53292 72.2027Z" fill="black"/>
<path d="M9.46448 69.9656C9.45512 69.6564 9.50896 69.3485 9.62271 69.0609C9.73646 68.7732 9.90772 68.5118 10.126 68.2926C10.3443 68.0734 10.605 67.9011 10.8922 67.7862C11.1795 67.6713 11.4871 67.6162 11.7963 67.6243C12.4137 67.6317 13.0033 67.8822 13.4372 68.3213C13.8712 68.7605 14.1145 69.3531 14.1145 69.9705C14.1145 70.5879 13.8712 71.1804 13.4372 71.6196C13.0033 72.0588 12.4137 72.3092 11.7963 72.3166C11.4865 72.3237 11.1785 72.2676 10.8911 72.1517C10.6037 72.0359 10.343 71.8626 10.1248 71.6426C9.90655 71.4226 9.73546 71.1604 9.62194 70.8721C9.50841 70.5838 9.45484 70.2753 9.46448 69.9656ZM13.3064 69.9656C13.2936 69.672 13.1949 69.3886 13.0226 69.1506C12.8503 68.9125 12.6119 68.7303 12.337 68.6263C12.0621 68.5224 11.7628 68.5014 11.4761 68.5659C11.1894 68.6304 10.9279 68.7776 10.7241 68.9893C10.5202 69.2009 10.3829 69.4677 10.3291 69.7566C10.2754 70.0455 10.3076 70.3439 10.4217 70.6147C10.5359 70.8855 10.7269 71.1168 10.9713 71.2801C11.2156 71.4434 11.5025 71.5314 11.7963 71.5333C11.9997 71.5339 12.2011 71.4933 12.3884 71.414C12.5757 71.3347 12.745 71.2183 12.8861 71.0719C13.0272 70.9254 13.1372 70.7518 13.2094 70.5617C13.2817 70.3716 13.3147 70.1688 13.3064 69.9656Z" fill="black"/>
<path d="M19.9237 69.966C19.939 70.2691 19.8925 70.5721 19.7871 70.8567C19.6816 71.1413 19.5193 71.4015 19.3102 71.6214C19.101 71.8413 18.8493 72.0164 18.5703 72.136C18.2913 72.2556 17.991 72.3171 17.6875 72.317C17.376 72.3256 17.0674 72.2557 16.7901 72.1136C16.5128 71.9715 16.2758 71.7619 16.1009 71.504V72.2021H15.2687V65.311H16.1009V68.4367C16.2725 68.1733 16.5103 67.9596 16.7905 67.8169C17.0706 67.6742 17.3833 67.6076 17.6972 67.6237C18 67.6219 18.3 67.6821 18.5786 67.8007C18.8573 67.9192 19.1087 68.0936 19.3173 68.3131C19.526 68.5326 19.6874 68.7924 19.7918 69.0767C19.8961 69.361 19.9408 69.6636 19.9237 69.966ZM19.0821 69.9565C19.0915 69.757 19.0604 69.5577 18.9907 69.3705C18.921 69.1833 18.8141 69.0122 18.6765 68.8675C18.5389 68.7227 18.3734 68.6073 18.19 68.5282C18.0066 68.4492 17.8091 68.408 17.6093 68.4074C17.2957 68.3887 16.9837 68.4649 16.7139 68.6259C16.4441 68.787 16.229 69.0255 16.0966 69.3104C15.9642 69.5954 15.9206 69.9136 15.9714 70.2236C16.0223 70.5337 16.1652 70.8213 16.3817 71.049C16.5982 71.2767 16.8782 71.4341 17.1853 71.5005C17.4924 71.567 17.8124 71.5395 18.1036 71.4217C18.3949 71.3038 18.644 71.1011 18.8185 70.8398C18.993 70.5785 19.0848 70.2707 19.0821 69.9565Z" fill="black"/>
<path d="M20.8815 66.0944C20.8747 65.9764 20.9036 65.8592 20.9643 65.7578C21.0251 65.6565 21.1149 65.5758 21.2221 65.5262C21.3293 65.4766 21.4489 65.4603 21.5655 65.4795C21.682 65.4988 21.7901 65.5526 21.8757 65.6341C21.9612 65.7156 22.0203 65.8209 22.0453 65.9363C22.0702 66.0518 22.0598 66.1721 22.0155 66.2816C21.9712 66.3911 21.895 66.4848 21.7968 66.5504C21.6986 66.6161 21.5829 66.6507 21.4648 66.6497C21.3899 66.6518 21.3154 66.6391 21.2455 66.6123C21.1756 66.5854 21.1117 66.5451 21.0575 66.4934C21.0033 66.4418 20.9598 66.38 20.9296 66.3115C20.8994 66.243 20.883 66.1692 20.8815 66.0944ZM21.0535 67.7392H21.8857V72.2028H21.0546L21.0535 67.7392Z" fill="black"/>
<path d="M24.1341 65.3113H23.3019V72.2024H24.1341V65.3113Z" fill="black"/>
<path d="M29.7458 70.3293H26.1133C26.1536 70.6803 26.3285 71.0021 26.6013 71.2267C26.874 71.4514 27.2233 71.5614 27.5756 71.5336C27.8346 71.5428 28.0914 71.4831 28.3198 71.3605C28.5482 71.238 28.74 71.057 28.8755 70.8361L29.5919 71.1231C29.398 71.4943 29.1033 71.8033 28.7417 72.0146C28.3801 72.2259 27.9662 72.3309 27.5476 72.3176C27.2392 72.323 26.933 72.2651 26.6479 72.1475C26.3628 72.0299 26.1048 71.8551 25.8898 71.6339C25.6749 71.4127 25.5076 71.1498 25.3983 70.8614C25.289 70.573 25.2399 70.2652 25.2542 69.9571C25.2405 69.6505 25.2902 69.3443 25.4001 69.0578C25.51 68.7712 25.6778 68.5103 25.893 68.2914C26.1082 68.0726 26.3662 67.9004 26.6508 67.7857C26.9355 67.671 27.2408 67.6161 27.5476 67.6246C28.8186 67.6246 29.7646 68.542 29.7646 69.9571C29.7646 70.0814 29.7552 70.205 29.7464 70.3293M28.9335 69.613C28.9042 69.2714 28.7432 68.9547 28.4846 68.7297C28.2259 68.5047 27.8899 68.3892 27.5476 68.4076C27.1998 68.3823 26.8559 68.4943 26.5897 68.7196C26.3234 68.9448 26.156 69.2654 26.1234 69.6126L28.9335 69.613Z" fill="black"/>
<path d="M32.999 68.9248C33.0102 68.267 33.2155 67.6273 33.5893 67.0859C33.963 66.5446 34.4885 66.1258 35.0996 65.8823C35.7107 65.6388 36.3801 65.5813 37.0238 65.7172C37.6674 65.8531 38.2565 66.1763 38.717 66.646C39.1775 67.1158 39.4888 67.7112 39.6119 68.3575C39.7349 69.0037 39.6641 69.6719 39.4084 70.278C39.1528 70.8841 38.7236 71.4011 38.1749 71.764C37.6262 72.1269 36.9825 72.3194 36.3247 72.3175C35.4339 72.3081 34.5833 71.9455 33.9597 71.3094C33.3361 70.6732 32.9906 69.8155 32.999 68.9248ZM38.8006 68.9248C38.777 68.4425 38.6125 67.9778 38.3275 67.5881C38.0425 67.1984 37.6495 66.9008 37.1971 66.7321C36.7447 66.5634 36.2528 66.531 35.7823 66.639C35.3117 66.7469 34.8831 66.9905 34.5494 67.3395C34.2158 67.6885 33.9918 68.1276 33.9052 68.6026C33.8186 69.0775 33.8731 69.5675 34.062 70.0118C34.2509 70.4561 34.5659 70.8353 34.968 71.1025C35.3702 71.3696 35.8419 71.513 36.3247 71.5149C36.9953 71.4964 37.6316 71.2139 38.0952 70.7289C38.5588 70.244 38.8123 69.5956 38.8006 68.9248Z" fill="black"/>
<path d="M43.7085 67.7956L43.5738 68.5789C43.3708 68.4818 43.1492 68.4298 42.9242 68.4267C42.0348 68.4267 41.6808 69.3919 41.6808 70.5683V72.202H40.8389V67.74H41.6808V68.7503C41.9105 67.967 42.3406 67.6228 42.9329 67.6228C43.2011 67.6182 43.4666 67.6771 43.7075 67.7949" fill="black"/>
<path d="M48.0391 65.311H48.8696V72.2021H48.0391V71.504C47.8642 71.7619 47.6272 71.9715 47.3499 72.1136C47.0726 72.2557 46.764 72.3256 46.4525 72.317C45.8507 72.2876 45.2832 72.0282 44.8672 71.5923C44.4512 71.1564 44.2186 70.5773 44.2174 69.9748C44.2161 69.3723 44.4464 68.7923 44.8607 68.3547C45.2749 67.9172 45.8414 67.6555 46.4431 67.6237C46.7571 67.6076 47.0697 67.6742 47.3499 67.8169C47.63 67.9596 47.8678 68.1733 48.0394 68.4367L48.0391 65.311ZM48.0391 69.9565C48.0419 69.7548 48.0047 69.5545 47.9297 69.3672C47.8547 69.1798 47.7433 69.0093 47.602 68.8652C47.4607 68.7212 47.2922 68.6066 47.1064 68.528C46.9205 68.4494 46.721 68.4084 46.5192 68.4074C46.3203 68.4092 46.1238 68.4511 45.9415 68.5307C45.7591 68.6103 45.5948 68.7259 45.4582 68.8706C45.3217 69.0153 45.2157 69.186 45.1468 69.3726C45.0778 69.5592 45.0473 69.7578 45.0569 69.9565C45.0451 70.1596 45.0749 70.363 45.1445 70.5542C45.2141 70.7454 45.322 70.9203 45.4616 71.0683C45.6012 71.2163 45.7696 71.3342 45.9564 71.4148C46.1432 71.4954 46.3446 71.5369 46.548 71.5369C46.7515 71.5369 46.9528 71.4954 47.1396 71.4148C47.3264 71.3342 47.4948 71.2163 47.6344 71.0683C47.774 70.9203 47.8819 70.7454 47.9515 70.5542C48.0211 70.363 48.0509 70.1596 48.0391 69.9565Z" fill="black"/>
<path d="M54.4941 70.3293H50.8633C50.9036 70.6803 51.0785 71.0021 51.3513 71.2267C51.624 71.4514 51.9733 71.5614 52.3256 71.5336C52.5846 71.5428 52.8414 71.4831 53.0698 71.3605C53.2982 71.238 53.49 71.057 53.6255 70.8361L54.3419 71.1231C54.1479 71.4944 53.8531 71.8035 53.4914 72.0148C53.1297 72.2261 52.7157 72.331 52.297 72.3176C51.9886 72.323 51.6824 72.2651 51.3972 72.1475C51.1121 72.0299 50.8541 71.8551 50.6392 71.6339C50.4242 71.4127 50.2569 71.1498 50.1476 70.8614C50.0383 70.573 49.9892 70.2652 50.0035 69.9571C49.9898 69.6505 50.0395 69.3443 50.1494 69.0578C50.2593 68.7712 50.4271 68.5103 50.6423 68.2914C50.8575 68.0726 51.1155 67.9004 51.4002 67.7857C51.6849 67.671 51.9901 67.6161 52.297 67.6246C53.568 67.6246 54.514 68.542 54.514 69.9571C54.514 70.0814 54.5045 70.205 54.4958 70.3293M53.6828 69.613C53.6535 69.2715 53.4924 68.9548 53.2338 68.7299C52.9752 68.505 52.6392 68.3896 52.297 68.408C51.9491 68.3827 51.6052 68.4946 51.339 68.7199C51.0728 68.9451 50.9054 69.2657 50.8727 69.613H53.6828Z" fill="black"/>
<path d="M58.4926 67.7956L58.3579 68.5789C58.155 68.4817 57.9333 68.4298 57.7083 68.4267C56.8189 68.4267 56.4649 69.3919 56.4649 70.5682V72.2019H55.625V67.74H56.4669V68.7503C56.6966 67.967 57.1267 67.6228 57.7197 67.6228C57.9879 67.6183 58.2533 67.6773 58.4943 67.7949" fill="black"/>
<path d="M61.4485 70.3387H62.3093C62.3379 70.9213 62.8926 71.5151 63.7716 71.5151C64.6219 71.5151 65.1002 70.9597 65.1002 70.3771C65.1002 69.7372 64.5175 69.4503 63.9622 69.3068L63.1118 69.0963C61.7162 68.7616 61.4973 67.9398 61.4973 67.4044C61.4973 66.2671 62.5198 65.5029 63.6665 65.5029C64.823 65.5029 65.7498 66.2378 65.7498 67.4141H64.8897C64.8897 66.7551 64.3454 66.3048 63.6375 66.3048C63.3242 66.2809 63.0142 66.3825 62.7757 66.5871C62.5371 66.7917 62.3896 67.0826 62.3655 67.3959C62.3655 67.6246 62.443 68.0836 63.322 68.3133L64.1828 68.542C65.3009 68.8384 65.9694 69.4122 65.9694 70.3488C65.9694 71.3719 65.1382 72.3173 63.7716 72.3173C62.3857 72.3173 61.4589 71.3618 61.4478 70.3394" fill="black"/>
<path d="M70.1498 67.7395H71.0486L68.2759 74.374H67.397L68.3342 72.0708L66.5372 67.7395H67.4354L68.7825 71.0268L70.1498 67.7395Z" fill="black"/>
<path d="M71.5195 70.8926H72.2941C72.3028 71.2752 72.6376 71.5908 73.1828 71.5908C73.7462 71.5908 74.081 71.3133 74.081 70.9509C74.081 70.6162 73.8237 70.4457 73.4691 70.3683L72.8578 70.2248C72.1119 70.0228 71.6825 69.6607 71.6825 68.9451C71.6825 68.2085 72.3129 67.6252 73.2118 67.6252C73.9665 67.6252 74.7508 68.027 74.7508 68.9259H73.947C73.9227 68.7571 73.835 68.6038 73.7017 68.4975C73.5685 68.3911 73.3996 68.3395 73.2296 68.3534C73.1413 68.3446 73.0522 68.3539 72.9676 68.3807C72.8831 68.4076 72.8049 68.4514 72.7378 68.5095C72.6708 68.5676 72.6163 68.6387 72.5777 68.7186C72.5391 68.7985 72.5172 68.8854 72.5133 68.974C72.5133 69.2802 72.8002 69.4425 73.0858 69.5095L73.7449 69.6712C74.6724 69.9008 74.9115 70.4555 74.9115 70.9613C74.9115 71.7935 74.1083 72.3186 73.1815 72.3186C72.3783 72.3186 71.5565 71.8117 71.5181 70.8943" fill="black"/>
<path d="M78.1449 67.7393V68.4556H77.1797V72.2029H76.3485V68.4556H75.5453V67.7393H76.3485V66.0554H77.1797V67.7393H78.1449Z" fill="black"/>
<path d="M83.2416 70.3293H79.6092C79.6495 70.6803 79.8245 71.002 80.0972 71.2266C80.3699 71.4512 80.7192 71.5613 81.0714 71.5336C81.3305 71.5428 81.5873 71.4831 81.8157 71.3605C82.0441 71.238 82.2358 71.057 82.3714 70.8361L83.0877 71.1231C82.8938 71.4944 82.599 71.8035 82.2373 72.0148C81.8755 72.2261 81.4615 72.331 81.0428 72.3176C80.7344 72.323 80.4282 72.2651 80.1431 72.1475C79.858 72.0299 79.6 71.8551 79.385 71.6339C79.1701 71.4127 79.0028 71.1498 78.8935 70.8614C78.7841 70.573 78.7351 70.2652 78.7494 69.9571C78.7357 69.6505 78.7854 69.3443 78.8953 69.0578C79.0052 68.7712 79.1729 68.5103 79.3881 68.2914C79.6033 68.0726 79.8613 67.9004 80.146 67.7857C80.4307 67.671 80.736 67.6161 81.0428 67.6246C82.3138 67.6246 83.2598 68.542 83.2598 69.9571C83.2598 70.0814 83.2504 70.205 83.2416 70.3293ZM82.4286 69.613C82.3993 69.2715 82.2383 68.9548 81.9797 68.7299C81.721 68.505 81.385 68.3896 81.0428 68.408C80.695 68.3827 80.3511 68.4946 80.0848 68.7199C79.8186 68.9451 79.6512 69.2657 79.6186 69.613H82.4286Z" fill="black"/>
<path d="M91.3966 69.6223V72.2027H90.5648V69.6702C90.5648 68.9249 90.1536 68.4278 89.504 68.4278C88.7102 68.4184 88.2996 68.973 88.2996 69.9669V72.203H87.4685V69.6702C87.4685 68.9148 87.0566 68.4278 86.4642 68.4278C86.289 68.423 86.1147 68.4557 85.9531 68.5235C85.7914 68.5914 85.6461 68.6929 85.5267 68.8213C85.4074 68.9497 85.3167 69.1021 85.2608 69.2682C85.205 69.4344 85.1851 69.6106 85.2027 69.785V72.203H84.3705V67.7404H85.2027V68.4275C85.3557 68.1701 85.5762 67.9594 85.8402 67.8182C86.1043 67.677 86.4019 67.6107 86.701 67.6263C87 67.642 87.2891 67.7391 87.5369 67.9071C87.7848 68.0751 87.9821 68.3077 88.1073 68.5797C88.2475 68.2874 88.4691 68.0417 88.7454 67.8722C89.0218 67.7027 89.3412 67.6166 89.6653 67.6242C90.7834 67.6242 91.3963 68.3702 91.3963 69.6223" fill="black"/>
<path d="M80.8589 20.1772C82.6258 18.4815 84.9799 17.5346 87.4289 17.5346C89.8779 17.5346 92.232 18.4815 93.9989 20.1772C94.0737 20.2491 94.162 20.3055 94.2586 20.3433C94.3553 20.3811 94.4584 20.3995 94.5622 20.3974C94.6659 20.3953 94.7682 20.3728 94.8633 20.3312C94.9583 20.2896 95.0443 20.2296 95.1162 20.1548C95.1881 20.08 95.2445 19.9917 95.2823 19.8951C95.3201 19.7984 95.3384 19.6953 95.3364 19.5915C95.3343 19.4878 95.3118 19.3855 95.2702 19.2904C95.2285 19.1954 95.1686 19.1094 95.0938 19.0375C93.0323 17.0584 90.2854 15.9531 87.4277 15.9526C84.57 15.9522 81.8228 17.0567 79.7607 19.0352C79.6099 19.1811 79.523 19.3807 79.5188 19.5905C79.5147 19.8003 79.5936 20.0032 79.7385 20.155C79.8102 20.2302 79.896 20.2905 79.9911 20.3323C80.0862 20.3742 80.1887 20.3968 80.2925 20.3989C80.3964 20.4009 80.4997 20.3824 80.5964 20.3444C80.6931 20.3063 80.7813 20.2495 80.8559 20.1772H80.8589ZM87.4291 21.4873C88.7782 21.4851 90.0813 21.9776 91.0919 22.8714C91.2492 23.0104 91.4554 23.0812 91.6649 23.0681C91.8745 23.0551 92.0703 22.9594 92.2093 22.802C92.3483 22.6446 92.419 22.4385 92.406 22.2289C92.393 22.0194 92.2973 21.8236 92.1399 21.6846C90.8389 20.5377 89.1642 19.905 87.4299 19.905C85.6956 19.905 84.0209 20.5377 82.7199 21.6846C82.5626 21.8236 82.4668 22.0194 82.4538 22.2289C82.4408 22.4385 82.5116 22.6446 82.6506 22.802C82.7896 22.9594 82.9854 23.0551 83.1949 23.0681C83.4045 23.0812 83.6106 23.0104 83.768 22.8714C84.7783 21.9767 86.0819 21.4842 87.4314 21.4873H87.4291ZM89.7363 25.8074C89.7363 25.4228 89.6223 25.0469 89.4086 24.7271C89.195 24.4073 88.8913 24.1581 88.5359 24.0109C88.1806 23.8637 87.7896 23.8252 87.4124 23.9002C87.0352 23.9753 86.6887 24.1605 86.4168 24.4324C86.1448 24.7044 85.9596 25.0508 85.8846 25.4281C85.8096 25.8053 85.8481 26.1962 85.9953 26.5516C86.1424 26.9069 86.3917 27.2106 86.7115 27.4242C87.0312 27.6379 87.4072 27.752 87.7918 27.752C88.0472 27.752 88.3 27.7017 88.536 27.604C88.7719 27.5063 88.9863 27.3631 89.1669 27.1825C89.3475 27.0019 89.4907 26.7876 89.5884 26.5516C89.6861 26.3157 89.7364 26.0628 89.7363 25.8074Z" fill="#FCC800"/>
</g>
</svg>
