<svg width="80" height="58" viewBox="0 0 80 58" fill="none" xmlns="http://www.w3.org/2000/svg">
<rect y="27.5" width="80" height="15" fill="#D9D9D9"/>
<rect x="9" y="31.5" width="62" height="4" rx="2" fill="#333333"/>
<path d="M0 0H80V10H0V0Z" fill="#D9D9D9"/>
<rect y="12.5" width="80" height="15" fill="#333333"/>
<rect x="9" y="17.5" width="62" height="4" rx="2" fill="#D9D9D9"/>
<path d="M73.7352 6.26484C73.8816 6.41133 74.1195 6.41133 74.266 6.26484L76.516 4.01484C76.6625 3.86836 76.6625 3.63047 76.516 3.48398C76.3695 3.3375 76.1316 3.3375 75.9852 3.48398L74 5.46914L72.0148 3.48516C71.8684 3.33867 71.6305 3.33867 71.484 3.48516C71.3375 3.63164 71.3375 3.86953 71.484 4.01602L73.734 6.26602L73.7352 6.26484Z" fill="black"/>
<rect y="42.5" width="80" height="15" fill="#D9D9D9"/>
<rect x="9" y="46.5" width="62" height="4" rx="2" fill="#333333"/>
</svg>
