<svg width="100" height="105" viewBox="0 0 100 105" fill="none" xmlns="http://www.w3.org/2000/svg">
<path d="M15.2673 46.528V46.5608H18.2518V43.4165L18.2799 40.7051L20.0175 44.1318H21.9958L22.9245 42.2863L23.7453 40.7205V46.5096L23.7445 46.528H23.7453V46.5608H26.729V33.9771H23.8996L22.1171 37.6873L20.9951 39.9772L18.0961 33.9771H15.2673V46.4896V46.528Z" fill="#FCC800"/>
<path d="M29.6272 46.528V46.5608H38.1402V43.829H32.6117V41.5845H37.3193V38.8525H32.6117V36.7097H38.1402V33.9771H29.6272V46.4896V46.528Z" fill="#FCC800"/>
<path d="M40.925 46.528V46.5608H43.9089V42.9895L43.9351 40.0643L48.1282 46.5608H50.7115V33.9771H47.7278V37.5185L47.7006 40.4582L43.5085 33.9771H40.925V46.4896V46.528Z" fill="#FCC800"/>
<path d="M54.8992 45.4275C55.3244 45.8166 55.8279 46.1235 56.3956 46.3388C56.9607 46.553 57.577 46.6616 58.2285 46.6616C58.8797 46.6616 59.4959 46.553 60.0613 46.3388C60.6288 46.1237 61.1321 45.8168 61.5567 45.4283C61.9851 45.0375 62.3272 44.5588 62.5733 44.0047C62.8203 43.4517 62.9459 42.8258 62.9459 42.1457V33.9771H59.979V42.0616C59.979 42.6707 59.8264 43.1255 59.5105 43.45C59.1972 43.7729 58.7776 43.9296 58.2285 43.9296C57.6801 43.9296 57.2646 43.7729 56.9575 43.4517C56.6467 43.128 56.4955 42.6732 56.4955 42.0616V33.9771H53.511V42.1457C53.511 42.8258 53.6366 43.4517 53.8836 44.0047C54.1295 44.5571 54.4708 45.0359 54.8992 45.4275Z" fill="#FCC800"/>
<path d="M70.7638 15.0586H7.44928C3.34173 15.0586 0 18.4003 0 22.5071V97.3064C0 101.413 3.34173 104.755 7.44928 104.755H70.7638C74.8721 104.755 78.2131 101.413 78.2131 97.3064V22.5071C78.2131 18.4003 74.8721 15.0586 70.7638 15.0586ZM4.96585 22.5071C4.96585 21.1379 6.07928 20.0244 7.44928 20.0244H70.7638C72.1338 20.0244 73.2472 21.1379 73.2472 22.5071V97.3064C73.2472 98.6755 72.1338 99.789 70.7638 99.789H7.44928C6.07928 99.789 4.96585 98.6755 4.96585 97.3064V22.5071Z" fill="#FCC800"/>
<path d="M17.6915 56.9585V59.8654L17.6907 59.8742H17.6915V59.907H60.5221V56.9585H17.6915Z" fill="#FCC800"/>
<path d="M17.6915 70.6924V73.5993L17.6907 73.6079H17.6915V73.6409H60.5221V70.6924H17.6915Z" fill="#FCC800"/>
<path d="M17.6915 84.4263V87.3332L17.6907 87.342H17.6915V87.3748H60.5221V84.4263H17.6915Z" fill="#FCC800"/>
<path d="M93.7607 10.4088L31.2959 0.0932538C30.0073 -0.119939 28.7541 0.0453774 27.6033 0.457033C27.5401 0.479539 27.476 0.498567 27.413 0.522709C27.0869 0.649766 26.7751 0.799942 26.4706 0.970988C26.3779 1.02214 26.2877 1.07411 26.1973 1.13017C25.9159 1.30428 25.6483 1.49313 25.3915 1.70243C25.3085 1.77036 25.2293 1.84238 25.1493 1.91419C24.8927 2.14212 24.6513 2.38109 24.4285 2.64318C24.3837 2.69597 24.3438 2.75265 24.3006 2.80707C23.5219 3.77401 22.9498 4.92509 22.7324 6.23187L22.28 8.96942L22.2002 9.42322H22.2057L22.2002 9.45616H27.2315L27.6376 7.03104C27.6616 6.88884 27.7031 6.75462 27.7485 6.62265C27.7629 6.58358 27.7751 6.54429 27.7909 6.50603C28.0931 5.76415 28.7341 5.21828 29.4966 5.02902C29.5077 5.02575 29.52 5.02493 29.531 5.02268C29.8348 4.95148 30.1561 4.93389 30.483 4.98504L57.56 9.45637L79.8438 13.1281L92.9623 15.2997C94.3074 15.5244 95.2187 16.8136 95.0085 18.1596L83.8243 85.852V97.3024C83.8243 97.5972 83.8108 97.8771 83.7963 98.1576C85.8144 97.1201 87.3283 95.1858 87.7207 92.7752L99.8993 18.9727C100.572 14.9214 97.8116 11.0809 93.7607 10.4088Z" fill="#FCC800"/>
</svg>
