<svg width="22" height="23" viewBox="0 0 22 23" fill="none" xmlns="http://www.w3.org/2000/svg">
<path d="M17.5545 8.91925C20.3064 13.7077 19.9461 15.0418 15.1577 17.7937C10.2595 18.3018 8.53681 19.3182 5.78494 14.5298C14.8986 13.3291 1.34545 7.85416 6.13388 5.10228C15.2125 14.8787 13.9109 2.57916 17.5545 8.91925Z" fill="white"/>
<g clip-path="url(#clip0_453_4920)">
<path d="M5.71245 6.66255C5.56563 6.40709 5.65453 6.07796 5.90999 5.93115C6.16545 5.78433 6.49459 5.87323 6.6414 6.12869L8.91031 10.0767C9.08215 10.3757 9.42723 10.5327 9.76677 10.465C10.1063 10.3973 10.3631 10.1184 10.4063 9.77695C10.4283 9.61369 10.5202 9.46437 10.6711 9.37762C10.9266 9.23081 11.2557 9.3197 11.4025 9.57516C11.5744 9.87417 11.9194 10.0311 12.259 9.96344C12.5985 9.89574 12.8553 9.61686 12.8985 9.27538C12.9205 9.11211 13.0124 8.9628 13.1633 8.87604C13.3897 8.74592 13.6719 8.80004 13.836 8.9915C14.0192 9.20286 14.2998 9.30807 14.5746 9.26213C14.8494 9.21618 15.0861 9.02996 15.1909 8.7689C15.2343 8.66289 15.3113 8.56843 15.4216 8.50504C15.6771 8.35822 16.0062 8.44712 16.153 8.70258L16.42 9.16706L18.1517 12.1803C18.8157 13.3357 18.4181 14.8077 17.2627 15.4717L15.637 16.4059L13.904 17.4019L13.8778 17.4169C12.7921 18.0409 11.4641 18.0819 10.3398 17.5232L6.69194 15.7115C6.42624 15.5785 6.31913 15.2577 6.4493 14.9937C6.57947 14.7296 6.90314 14.6209 7.16717 14.751L9.25991 15.792C9.578 15.949 9.95949 15.8804 10.2026 15.6248C10.4458 15.3692 10.4893 14.9812 10.3124 14.6735L9.98044 14.0958L5.70954 6.66422L5.71245 6.66255ZM5.1092 4.53772C4.08445 5.12663 3.7301 6.43859 4.31902 7.46334L7.61728 13.2025C6.61807 12.8615 5.49496 13.3062 5.00978 14.2762C4.48497 15.3386 4.91505 16.6246 5.97742 17.1494L9.62694 18.964C11.2315 19.7603 13.1255 19.7029 14.6786 18.8104L14.7048 18.7953L16.4378 17.7994L18.0635 16.8651C19.9882 15.759 20.6512 13.3042 19.5451 11.3796L17.81 8.36046L17.5431 7.89598C16.9542 6.87123 15.6422 6.51689 14.6175 7.1058C14.4869 7.18088 14.3704 7.26713 14.2618 7.36042C13.6652 7.10856 12.963 7.1298 12.3592 7.47681C12.1589 7.59193 11.9856 7.73397 11.839 7.89546C11.2287 7.6129 10.4957 7.62093 9.86865 7.98129C9.79027 8.02633 9.71522 8.07718 9.64475 8.12927L8.03482 5.3279C7.44591 4.30315 6.13395 3.9488 5.1092 4.53772ZM11.5743 12.562C11.4275 12.3065 11.0984 12.2176 10.8429 12.3644C10.5874 12.5112 10.4985 12.8404 10.6454 13.0958L12.2469 15.8827C12.3938 16.1381 12.7229 16.227 12.9784 16.0802C13.2338 15.9334 13.3227 15.6043 13.1759 15.3488L11.5743 12.562ZM12.7008 11.2967C12.4453 11.4435 12.3565 11.7726 12.5033 12.0281L14.1048 14.815C14.2517 15.0704 14.5808 15.1593 14.8363 15.0125C15.0917 14.8657 15.1806 14.5366 15.0338 14.2811L13.4322 11.4942C13.2854 11.2388 12.9563 11.1499 12.7008 11.2967ZM15.2901 10.4265C15.1433 10.1711 14.8142 10.0822 14.5587 10.229C14.3033 10.3758 14.2144 10.7049 14.3612 10.9604L15.9628 13.7472C16.1096 14.0027 16.4387 14.0916 16.6942 13.9448C16.9496 13.798 17.0385 13.4688 16.8917 13.2134L15.2901 10.4265Z" fill="black"/>
</g>
<defs>
<clipPath id="clip0_453_4920">
<rect width="15" height="17.1429" fill="white" transform="translate(-3.05176e-05 7.474) rotate(-29.8857)"/>
</clipPath>
</defs>
</svg>
