<svg width="40" height="24" viewBox="0 0 40 24" fill="none" xmlns="http://www.w3.org/2000/svg">
<path d="M0 4.34154C0 2.173 1.79375 0.409912 4 0.409912H16H19H20H36C38.2062 0.409912 40 2.173 40 4.34154V20.068C40 22.2366 38.2062 23.9997 36 23.9997H20H19H16H4C1.79375 23.9997 0 22.2366 0 20.068V4.34154ZM20 4.34154V20.068H36V4.34154H20ZM11.1438 7.28411C10.9438 6.8418 10.4937 6.55307 10 6.55307C9.50625 6.55307 9.05625 6.8418 8.85625 7.28411L4.85625 16.1303C4.575 16.7507 4.8625 17.4756 5.49375 17.7521C6.125 18.0285 6.8625 17.7459 7.14375 17.1255L7.7 15.8907H12.3L12.8562 17.1255C13.1375 17.7459 13.875 18.0224 14.5063 17.7521C15.1375 17.4818 15.4187 16.7507 15.1438 16.1303L11.1438 7.28411ZM10 10.8041L11.1875 13.4334H8.8125L10 10.8041ZM28 6.55307C28.6875 6.55307 29.25 7.10596 29.25 7.78171V8.02743H32H33C33.6875 8.02743 34.25 8.58032 34.25 9.25607C34.25 9.93181 33.6875 10.4847 33 10.4847H32.875L32.775 10.7611C32.2188 12.2601 31.375 13.6239 30.3 14.7788C30.3562 14.8156 30.4125 14.8463 30.4688 14.8771L31.65 15.5712C32.2438 15.9214 32.4312 16.677 32.0812 17.2545C31.7312 17.8319 30.9562 18.0224 30.3687 17.6783L29.1875 16.9842C28.9062 16.8183 28.6375 16.6463 28.3687 16.462C27.7062 16.9227 27 17.322 26.2437 17.6538L26.0187 17.7521C25.3875 18.0285 24.65 17.7459 24.3687 17.1255C24.0875 16.505 24.375 15.7801 25.0063 15.5037L25.2313 15.4054C25.6313 15.2272 26.0188 15.0306 26.3875 14.8033L25.625 14.0539C25.1375 13.5747 25.1375 12.7945 25.625 12.3154C26.1125 11.8362 26.9062 11.8362 27.3937 12.3154L28.3062 13.2123L28.3375 13.243C29.1125 12.4382 29.7438 11.5045 30.2 10.4786H28H23.5C22.8125 10.4786 22.25 9.92567 22.25 9.24992C22.25 8.57417 22.8125 8.02129 23.5 8.02129H26.75V7.77556C26.75 7.09982 27.3125 6.54693 28 6.54693V6.55307Z" fill="white"/>
</svg>
