<svg width="66" height="66" viewBox="0 0 66 66" fill="none" xmlns="http://www.w3.org/2000/svg">
<path d="M8.25 18.5625C9.89103 18.5625 11.4648 17.9106 12.6252 16.7502C13.7856 15.5898 14.4375 14.016 14.4375 12.375C14.4375 10.734 13.7856 9.16016 12.6252 7.99978C11.4648 6.8394 9.89103 6.1875 8.25 6.1875C6.60897 6.1875 5.03516 6.8394 3.87478 7.99978C2.7144 9.16016 2.0625 10.734 2.0625 12.375C2.0625 14.016 2.7144 15.5898 3.87478 16.7502C5.03516 17.9106 6.60897 18.5625 8.25 18.5625ZM24.75 8.25C22.4684 8.25 20.625 10.0934 20.625 12.375C20.625 14.6566 22.4684 16.5 24.75 16.5H61.875C64.1566 16.5 66 14.6566 66 12.375C66 10.0934 64.1566 8.25 61.875 8.25H24.75ZM24.75 28.875C22.4684 28.875 20.625 30.7184 20.625 33C20.625 35.2816 22.4684 37.125 24.75 37.125H61.875C64.1566 37.125 66 35.2816 66 33C66 30.7184 64.1566 28.875 61.875 28.875H24.75ZM24.75 49.5C22.4684 49.5 20.625 51.3434 20.625 53.625C20.625 55.9066 22.4684 57.75 24.75 57.75H61.875C64.1566 57.75 66 55.9066 66 53.625C66 51.3434 64.1566 49.5 61.875 49.5H24.75ZM8.25 59.8125C9.89103 59.8125 11.4648 59.1606 12.6252 58.0002C13.7856 56.8398 14.4375 55.266 14.4375 53.625C14.4375 51.984 13.7856 50.4102 12.6252 49.2498C11.4648 48.0894 9.89103 47.4375 8.25 47.4375C6.60897 47.4375 5.03516 48.0894 3.87478 49.2498C2.7144 50.4102 2.0625 51.984 2.0625 53.625C2.0625 55.266 2.7144 56.8398 3.87478 58.0002C5.03516 59.1606 6.60897 59.8125 8.25 59.8125ZM14.4375 33C14.4375 32.1874 14.2775 31.3828 13.9665 30.6321C13.6556 29.8814 13.1998 29.1993 12.6252 28.6248C12.0507 28.0502 11.3686 27.5944 10.6179 27.2835C9.86715 26.9725 9.06255 26.8125 8.25 26.8125C7.43745 26.8125 6.63285 26.9725 5.88215 27.2835C5.13144 27.5944 4.44934 28.0502 3.87478 28.6248C3.30021 29.1993 2.84445 29.8814 2.5335 30.6321C2.22254 31.3828 2.0625 32.1874 2.0625 33C2.0625 33.8126 2.22254 34.6172 2.5335 35.3679C2.84445 36.1186 3.30021 36.8007 3.87478 37.3752C4.44934 37.9498 5.13144 38.4056 5.88215 38.7165C6.63285 39.0275 7.43745 39.1875 8.25 39.1875C9.06255 39.1875 9.86715 39.0275 10.6179 38.7165C11.3686 38.4056 12.0507 37.9498 12.6252 37.3752C13.1998 36.8007 13.6556 36.1186 13.9665 35.3679C14.2775 34.6172 14.4375 33.8126 14.4375 33Z" fill="#CCCCCC"/>
<circle cx="8.25" cy="12.25" r="4.25" fill="#333333"/>
</svg>
