<svg width="92" height="100" viewBox="0 0 92 100" fill="none" xmlns="http://www.w3.org/2000/svg">
<path d="M86.6127 41.3074C83.2791 37.9361 78.6033 35.9193 73.5523 35.9273C71.9984 35.9254 70.4164 36.1688 68.8344 36.5518C69.9695 34.3693 70.6217 31.8957 70.6217 29.2645C70.6178 23.318 67.3223 18.1631 62.4729 15.4621C60.0232 6.54512 51.8842 0.00586238 42.1992 3.00695e-06C38.5566 -0.00195012 35.1275 0.947659 32.1391 2.58145C29.8391 1.167 27.126 0.335355 24.2273 0.337308C16.9939 0.343167 10.9734 5.40606 9.45937 12.1826C3.92578 14.3828 0.00605469 19.7529 0 26.0748C0 30.2121 1.67559 33.9545 4.38262 36.6654V83.7699C4.38262 92.7348 11.6479 100 20.6107 100H47.8744C56.8373 100 64.1045 92.7348 64.1045 83.7699V77.8074C64.8826 77.8791 65.6644 77.9211 66.4504 77.9211C71.8086 77.9072 77.3344 76.3152 82.0344 73.0617C84.3781 71.4301 86.5029 69.3613 88.1865 66.852C89.8721 64.3463 91.101 61.3961 91.6576 58.1324C91.8631 56.9315 91.9648 55.7406 91.9648 54.5717C91.9748 49.4047 89.9598 44.6688 86.6127 41.3074ZM62.758 34.7842H13.4852C11.642 34.4689 9.99609 33.6111 8.72344 32.3404C7.11563 30.7268 6.13008 28.5324 6.12812 26.0748C6.12187 21.9074 9.02441 18.4105 12.9047 17.4729L15.057 16.9522L15.2383 14.7439C15.6174 10.1178 19.4953 6.45918 24.2271 6.46543C26.4494 6.46719 28.4502 7.25918 30.0361 8.5877L31.8256 10.0918L33.7486 8.76348C36.1582 7.09961 39.0488 6.13028 42.1988 6.12813C49.432 6.12227 55.4645 11.2947 56.8191 18.1272L57.1322 19.7111L58.6164 20.3477C62.0715 21.8375 64.4973 25.2648 64.4932 29.2645C64.4918 31.3291 63.8471 33.2164 62.758 34.7842ZM81.5916 56.4045C81.2725 58.2479 80.6201 59.7918 79.7064 61.1602C78.34 63.199 76.3271 64.8467 73.9553 65.9838C71.5934 67.1209 68.8982 67.7113 66.4506 67.7072C65.6268 67.7094 64.8469 67.6275 64.1047 67.5037V50.7231C65.1721 49.6738 66.2252 48.8277 67.2365 48.1814C69.5906 46.6814 71.7131 46.1449 73.5523 46.1408C75.9203 46.1467 77.8973 47.0365 79.3613 48.5008C80.8115 49.977 81.741 52.0117 81.7512 54.5711C81.7512 55.1537 81.7014 55.7641 81.5916 56.4045Z" fill="#FCC800"/>
</svg>
