<svg width="30" height="25" viewBox="0 0 30 25" fill="none" xmlns="http://www.w3.org/2000/svg">
<g clip-path="url(#clip0_289_756)">
<path d="M4.5 6.04167C4.5 4.43932 5.13214 2.9026 6.25736 1.76956C7.38258 0.636531 8.9087 0 10.5 0C12.0913 0 13.6174 0.636531 14.7426 1.76956C15.8679 2.9026 16.5 4.43932 16.5 6.04167C16.5 7.64402 15.8679 9.18074 14.7426 10.3138C13.6174 11.4468 12.0913 12.0833 10.5 12.0833C8.9087 12.0833 7.38258 11.4468 6.25736 10.3138C5.13214 9.18074 4.5 7.64402 4.5 6.04167ZM0 22.7648C0 18.1156 3.74063 14.349 8.35781 14.349H12.6422C17.2594 14.349 21 18.1156 21 22.7648C21 23.5389 20.3766 24.1667 19.6078 24.1667H1.39219C0.623438 24.1667 0 23.5389 0 22.7648ZM23.625 14.7266V11.7057H20.625C20.0016 11.7057 19.5 11.2007 19.5 10.5729C19.5 9.94515 20.0016 9.4401 20.625 9.4401H23.625V6.41927C23.625 5.7915 24.1266 5.28646 24.75 5.28646C25.3734 5.28646 25.875 5.7915 25.875 6.41927V9.4401H28.875C29.4984 9.4401 30 9.94515 30 10.5729C30 11.2007 29.4984 11.7057 28.875 11.7057H25.875V14.7266C25.875 15.3543 25.3734 15.8594 24.75 15.8594C24.1266 15.8594 23.625 15.3543 23.625 14.7266Z" fill="#FCC800"/>
</g>
<defs>
<clipPath id="clip0_289_756">
<rect width="30" height="24.1667" fill="white"/>
</clipPath>
</defs>
</svg>
