<svg width="9" height="10" viewBox="0 0 9 10" fill="none" xmlns="http://www.w3.org/2000/svg">
<path d="M2.55985 0.314183L2.42353 0.568015H0.605882C0.270754 0.568015 0 0.821846 0 1.13603C0 1.45021 0.270754 1.70404 0.605882 1.70404H7.87647C8.2116 1.70404 8.48235 1.45021 8.48235 1.13603C8.48235 0.821846 8.2116 0.568015 7.87647 0.568015H6.05882L5.9225 0.314183C5.82026 0.120703 5.61009 0 5.38099 0H3.10136C2.87226 0 2.6621 0.120703 2.55985 0.314183ZM7.87647 2.27206H0.605882L1.00728 8.28946C1.03757 8.73855 1.43518 9.08823 1.91421 9.08823H6.56814C7.04717 9.08823 7.44478 8.73855 7.47507 8.28946L7.87647 2.27206Z" fill="#333333"/>
</svg>
