<svg width="80" height="61" viewBox="0 0 80 61" fill="none" xmlns="http://www.w3.org/2000/svg">
<path d="M46 7.625C46 5.55664 47.6816 3.875 49.75 3.875H72.25C74.3184 3.875 76 5.55664 76 7.625V26.375C76 28.4434 74.3184 30.125 72.25 30.125H49.75C47.6816 30.125 46 28.4434 46 26.375V7.625ZM64.9727 13.8652C64.709 13.4785 64.2754 13.25 63.8125 13.25C63.3496 13.25 62.9102 13.4785 62.6523 13.8652L57.5547 21.3418L56.002 19.4023C55.7324 19.0684 55.3281 18.875 54.9062 18.875C54.4844 18.875 54.0742 19.0684 53.8105 19.4023L50.0605 24.0898C49.7207 24.5117 49.6562 25.0918 49.8906 25.5781C50.125 26.0645 50.6172 26.375 51.1562 26.375H56.7812H58.6562H70.8438C71.3652 26.375 71.8457 26.0879 72.0859 25.625C72.3262 25.1621 72.2969 24.6055 72.0039 24.1777L64.9727 13.8652ZM52.5625 13.25C53.3084 13.25 54.0238 12.9537 54.5512 12.4262C55.0787 11.8988 55.375 11.1834 55.375 10.4375C55.375 9.69158 55.0787 8.97621 54.5512 8.44876C54.0238 7.92132 53.3084 7.625 52.5625 7.625C51.8166 7.625 51.1012 7.92132 50.5738 8.44876C50.0463 8.97621 49.75 9.69158 49.75 10.4375C49.75 11.1834 50.0463 11.8988 50.5738 12.4262C51.1012 12.9537 51.8166 13.25 52.5625 13.25Z" fill="#D9D9D9"/>
<path d="M47 35.8125C47 34.7408 47.8618 33.875 48.9286 33.875H72.0714C73.1382 33.875 74 34.7408 74 35.8125C74 36.8842 73.1382 37.75 72.0714 37.75H48.9286C47.8618 37.75 47 36.8842 47 35.8125ZM47 45.5C47 44.4283 47.8618 43.5625 48.9286 43.5625H72.0714C73.1382 43.5625 74 44.4283 74 45.5C74 46.5717 73.1382 47.4375 72.0714 47.4375H48.9286C47.8618 47.4375 47 46.5717 47 45.5ZM61 55.1875C61 56.2592 60.1382 57.125 59.0714 57.125H48.9286C47.8618 57.125 47 56.2592 47 55.1875C47 54.1158 47.8618 53.25 48.9286 53.25H59.0714C60.1382 53.25 61 54.1158 61 55.1875Z" fill="#D9D9D9"/>
<rect x="42.5" y="0.5" width="37" height="60" rx="5.5" stroke="#333333"/>
<path d="M0 7.625C0 5.55664 1.68164 3.875 3.75 3.875H26.25C28.3184 3.875 30 5.55664 30 7.625V26.375C30 28.4434 28.3184 30.125 26.25 30.125H3.75C1.68164 30.125 0 28.4434 0 26.375V7.625ZM18.9727 13.8652C18.709 13.4785 18.2754 13.25 17.8125 13.25C17.3496 13.25 16.9102 13.4785 16.6523 13.8652L11.5547 21.3418L10.002 19.4023C9.73242 19.0684 9.32812 18.875 8.90625 18.875C8.48438 18.875 8.07422 19.0684 7.81055 19.4023L4.06055 24.0898C3.7207 24.5117 3.65625 25.0918 3.89062 25.5781C4.125 26.0645 4.61719 26.375 5.15625 26.375H10.7812H12.6562H24.8438C25.3652 26.375 25.8457 26.0879 26.0859 25.625C26.3262 25.1621 26.2969 24.6055 26.0039 24.1777L18.9727 13.8652ZM6.5625 13.25C7.30842 13.25 8.02379 12.9537 8.55124 12.4262C9.07868 11.8988 9.375 11.1834 9.375 10.4375C9.375 9.69158 9.07868 8.97621 8.55124 8.44876C8.02379 7.92132 7.30842 7.625 6.5625 7.625C5.81658 7.625 5.10121 7.92132 4.57376 8.44876C4.04632 8.97621 3.75 9.69158 3.75 10.4375C3.75 11.1834 4.04632 11.8988 4.57376 12.4262C5.10121 12.9537 5.81658 13.25 6.5625 13.25Z" fill="#D9D9D9"/>
<path d="M1 35.8125C1 34.7408 1.86183 33.875 2.92857 33.875H26.0714C27.1382 33.875 28 34.7408 28 35.8125C28 36.8842 27.1382 37.75 26.0714 37.75H2.92857C1.86183 37.75 1 36.8842 1 35.8125ZM1 45.5C1 44.4283 1.86183 43.5625 2.92857 43.5625H26.0714C27.1382 43.5625 28 44.4283 28 45.5C28 46.5717 27.1382 47.4375 26.0714 47.4375H2.92857C1.86183 47.4375 1 46.5717 1 45.5ZM15 55.1875C15 56.2592 14.1382 57.125 13.0714 57.125H2.92857C1.86183 57.125 1 56.2592 1 55.1875C1 54.1158 1.86183 53.25 2.92857 53.25H13.0714C14.1382 53.25 15 54.1158 15 55.1875Z" fill="#D9D9D9"/>
</svg>
