<svg width="88" height="100" viewBox="0 0 88 100" fill="none" xmlns="http://www.w3.org/2000/svg">
<path d="M81.6502 0C78.5099 0 56.5271 6.25 56.5271 34.375V56.25C56.5271 63.1445 62.1602 68.75 69.0887 68.75H75.3695V93.75C75.3695 97.207 78.1762 100 81.6502 100C85.1243 100 87.931 97.207 87.931 93.75V68.75V46.875V6.25C87.931 2.79297 85.1243 0 81.6502 0ZM12.5616 3.125C12.5616 1.52344 11.3643 0.195312 9.75485 0.0195313C8.1454 -0.15625 6.71259 0.898438 6.3593 2.44141L0.412177 29.0625C0.137392 30.293 0 31.543 0 32.793C0 41.7578 6.88924 49.1211 15.702 49.9219V93.75C15.702 97.207 18.5087 100 21.9828 100C25.4568 100 28.2635 97.207 28.2635 93.75V49.9219C37.0763 49.1211 43.9655 41.7578 43.9655 32.793C43.9655 31.543 43.8281 30.293 43.5533 29.0625L37.6062 2.44141C37.2529 0.878906 35.7809 -0.15625 34.191 0.0195313C32.6012 0.195312 31.4039 1.52344 31.4039 3.125V29.3359C31.4039 30.3906 30.5403 31.25 29.4804 31.25C28.4794 31.25 27.6551 30.4883 27.557 29.4922L25.1035 2.85156C24.9661 1.23047 23.6118 0 21.9828 0C20.3537 0 18.9994 1.23047 18.862 2.85156L16.4282 29.4922C16.33 30.4883 15.5057 31.25 14.5047 31.25C13.4448 31.25 12.5812 30.3906 12.5812 29.3359V3.125H12.5616ZM22.0416 32.8125H21.9828H21.9239L21.9828 32.6758L22.0416 32.8125Z" fill="#FCC800"/>
</svg>
