<?xml version="1.0" encoding="UTF-8"?>
<svg id="_レイヤー_1" data-name="レイヤー 1" xmlns="http://www.w3.org/2000/svg" xmlns:xlink="http://www.w3.org/1999/xlink" viewBox="0 0 8000 2000">
  <defs>
    <style>
      .cls-1 {
        clip-path: url(#clippath-11);
      }

      .cls-2 {
        clip-path: url(#clippath-16);
      }

      .cls-3, .cls-4, .cls-5, .cls-6, .cls-7, .cls-8, .cls-9, .cls-10, .cls-11, .cls-12, .cls-13, .cls-14, .cls-15, .cls-16, .cls-17 {
        fill: none;
      }

      .cls-3, .cls-4, .cls-5, .cls-7, .cls-8, .cls-9, .cls-10, .cls-11, .cls-12, .cls-13, .cls-14, .cls-15, .cls-16, .cls-17 {
        stroke: #000;
      }

      .cls-3, .cls-4, .cls-7, .cls-8, .cls-9, .cls-11, .cls-13, .cls-14, .cls-15, .cls-16 {
        stroke-linejoin: round;
      }

      .cls-3, .cls-15 {
        stroke-width: 22.52px;
      }

      .cls-4, .cls-5, .cls-14 {
        stroke-width: 9.84px;
      }

      .cls-18 {
        fill: #0d0f6f;
      }

      .cls-18, .cls-19, .cls-6, .cls-20, .cls-21, .cls-22 {
        stroke-width: 0px;
      }

      .cls-23 {
        clip-path: url(#clippath-2);
      }

      .cls-24 {
        clip-path: url(#clippath-13);
      }

      .cls-25 {
        clip-path: url(#clippath-15);
      }

      .cls-26 {
        clip-path: url(#clippath-6);
      }

      .cls-5, .cls-7, .cls-8, .cls-9, .cls-11, .cls-12, .cls-13, .cls-14, .cls-15, .cls-16, .cls-17 {
        stroke-linecap: round;
      }

      .cls-5, .cls-10, .cls-12, .cls-17 {
        stroke-miterlimit: 10;
      }

      .cls-7 {
        stroke-width: 14.29px;
      }

      .cls-7, .cls-27, .cls-15 {
        opacity: .94;
      }

      .cls-28 {
        clip-path: url(#clippath-7);
      }

      .cls-8 {
        stroke-width: 17.33px;
      }

      .cls-29 {
        clip-path: url(#clippath-1);
      }

      .cls-30 {
        clip-path: url(#clippath-4);
      }

      .cls-31 {
        clip-path: url(#clippath-12);
      }

      .cls-20 {
        fill: #fff;
      }

      .cls-27 {
        isolation: isolate;
      }

      .cls-9 {
        stroke-width: 3px;
      }

      .cls-10 {
        stroke-width: .1px;
      }

      .cls-32 {
        clip-path: url(#clippath-9);
      }

      .cls-21 {
        fill: #141313;
      }

      .cls-33 {
        clip-path: url(#clippath);
      }

      .cls-11 {
        stroke-width: 10px;
      }

      .cls-34 {
        clip-path: url(#clippath-3);
      }

      .cls-12 {
        stroke-width: 10.27px;
      }

      .cls-35 {
        clip-path: url(#clippath-8);
      }

      .cls-13 {
        stroke-width: 15.43px;
      }

      .cls-36 {
        clip-path: url(#clippath-18);
      }

      .cls-37 {
        clip-path: url(#clippath-14);
      }

      .cls-38 {
        clip-path: url(#clippath-17);
      }

      .cls-39 {
        clip-path: url(#clippath-5);
      }

      .cls-22 {
        opacity: 0;
      }

      .cls-16 {
        stroke-width: 24.01px;
      }

      .cls-40 {
        clip-path: url(#clippath-10);
      }

      .cls-17 {
        stroke-width: 3.2px;
      }
    </style>
    <clipPath id="clippath">
      <rect class="cls-6" x="21" y="22" width="1957" height="1956"/>
    </clipPath>
    <clipPath id="clippath-1">
      <rect class="cls-6" width="2000" height="2000"/>
    </clipPath>
    <clipPath id="clippath-2">
      <rect class="cls-6" width="8000" height="2000"/>
    </clipPath>
    <clipPath id="clippath-3">
      <rect class="cls-6" x="21" y="22" width="1957" height="1956"/>
    </clipPath>
    <clipPath id="clippath-4">
      <rect class="cls-6" width="2000" height="2000"/>
    </clipPath>
    <clipPath id="clippath-5">
      <rect class="cls-6" width="8000" height="2000"/>
    </clipPath>
    <clipPath id="clippath-6">
      <rect class="cls-6" x="1177" y="867" width="186" height="96"/>
    </clipPath>
    <clipPath id="clippath-7">
      <rect class="cls-6" x="21" y="22" width="1957" height="1956"/>
    </clipPath>
    <clipPath id="clippath-8">
      <rect class="cls-6" x="1177" y="867" width="185" height="95"/>
    </clipPath>
    <clipPath id="clippath-9">
      <rect class="cls-6" width="2000" height="2000"/>
    </clipPath>
    <clipPath id="clippath-10">
      <rect class="cls-6" x="21" y="22" width="1957" height="1956"/>
    </clipPath>
    <clipPath id="clippath-11">
      <rect class="cls-6" x="21" y="22" width="1957" height="1956"/>
    </clipPath>
    <clipPath id="clippath-12">
      <rect class="cls-6" width="2000" height="2000"/>
    </clipPath>
    <clipPath id="clippath-13">
      <rect class="cls-6" width="8000" height="2000"/>
    </clipPath>
    <clipPath id="clippath-14">
      <rect class="cls-6" x="1241" y="543" width="112" height="179"/>
    </clipPath>
    <clipPath id="clippath-15">
      <rect class="cls-6" x="21" y="22" width="1957" height="1956"/>
    </clipPath>
    <clipPath id="clippath-16">
      <rect class="cls-6" x="1241" y="543" width="111" height="178"/>
    </clipPath>
    <clipPath id="clippath-17">
      <rect class="cls-6" width="2000" height="2000"/>
    </clipPath>
    <clipPath id="clippath-18">
      <rect class="cls-6" x="21" y="22" width="1957" height="1956"/>
    </clipPath>
  </defs>
  <g class="cls-33">
    <g class="cls-29">
      <g class="cls-23">
        <path class="cls-16" d="m800.11,1932.94c-13.38-3.16-42.44-10.22-57.02-14.1-13.7-3.89-40.92-12.55-54.5-17.05-13.5-4.88-40.42-14.88-53.74-20.22-13.29-5.67-39.81-17.79-53-23.98-12.86-6.46-38.34-19.63-50.98-26.71-12.49-7.2-37.06-22.04-50.13-30.33-13.4-8.79-37.35-25.64-49.15-34.15-11.56-8.81-34.36-26.6-45.41-35.71-10.88-9.47-32.36-28.67-42.95-38.4-10.86-10.42-32.7-32.51-42.61-43.08-9.63-10.66-28.7-32.23-38.04-43.44-9.24-11.41-26.69-34.26-35.28-45.75-8.41-11.72-24.55-35.42-32.33-47.45-7.52-12.25-22.19-36.85-29.34-49.21-6.82-12.48-20.01-38.1-26.39-51.24-6.21-13.17-17.99-39.59-23.91-53.92-5.83-14.88-15.76-42.23-20.55-55.82-4.55-13.75-12.67-41.19-16.55-54.98-3.53-14.03-10.26-42.35-13.45-56.64-2.78-14.14-7.49-42.55-9.7-56.78-1.97-14.38-5.24-43.34-6.47-57.61-.89-14.28-2.32-42.96-2.85-57.36-.2-14.3.22-42.86.62-57.19.78-14.37,2.65-42.98,3.97-57.33,1.55-14.27,5.4-43.14,7.61-57.45,2.39-14.28,7.82-42.39,10.88-56.36,3.4-14.05,10.53-41.87,14.25-55.65,4.56-15.24,14.04-43.97,18.71-57.51,5.04-13.49,15.39-40.21,20.97-53.43,5.74-13.06,17.92-39.21,24.23-52.08,6.48-12.79,19.87-37.52,27.53-50.82,11.77-19.78,14.37-23.98,14.79-24.65"/>
        <path class="cls-16" d="m412.45,240.48l54.17-31.64c6.95-4.77,34.82-22.31,47.53-29.98,12.35-7.2,37.26-20.97,49.85-27.54,12.91-6.35,38.91-18.7,52-24.71,14.26-6.14,42.75-17.53,56.31-22.56,13.7-4.78,40.97-13.99,55.08-18.31,14.12-4.06,42.17-11.43,56.2-14.82,14.03-3.2,42.1-8.82,56.14-11.29,14.21-2.18,42.61-6.16,56.81-7.96,14.19-1.41,42.86-3.49,57.22-4.38,14.29-.5,42.77-1.19,57.13-1.09,14.39.31,43.45,1.67,57.98,2.49,14.48,1.1,45.44,4.4,60.39,6.38,14.23,2.16,42.71,6.77,56.79,9.42,13.92,2.93,41.76,9.54,55.7,12.99,13.85,3.82,41.35,11.75,54.97,16.17,13.54,4.59,40.69,14.4,54,19.52,13.31,5.35,39.78,16.95,53.05,22.96,13.06,6.32,38.83,19.19,51.43,25.89,12.39,6.9,37.1,21.48,49.4,28.89,12.1,7.64,35.98,23.55,47.7,31.81,11.56,8.5,34.59,25.77,45.87,34.71,11.34,9.29,33.19,28.22,43.99,37.8,10.53,9.85,31.23,29.71,41.33,39.97,9.91,10.4,29.53,32.01,39.19,42.87,9.35,10.96,27.24,33.16,35.92,44.47,8.55,11.57,25.44,34.93,33.47,46.68,7.82,11.95,22.95,36.36,30.42,48.72,7.78,13.43,22.85,41.12,29.98,55.21,6.32,13.17,18.51,39.41,24.37,52.48,5.59,13.31,16.48,41.82,21.64,55.77,4.75,13.62,13.57,40.81,17.58,54.45,3.72,13.84,10.81,41.65,14.19,55.63,3.05,13.95,8.42,41.88,10.78,56.06,2.1,14.29,6.05,43.42,7.75,59.01,1.33,14.78,3.1,43.42,3.84,57.75.47,14.29.72,42.78.48,56.99-.56,14.34-1.96,43.09-3,57.38-1.3,14.39-4.69,43.1-6.57,57.48-2.26,14.29-7.08,42.68-9.9,56.84-3.03,14.06-9.83,42.42-13.5,56.43-3.84,13.96-12.19,41.36-16.67,54.94-4.85,13.7-14.87,41.12-20.18,54.61-5.49,13.16-17.17,39.22-23.17,52.23-6.32,12.82-19.23,38.27-26.17,50.93-7.1,12.55-21.9,37.22-29.38,49.45-7.7,12.06-24.13,35.96-32.58,47.92-8.66,11.6-26.21,34.44-35.09,45.68-9.17,10.95-28.38,32.7-38.11,43.5-9.9,10.56-30.08,31.12-40.31,40.99-10.51,9.7-31.96,28.99-42.91,38.59-11.59,9.69-34.43,27.62-45.89,36.4-11.67,8.45-35.04,24.99-46.89,32.91-11.97,7.69-36.62,22.67-49,30.02-12.4,7.03-37.51,20.45-50.32,26.87-12.99,6.2-39.14,18.36-52.97,24.35-14.82,6.11-42.41,16.56-55.93,21.51-13.61,4.57-41.12,13.41-55.19,17.5-13.94,3.8-41.99,10.73-55.99,14.05-13.94,2.98-42.03,8.19-56.21,10.48-14.39,2.05-43.4,5.88-57.72,7.36-14.27,1.09-42.96,2.9-57.38,3.61-14.29.33-42.82.59-57.28.26-14.5-.62-43.46-2.12-57.97-3.23-14.34-1.31-42.73-4.84-56.92-6.76-14.21-2.3-42.47-7.17-56.32-9.96-13.89-3.17-41.74-9.93-55.7-13.51-13.78-3.86-41.18-12.22-54.83-16.79-13.56-4.84-40.53-14.74-55.38-20.67-14.72-6.16-40.72-17.98-53.71-24.05-13.01-6.37-38.4-19.59-50.88-26.48-12.44-7.24-37.1-22.06-49.33-29.63-11.89-7.76-35.41-23.93-47.19-32.45-11.48-8.63-34.15-26.05-46.51-36.16-12.22-10.35-33.63-29.5-44.25-39.18-10.43-9.88-30.98-30.48-41-41-9.75-10.68-28.87-32.22-38.26-43.07-9.04-11.04-26.76-33.97-35.53-45.56-8.46-11.81-25.03-35.47-33.75-48.88-8.48-13.54-23.24-38.17-30.36-50.61-7.02-12.67-20.11-38.19-26.52-51.08-6.07-13.05-18.1-39.58-23.82-53.21-3.22-8.23-8.09-20.74-9.73-25.02"/>
        <path class="cls-8" d="m1122.52,1718.22c-12.64,2.02-46.1,6.43-57.21,7.48-14.05,1.06-43.1,2.47-57.36,2.82-14.68-.01-43.42-.93-58.2-1.77-14.57-1.16-43.49-4.35-57.85-6.39-14.24-2.28-42.82-7.71-56.85-10.88-13.95-3.41-44.97-11.89-55.21-15.13-13.79-4.59-41.28-14.53-54.86-19.86-13.25-5.61-39.25-17.49-52.21-23.81-26.34-13.58-50.8-29.35-52.99-30.69"/>
        <path class="cls-8" d="m564.98,1580.67c-20.73-12.99-33.98-23.54-45.16-33.17-10.45-9.41-33.81-31.53-41.33-39.23-9.99-10.55-29.08-31.73-38.37-42.61-9.2-11.39-27.09-34.82-35.67-46.71-6.24-8.91-24.03-36.51-31.6-49.08-7.3-12.62-21.02-38.19-27.42-51.06-6.23-13.13-17.95-39.82-23.42-53.39-5.22-13.88-14.92-41.83-19.46-56.28-3.84-13.52-11-41.41-14.25-55.52-2.26-10.6-7.85-42.9-9.94-57.4-1.81-14.33-4.67-46.14-5.49-60.73-.6-14.55-.88-44.28-.52-58.72.64-14.83,2.69-43.88,4.14-58.15,1.8-14.29,6.11-42.61,8.63-56.76,2.85-13.92,9.44-41.75,13.13-55.8,3.92-13.76,12.66-41,17.4-54.5,6.25-16.8,14.83-38.95,17.47-45.18"/>
        <path class="cls-8" d="m352.38,665.46c4.14-7.82,28-47.78,35.76-60.17,7.66-11.67,24.13-35.03,32.65-46.46,8.79-11.41,27.29-33.75,36.93-44.71,9.82-10.76,30.72-32.32,42.21-43.39,10.79-9.98,32.49-28.96,43.62-38.09,11.19-8.84,34.26-25.96,46.03-34.17,12.02-8.07,36.79-23.52,49.28-30.84,12.68-7.13,38.32-20.42,51.26-26.66,12.94-5.96,39.09-17.09,52.48-22.26,13.52-4.94,40.82-14.13,54.54-18.25,13.85-3.84,41.95-10.83,55.96-13.87,14.02-2.77,42.43-7.43,56.55-9.36,14.24-1.68,42.72-4.09,57.03-4.89,14.33-.54,42.99-.78,57.39-.4,14.27.61,43.24,2.63,58.74,4.23,16.2,2.1,26.51,2.81,60.39,13.5"/>
        <path class="cls-8" d="m1296.26,337.66c9.83,2.19,52.28,21.68,65.12,29.02,12.58,7.51,43.19,27.2,55.05,35.3,11.73,8.35,35.07,25.97,46.31,35.02,10.99,9.18,32.49,28.35,43,38.27,13.07,12.78,30.28,30.96,39.88,41.57,9.61,11.02,27.92,33.4,36.64,44.81,8.47,11.47,22.91,31.99,32.67,47.09,7.58,12.18,22.27,37.31,29.2,50.14,6.73,13.02,19.37,39.38,25.26,52.67,5.69,13.57,16.14,40.82,20.94,54.47,4.47,13.6,12.59,41.02,16.26,55.04,3.39,13.9,9.44,42.12,11.99,56.56,2.29,14.39,6.07,42.98,7.46,57.14,1.1,14.31,2.56,43.02,2.88,57.32-.01,14.33-.84,42.93-1.66,57.31-1.1,14.2-3.67,39.18-6.21,57.37-2.26,14.37-7.6,42.9-10.74,56.93-3.39,13.97-11.73,44.85-14.97,55.18-4.61,13.95-14.34,41.06-19.53,54.38-5.57,13.29-17.49,39.62-23.82,52.66-4.82,9.57-20.36,37.84-27.71,50.28-7.57,12.32-19.48,29.11-27.75,40.85-8.51,11.59-10.78,14.14-20.11,25.42-4.2,4.83-7.18,8.27-10.34,11.49"/>
        <path class="cls-8" d="m1333.68,1646.55c-15.09,8.41-27.21,13.97-40.59,20.3-13.55,6.11-29.08,12.34-42.87,17.49-5.83,2.06-13.57,4.68-21.88,7.4-11.36,3.71-23.8,7.6-33.92,10.47-6.41,1.7-15.83,4.02-25.5,6.31-11.37,2.69-23.1,5.34-30.71,6.86-14.2,2.58-43.1,6.95-57.53,8.71-14.57,1.46-43.68,3.49-58.28,4.09-14.61.3-43.96,0-58.69-.62-14.85-.87-44.88-3.58-59.29-5.39-15.6-2.3-37.59-6.02-41.96-6.78"/>
        <path class="cls-11" d="m242.55,976.42c.48-13.6,2.76-47.31,3.93-58.46,1.75-14.21,5.96-42.67,8.46-57.09,2.9-14.49,9.49-43.33,13.16-57.56,4.04-14.52,13.22-43.87,17.96-57.52,10.89-29.73,25.14-61.64,27.66-67.15"/>
        <path class="cls-11" d="m342.74,622.75c6.92-11.52,24.26-39.57,31.31-49.94,8.78-12.52,26.21-35.99,35.18-47.38,9.16-11.2,28.07-32.88,37.66-43.33,9.82-10.37,30.53-30.78,41.24-40.75,10.72-9.62,32.52-28.15,43.84-37.18,11.44-8.78,35.03-25.9,46.97-34.04,12.05-7.9,36.93-23.12,49.42-30.31,15.77-8.73,38.18-20.04,51.06-26.19,13.11-6,39.93-17.28,53.71-22.57,13.68-4.98,41.2-14.18,55.13-18.35,13.92-3.89,42.24-10.96,56.36-14.05,14.22-2.85,42.96-7.65,57.24-9.66,14.38-1.79,43.47-4.39,58.14-5.29,14.58-.62,43.51-1.06,58.01-.81,32.09,1.14,62.77,4.22,63.94,4.34"/>
        <path class="cls-11" d="m1261.95,289.67c8.96,3.24,41.26,16.56,54.42,22.49,12.84,6.08,41.88,20.78,51.41,26.07,12.7,7.29,37.33,22.22,49.38,29.96,11.89,8.09,35.41,25.01,47.1,33.88,11.46,9.07,33.96,28.03,44.73,37.66,10.5,9.7,30.96,29.73,40.93,40.12,9.93,10.76,29.13,32.61,38.28,43.66,8.87,11.27,26.12,34.36,34.6,46.3,8.09,11.99,23.63,36.55,31.14,49.15,7.17,12.53,20.7,37.93,27.07,50.85,6.21,13.12,19.35,43.05,23.32,53.11,5.14,13.6,14.75,40.98,19.2,54.82,4.07,13.9,11.47,41.97,14.86,56.21,3.03,14.04,8.24,42.38,10.48,56.84,1.99,14.41,5.07,43.07,6.16,57.26.82,14.36,1.77,43.55,1.83,57.98-.26,13.95-1.87,44.26-2.88,59.9"/>
        <path class="cls-11" d="m1745.76,1129.03c-.61,3.48-8.31,41.32-11.68,55.16-3.52,13.49-11.46,41.03-16.12,55.27-6.13,17.76-11.31,31.48-12.23,33.87"/>
        <polyline class="cls-11" points="1598.53 1463.35 1553.68 1516.12 1552.3 1517.71"/>
        <path class="cls-11" d="m1348.61,1672.11c-13.97,7.06-39.87,19.26-54.39,25.56-21.73,8.9-30.11,11.97-32.19,12.73"/>
        <line class="cls-11" x1="1197.87" y1="1730.85" x2="1149.37" y2="1742.48"/>
        <line class="cls-11" x1="1041.32" y1="1756.13" x2="984.34" y2="1757.3"/>
        <line class="cls-11" x1="868.76" y1="1746.05" x2="840.06" y2="1740.33"/>
        <line class="cls-11" x1="655.55" y1="1674.91" x2="625.96" y2="1658.79"/>
        <path class="cls-11" d="m527.33,1592.15c-22.62-17.62-47.29-40.93-48.99-42.54"/>
        <path class="cls-11" d="m419.92,1487.64c-9.97-12.39-29.3-37.13-37.64-48.63-4.5-6.41-11.48-16.75-13.77-20.19"/>
        <path class="cls-11" d="m286.05,1254.03c-5.47-15.53-13.15-40.17-17.17-54.34-7.07-26.76-14.38-62.94-15.71-70.35"/>
        <path class="cls-11" d="m242.38,978.62c.65-13.34,2.58-45.7,3.76-57.21,1.69-14.48,5.89-43.59,8.43-58.3,2.8-14.64,9.16-42.72,12.65-56.46,3.75-13.86,12.09-41.15,16.74-54.9,10.27-28.72,26.31-65.88,31.55-76.84"/>
        <line class="cls-11" x1="1177.49" y1="1905.45" x2="1195.63" y2="1901.53"/>
        <path class="cls-11" d="m1416.05,1823.28c13.75-6.93,36.88-19.83,50.03-27.29,31.2-18.95,59.49-38.04,68.22-44.17"/>
        <path class="cls-11" d="m1595.53,1704.36c10.65-9.35,32.66-29.03,43.08-38.85,10.49-10.23,31.54-31.84,41.43-42.49,9.77-10.87,24.47-27.88,28.34-32.41"/>
        <polyline class="cls-11" points="1857.53 1338.69 1858.89 1335.74 1865.71 1317.53"/>
        <line class="cls-11" x1="1909.71" y1="1150.76" x2="1911.15" y2="1141.71"/>
        <path class="cls-11" d="m1921.81,1023.77c.17-15.65.09-46.11-.42-60.15-.79-14.38-2.68-43.13-4.05-57.69-1.59-14.39-5.51-43.21-7.78-57.56-2.46-14.38-8.15-42.83-11.32-56.87-3.48-14-10.72-41.91-14.68-55.7-4.26-13.75-13.57-41.13-18.36-54.75-5.1-13.32-15.62-39.83-21.44-53.17-6.01-13.26-18.58-39.55-25.03-52.29-6.65-12.65-20.74-37.56-27.99-50.04-7.6-12.29-23.33-37.04-31.67-49.34-8.39-11.7-25.46-34.86-34.15-46.32-9.36-11.74-29.35-35.45-38.97-46.28-9.68-10.64-29.44-31.44-40.42-42.35-11.18-10.74-32.42-30.07-43.19-39.7-10.89-9.34-33.16-27.18-44.46-36-11.61-8.55-34.85-25.29-46.65-33.34-12.05-7.86-36.92-23.13-49.34-30.59-12.55-7.17-38.25-21.04-51.05-27.48-12.86-6.15-38.84-18.25-51.98-23.95-13.45-5.55-40.38-15.81-53.91-20.78-13.57-4.56-40.7-13.3-54.47-17.27-13.78-3.75-41.73-10.63-55.61-13.91-13.93-2.95-42.52-8.12-56.66-10.35-14.2-2.06-43-5.6-57.38-7-14.37-1.01-43.28-2.62-57.82-3.24-14.43-.27-43.3-.1-57.8.37-14.31.74-42.83,2.52-57.03,3.83-14.26,1.54-42.61,5.4-56.8,7.49-14.13,2.36-42.21,7.83-56.3,10.93-14.15,3.47-42.31,10.77-56.31,14.6-14.06,4.25-42.49,13.86-56.45,18.75-13.6,5.05-40.15,15.64-53.09,21.23-26.85,12.12-56.56,27.14-58.66,28.25"/>
        <path class="cls-11" d="m191.71,553.99c-6.64,12.51-20.14,38.64-26.24,51.39-5.97,13.06-17.62,39.39-23.11,52.96-5.28,13.62-15.21,41.08-19.83,54.71-4.44,13.74-12.32,41.21-16.09,55.03-3.44,14.07-10,42.4-12.93,56.79-2.61,14.2-7.06,42.86-9.15,57.23-1.78,14.45-4.62,43.74-5.65,58.63-.8,14.27-1.53,33.65-1.65,37.53"/>
        <line class="cls-11" x1="87.63" y1="1140.48" x2="90.17" y2="1156.75"/>
        <line class="cls-11" x1="194.38" y1="1450.93" x2="215.43" y2="1486.46"/>
        <line class="cls-11" x1="354.62" y1="1660.07" x2="387.04" y2="1690.11"/>
        <line class="cls-11" x1="474.15" y1="1758.52" x2="475.85" y2="1759.71"/>
        <line class="cls-11" x1="565.48" y1="1814.37" x2="613.08" y2="1837.81"/>
        <line class="cls-11" x1="773.46" y1="1894.61" x2="825.88" y2="1906.21"/>
        <path class="cls-11" d="m927.59,1919.91c13.69.94,42.26,2.3,57.53,2.71,14.54.14,35.87-.2,41.9-.39"/>
        <path class="cls-11" d="m1413.56,1824.55c12.42-6.44,38.45-20.4,51.93-28.2,13.96-8.39,33.88-20.84,39.8-24.59"/>
        <path class="cls-15" d="m953.77,278.98s-45.17,172.54-50.09,374.91c-4.3,177.03-51.13,256.41-57.01,257.41"/>
        <path class="cls-15" d="m234.2,665.46c-60.25-92.9-51.06-200.26-18.77-264.48,25.24-50.21,81.56-93.18,161.13-140.44,49.77-29.57,100.01-52.12,148.08-64.73,64.61-16.96,164.57-28.3,228.24-36.41s176.02-9.53,247.47,3.33c3.54.64,54.95,13.04,73.02,19.88,140.9,53.32,272.04,137.18,286.04,336.56,9.17,130.49-47.97,206.49-113.09,263.56-146.33,128.24-416.45,121.07-462.59,271.03-.26.83-47.63-154.07,270.27-241.41,219.98-60.44,241.52-241.23,242.26-298.48l-4.17-17.33"/>
        <path class="cls-15" d="m234.2,665.46s-24.5-58.05,17.44-134.03c0,0,17.28,113.13,114.72,194.9,97.44,81.76-319.4-282.24,403.18-568.53"/>
        <path class="cls-15" d="m716.78,181.1s477.29-59.65,582.71,337.56c11.49,43.29,25.3,105.18,26.86,159.98"/>
        <path class="cls-15" d="m783.57,1051.5s126.46,122.66,157.01,277.21"/>
        <path class="cls-15" d="m815.17,1013.26c33.36,39.19,140.61,170.8,159.95,263.61"/>
        <path class="cls-15" d="m793.35,1074.18c-35.01,141.96-45.02,194.23-32.15,248.38,13.23,55.65,50.44,57.93,77.48,63.18,64.42,12.5,108.28-34.58,173.6-182.21.18-.41.36-.82.39-1.23,1.58-19.58,4.21-191.22,17.97-301.43"/>
        <path class="cls-15" d="m778.91,1133.99c-43.56,187.56-51.88,266.07-48.32,323.85,3.55,57.78-13.56,164.29,23.19,172.46,36.75,8.16,52.49,13.41,64.74,11.66s33.83-28.55,33.83-28.55c0,0,49.58-50.19,94.5-144.1,38.28-80.04,60.86-236.18,65.59-262.52.81-4.56.84-17.46.58-13.16"/>
        <path class="cls-15" d="m1051.55,812.76s96.3-190.46,149.68-465.27"/>
        <path class="cls-15" d="m1205.08,969.5c-26.88,45.09-104.03,142.32-161.87,321.27-35.48,109.79-56.8,129.27-68.09,128.1"/>
        <path class="cls-15" d="m1020.82,1019.86s79.35-123.74,150.43-151.08"/>
        <path class="cls-7" d="m1030.64,931.34c15.49-17.36,37.82-39.72,60.92-57.27"/>
        <path class="cls-15" d="m1241.31,400.98c-58.81,166.99-88.73,250.73-81.08,354.48"/>
        <path class="cls-15" d="m1173.74,841.36c5.45,23.98,12.48,49.8,21.14,78.25.22.72.44,1.44.66,2.19,17.77,60.18,43.79,74.48,60.72,99.3,6.55,9.59,7.4,11.14,8.15,12.77,37.76,81.37-159.38,358.5-164.95,386.99-4.76,24.33-16.77,163.93-24.22,176.97-7.45,13.04-47.97,62.4-86.15,47.97-38.19-14.44-41.39-69.44-57.47-143.24"/>
        <path class="cls-15" d="m1223.78,805.28c75.61-14.38,189.6-28.6,155.09,29.12-38.69,64.72-31.56,100.04-37.5,105.49-21.2,19.43-103.7-14.55-145.74-33.38l-7.02-8.09c.56-16.36,68.95-32.33,152.07,33.52"/>
        <path class="cls-15" d="m1327.09,948.35c6.56,13.12,117.72,153.05,93.19,146.39-41.82-11.34-64.75,25.46-93.01,93.15-11.65,27.89-29.25-132.56-63.95-156.53"/>
      </g>
    </g>
  </g>
  <g class="cls-34">
    <g class="cls-30">
      <g class="cls-39">
        <g class="cls-27">
          <g class="cls-26">
            <g class="cls-28">
              <path class="cls-22" d="m1362,962h1v1h-1v-1Zm-185,0h1v1h-1v-1Zm185-95h1v1h-1v-1Zm-185,0h1v1h-1v-1Z"/>
            </g>
            <g class="cls-35">
              <g class="cls-32">
                <g class="cls-40">
                  <path class="cls-22" d="m1345.69,945.93h1v1h-1v-1Zm-157.15,0h1v1h-1v-1Zm157.15-67.3h1v1h-1v-1Zm-157.15,0h1v1h-1v-1Z"/>
                  <path class="cls-19" d="m1207.74,907.7l-7.94-17.81,99.54,17.94c15.34,11.17,39.67,19.11,34.34,23.51-9.08,7.5-51.32,0-51.32,0l-74.62-23.64Z"/>
                  <path class="cls-3" d="m1207.74,907.7l-7.94-17.81,99.54,17.95c15.34,11.17,39.67,19.11,34.34,23.51-9.08,7.5-51.32,0-51.32,0l-74.62-23.64Z"/>
                </g>
              </g>
            </g>
          </g>
        </g>
      </g>
    </g>
  </g>
  <g class="cls-1">
    <g class="cls-31">
      <g class="cls-24">
        <g class="cls-27">
          <g class="cls-37">
            <g class="cls-25">
              <path class="cls-22" d="m1352,721h1v1h-1v-1Zm-111,0h1v1h-1v-1Zm111-178h1v1h-1v-1Zm-111,0h1v1h-1v-1Z"/>
            </g>
            <g class="cls-2">
              <g class="cls-38">
                <g class="cls-36">
                  <path class="cls-22" d="m1330.8,707.86h1v1h-1v-1Zm-76.21,0h1v1h-1v-1Zm76.21-146.98h1v1h-1v-1Zm-76.21,0h1v1h-1v-1Z"/>
                  <path class="cls-19" d="m1269.21,649.53c6.18,3.36,17.72,4.91,27.05,15.93,7.67,9.07,13.82,32.26,18.56,31.1,13.96-3.41-7.53-123.78-7.53-123.78-3.24-6.43-25.89,37.87-38.08,65.55-5.41,12.29-3.47,9.33,0,11.21Z"/>
                  <path class="cls-3" d="m1269.21,649.53c6.18,3.36,17.72,4.91,27.05,15.93,7.67,9.07,13.82,32.26,18.56,31.1,13.96-3.41-7.53-123.78-7.53-123.78-3.24-6.43-25.89,37.87-38.08,65.55-5.41,12.29-3.47,9.33,0,11.21Z"/>
                </g>
              </g>
            </g>
          </g>
        </g>
        <path class="cls-13" d="m1102.79,1417.05c2.61-25.62,130.07-356.9,158.92-358.51"/>
        <polyline class="cls-12" points="611.43 1576.21 593.37 1662.64 660.12 1726.06"/>
        <polyline class="cls-12" points="451.08 1576.21 469.14 1662.64 402.39 1726.06"/>
        <polyline class="cls-12" points="402.92 1727.7 490.71 1737.23 530.4 1820.31"/>
        <polyline class="cls-12" points="532.11 1820.31 568.31 1739.77 659.59 1727.7"/>
        <polyline class="cls-12" points="452.47 1575.2 529.09 1619.09 610.04 1575.2"/>
        <polyline class="cls-17" points="404.49 1726.15 432.07 1716.77 475.91 1701.86 493.13 1696.01 498.34 1694.24 515.46 1688.41 524.97 1685.18 542.18 1679.33 559.4 1673.47 580.31 1666.36 593.14 1662"/>
        <polyline class="cls-17" points="529.55 1619.99 529.62 1629.08 529.72 1641.09 529.8 1652.19 529.85 1658.15 530.01 1679.41 530.08 1688.49 530.16 1699.08 530.25 1711.09 530.34 1722.13 530.38 1728.15 530.51 1744.21 530.62 1759.43 530.7 1769.08 530.89 1794.18 531.06 1816.71"/>
        <polyline class="cls-17" points="452.94 1577.43 458.25 1584.74 471.53 1603.02 472.65 1604.55 491.01 1629.83 501.65 1644.47 513.79 1661.19 516.96 1665.56 528.01 1680.76 532.15 1686.47 537.78 1694.21 542.79 1701.11 554.57 1717.33 558.11 1722.19 570.77 1739.63"/>
        <polyline class="cls-17" points="658.9 1726.47 647.98 1722.81 645.61 1722.01 612.37 1710.87 592.3 1704.15 581.61 1700.56 553.59 1691.18 546 1688.63 534.53 1684.79 525.93 1681.9 487.22 1668.93 469.07 1662.85"/>
        <polyline class="cls-17" points="608.52 1578.55 573.88 1625.27 566.71 1634.94 564.32 1638.15 536.94 1675.08 525.02 1691.16 523.82 1692.77 522.63 1694.38 506.52 1716.1 496.09 1730.18 490.72 1737.42"/>
        <polygon class="cls-19" points="610.78 1574.78 532.11 1682.04 595.85 1662 610.78 1574.78"/>
        <polygon class="cls-10" points="610.78 1574.78 532.11 1682.04 595.85 1662 610.78 1574.78"/>
        <polygon class="cls-19" points="530.3 1683.51 657.4 1727.18 570.77 1737.42 529.21 1686.11 530.69 1818.37 491.37 1739.11 530.3 1683.51"/>
        <polygon class="cls-10" points="530.3 1683.51 657.4 1727.18 570.77 1737.42 529.21 1686.11 530.69 1818.37 491.37 1739.1 530.3 1683.51"/>
        <polyline class="cls-19" points="402.98 1725.95 529.55 1683.51 469.73 1663.01"/>
        <polyline class="cls-10" points="402.98 1725.95 529.55 1683.51 469.73 1663.01"/>
        <polyline class="cls-19" points="526.82 1679.65 454.2 1578.24 528.01 1618.91 528.99 1681.12"/>
        <polyline class="cls-10" points="526.82 1679.65 454.2 1578.24 528.01 1618.91 528.99 1681.12"/>
        <polyline class="cls-5" points="1552.08 1430.19 1511.49 1470.59 1477.89 1565.48 1475.34 1596.5 1467.46 1566.49 1416.29 1479.8 1368.71 1447.94"/>
        <polyline class="cls-5" points="1292.09 1615.84 1343.47 1590.56 1444.14 1589.59 1474.31 1597.24 1448.48 1580.05 1383.09 1503.5 1368.41 1448.15"/>
        <polyline class="cls-5" points="1659.48 1580.28 1604.2 1565.33 1505.22 1583.67 1477.07 1596.97 1499.13 1575.15 1548.62 1487.48 1552.42 1430.35"/>
        <polyline class="cls-5" points="1659.51 1580.65 1608.13 1605.92 1507.46 1606.9 1477.54 1598.71 1503.12 1616.43 1568.51 1692.98 1583.19 1748.33 1535.31 1716.68 1484.14 1629.99 1475.68 1600.04 1473.71 1631 1440.1 1725.9 1399.52 1766.29 1402.98 1709 1452.47 1621.34 1474.19 1599.04 1446.38 1612.81 1347.4 1631.16 1292.12 1616.2"/>
        <polyline class="cls-5" points="1401.67 1650.35 1375.63 1658.95 1361.92 1678.72"/>
        <polyline class="cls-5" points="1547.78 1546.85 1565.74 1523.21 1590.83 1516.11"/>
        <polyline class="cls-5" points="1393.61 1560.1 1373.14 1541.85 1349.17 1539.86"/>
        <polyline class="cls-5" points="1466.4 1508.12 1455.79 1482.84 1461.69 1459.52"/>
        <polyline class="cls-5" points="1467.28 1510.21 1473.31 1481.14 1462.18 1457.56"/>
        <polyline class="cls-5" points="1395.3 1561.61 1365.85 1557.87 1347.16 1539.69"/>
        <polyline class="cls-5" points="1547.78 1546.85 1575.97 1537.54 1590.83 1516.11"/>
        <polyline class="cls-5" points="1403.82 1649.64 1385.86 1673.28 1360.77 1680.38"/>
        <polyline class="cls-5" points="1557.99 1636.39 1578.46 1654.64 1602.43 1656.63"/>
        <polyline class="cls-5" points="1485.2 1688.36 1495.81 1713.65 1489.91 1736.97"/>
        <polyline class="cls-5" points="1484.32 1686.27 1478.29 1715.34 1489.42 1738.92"/>
        <polyline class="cls-5" points="1556.3 1634.88 1585.75 1638.61 1604.44 1656.79"/>
        <line class="cls-14" x1="1473.78" y1="1595.62" x2="1370.52" y2="1450.77"/>
        <line class="cls-14" x1="1580.45" y1="1744.58" x2="1476.51" y2="1599.54"/>
        <line class="cls-14" x1="1656.35" y1="1580.67" x2="1477.93" y2="1597.69"/>
        <line class="cls-14" x1="1550.87" y1="1433.82" x2="1476.6" y2="1596"/>
        <line class="cls-14" x1="1401.1" y1="1762.73" x2="1474.13" y2="1601.35"/>
        <line class="cls-14" x1="1296.26" y1="1615.57" x2="1472.12" y2="1598.19"/>
        <polygon class="cls-19" points="1481.22 1584.1 1548.89 1440.83 1546.52 1491.83 1485.93 1585.63 1498.67 1598.16 1638.69 1586.14 1602.61 1606.14 1500.13 1603.81 1486.43 1614.3 1571.03 1736.11 1534.38 1714.59 1485.01 1628.77 1481.96 1615.18 1464.74 1617.53 1404.73 1752.15 1403.53 1707.94 1461.02 1602.55 1314.12 1612.49 1344.67 1591.77 1459.98 1596.28 1464.14 1583.05 1379.2 1463.69 1415.02 1481.15 1472.46 1580.5 1481.22 1584.1"/>
        <polygon class="cls-4" points="1481.22 1584.1 1548.89 1440.82 1546.52 1491.83 1485.93 1585.63 1498.67 1598.16 1638.69 1586.14 1602.61 1606.14 1500.13 1603.81 1486.43 1614.3 1571.03 1736.11 1534.38 1714.59 1485.01 1628.77 1481.96 1615.18 1464.74 1617.53 1404.73 1752.15 1403.53 1707.94 1461.02 1602.55 1314.12 1612.49 1344.67 1591.77 1459.98 1596.28 1464.14 1583.05 1379.2 1463.69 1415.02 1481.16 1472.46 1580.5 1481.22 1584.1"/>
        <path class="cls-19" d="m280.95,1094.11c.42-1.81,1.21,8.27,1.21,8.27l-52.35,4.74-1.67-6.55s37-15.02,36.55-43.69c-.44-28.67-21.47-41.21-34.33-42.62-10.82-1.19-27.99-3.97-38.7,33.09-3.7,12.81-1.7,34.39-11.94,55.85-11.09,23.24-28.89,26.11-43.88,29.42-11.45,2.52-25.59-.54-41.94-9.48-16.36-8.95-29.6-30.1-34.03-57.42-4.44-27.32,10.6-41.53,12.61-43.43,2.02-1.91-16.21-8.23-18.95-7.18-2.75,1.06-2.56-5.75-2.56-5.75l64.63-5.91.85,5.95s-45.54,6.31-49.54,45.44c-5.44,53.35,63.25,76.76,80.98,40.11,17.73-36.65,6.02-84.46,46.28-95.88,64.87-18.41,92.56,49.91,68.93,89.28-3.62,6.04,1.71,3.91,5.42,5.5,1.86.79,12.13,1.58,12.43.26Z"/>
        <path class="cls-9" d="m280.95,1094.11c.42-1.81,1.21,8.27,1.21,8.27l-52.35,4.74-1.67-6.55s37-15.02,36.55-43.69c-.44-28.67-21.47-41.21-34.33-42.62-10.82-1.19-27.99-3.97-38.7,33.09-3.7,12.81-1.7,34.39-11.94,55.85-11.09,23.24-28.89,26.11-43.88,29.42-11.45,2.52-25.59-.54-41.94-9.48-16.36-8.95-29.6-30.1-34.03-57.42-4.44-27.32,10.6-41.53,12.61-43.43,2.02-1.91-16.21-8.23-18.95-7.18-2.75,1.06-2.56-5.75-2.56-5.75l64.63-5.91.85,5.95s-45.54,6.31-49.54,45.44c-5.44,53.35,63.25,76.76,80.98,40.11,17.73-36.65,6.02-84.46,46.28-95.88,64.87-18.41,92.56,49.91,68.93,89.28-3.62,6.04,1.71,3.91,5.42,5.5,1.86.79,12.13,1.58,12.43.26Z"/>
        <path class="cls-19" d="m326.2,1280.33s-17.27-17.14-28.38,1.26c-4.04,6.69,7.69,16.77,14.4,17.77,11.09,1.66,21.8-9.32,13.98-19.03Z"/>
        <path class="cls-9" d="m326.2,1280.33s-17.27-17.14-28.38,1.26c-4.04,6.69,7.69,16.77,14.4,17.77,11.09,1.66,21.8-9.32,13.98-19.03Z"/>
        <path class="cls-19" d="m250.53,1278.11l-5.56,2.4s12.21,16.33,0,20.71c-12.22,4.38-66.61,17.56-85.6,20.5-19,2.93-16.85-4.35-20.51-13.95-1.06-2.77-2.12-8.8-4.04-7.18-2.49,2.12-5.59,3.25-5.59,3.25,0,0,26.95,61.87,25.2,62.9-1.75,1.02,7.43-1.39,7.43-1.39,0,0-13.92-15.08,4.37-22.39,16.45-6.57,95.94-25,105.85-22.9,7.08,1.49-.95-8.15-8.15-19.32-6.84-10.62-13.4-22.63-13.4-22.63Z"/>
        <path class="cls-9" d="m250.53,1278.11l-5.56,2.4s12.21,16.33,0,20.71c-12.22,4.38-66.61,17.56-85.6,20.5-19,2.93-16.85-4.35-20.51-13.95-1.06-2.77-2.12-8.8-4.04-7.18-2.49,2.12-5.59,3.25-5.59,3.25,0,0,26.95,61.87,25.2,62.9-1.75,1.02,7.43-1.39,7.43-1.39,0,0-13.92-15.08,4.37-22.39,16.45-6.57,95.94-25,105.85-22.9,7.08,1.49-.95-8.15-8.15-19.32-6.84-10.62-13.4-22.63-13.4-22.63Z"/>
        <path class="cls-19" d="m326.2,1280.33s-17.27-17.14-28.38,1.26c-4.04,6.69,7.69,16.77,14.4,17.77,11.09,1.66,21.8-9.32,13.98-19.03Z"/>
        <path class="cls-9" d="m326.2,1280.33s-17.27-17.14-28.38,1.26c-4.04,6.69,7.69,16.77,14.4,17.77,11.09,1.66,21.8-9.32,13.98-19.03Z"/>
        <path class="cls-19" d="m250.53,1278.11l-5.56,2.4s12.21,16.33,0,20.71c-12.22,4.38-66.61,17.56-85.6,20.5-19,2.93-16.85-4.35-20.51-13.95-1.06-2.77-2.12-8.8-4.04-7.18-2.49,2.12-5.59,3.25-5.59,3.25,0,0,26.95,61.87,25.2,62.9-1.75,1.02,7.43-1.39,7.43-1.39,0,0-13.92-15.08,4.37-22.39,16.45-6.57,95.94-25,105.85-22.9,7.08,1.49-.95-8.15-8.15-19.32-6.84-10.62-13.4-22.63-13.4-22.63Z"/>
        <path class="cls-9" d="m250.53,1278.11l-5.56,2.4s12.21,16.33,0,20.71c-12.22,4.38-66.61,17.56-85.6,20.5-19,2.93-16.85-4.35-20.51-13.95-1.06-2.77-2.12-8.8-4.04-7.18-2.49,2.12-5.59,3.25-5.59,3.25,0,0,26.95,61.87,25.2,62.9-1.75,1.02,7.43-1.39,7.43-1.39,0,0-13.92-15.08,4.37-22.39,16.45-6.57,95.94-25,105.85-22.9,7.08,1.49-.95-8.15-8.15-19.32-6.84-10.62-13.4-22.63-13.4-22.63Z"/>
        <path class="cls-19" d="m468.63,1500.87s-22.5-9.26-25.75,11.99c-1.19,7.72,13.5,12.57,20.09,10.94,10.87-2.7,16.59-16.93,5.66-22.93Z"/>
        <path class="cls-9" d="m468.63,1500.87s-22.5-9.26-25.75,11.99c-1.19,7.72,13.5,12.57,20.09,10.94,10.87-2.7,16.59-16.93,5.66-22.93Z"/>
        <path class="cls-19" d="m397.84,1527.68l-4.24,4.34s17.52,10.44,7.9,19.15c-9.62,8.7-54.87,41.63-71.31,51.59-16.44,9.96-17.23,2.4-24.28-5.08-2.03-2.15-5.32-7.32-6.46-5.09-1.5,2.9-3.94,5.13-3.94,5.13,0,0,48.51,46.93,47.28,48.54-1.22,1.61,6.35-4.12,6.35-4.12,0,0-18.63-8.63-4.5-22.36,12.69-12.35,79.15-59.7,89.11-61.54,7.11-1.32-3.98-7.17-14.9-14.76-10.38-7.2-21.01-15.8-21.01-15.8Z"/>
        <path class="cls-9" d="m397.84,1527.68l-4.24,4.34s17.52,10.44,7.9,19.15c-9.62,8.7-54.87,41.63-71.31,51.59s-17.23,2.4-24.28-5.08c-2.03-2.15-5.32-7.32-6.46-5.09-1.5,2.9-3.94,5.13-3.94,5.13,0,0,48.51,46.93,47.28,48.54-1.22,1.61,6.35-4.12,6.35-4.12,0,0-18.63-8.63-4.5-22.36,12.69-12.35,79.15-59.7,89.11-61.54,7.11-1.32-3.98-7.17-14.9-14.76-10.38-7.2-21.01-15.8-21.01-15.8Z"/>
        <path class="cls-19" d="m229.06,1121.84l-7.51.56s4.89,16.75-4.26,19.96c-5.54,1.94-20.29,4.06-37.82,4.65-10.69.36-26.38.3-42.28,2.05-14.35,1.59-26.87,5.28-31.85,11.06-11.87,13.78-18.06,29.64.57,62.74,4.85,8.62,21.47,20.59,34.63,25.74,3.55,1.39-24.41,4.25-28.9,8.07-1.44,1.22,13.8,27.3,14.65,39.82.03.49,6.41,1.29,6.41,1.29,0,0-6.2-18.46,3.81-21.31,32.01-9.09,113.95-16.95,127.69-13.03,4.38,1.25-9.07-31.89-10.23-46.92l-8.65.57c5.34,26,7.13,26.61-63.78,29.69-23.44,1.02-49.17-8.89-57.43-17.08-14.57-14.47-23.13-36.94-10.06-47.34,14.32-11.38,67.87-10.62,97.99-11.51,10.82-.32,27.62,1.27,26.31-3.41-4.86-17.27-9.29-45.6-9.29-45.6Z"/>
        <path class="cls-9" d="m229.06,1121.84l-7.51.56s4.89,16.75-4.26,19.96c-5.54,1.94-20.29,4.06-37.82,4.65-10.69.36-26.38.3-42.28,2.05-14.35,1.59-26.87,5.28-31.85,11.06-11.87,13.78-18.06,29.64.57,62.74,4.85,8.62,21.47,20.59,34.63,25.74,3.55,1.39-24.41,4.25-28.9,8.07-1.44,1.22,13.8,27.3,14.65,39.82.03.49,6.41,1.29,6.41,1.29,0,0-6.2-18.46,3.81-21.31,32.01-9.09,113.95-16.95,127.69-13.03,4.38,1.25-9.07-31.89-10.23-46.92l-8.65.57c5.34,26,7.13,26.61-63.78,29.69-23.44,1.02-49.17-8.89-57.43-17.08-14.57-14.47-23.13-36.94-10.06-47.34,14.32-11.38,67.87-10.62,97.99-11.51,10.82-.32,27.62,1.27,26.31-3.41-4.86-17.27-9.29-45.6-9.29-45.6Z"/>
        <path class="cls-19" d="m302.01,1402.85c12.62-9.17,23.36-23.91,17.88-42.6-5.47-18.69-28.88-23.57-40.31-14.33-11.43,9.23-9.79,28.59-8.16,45.61,2.18,22.89-2.26,40.27-21,50.29-8.04,4.3-28.89,9.18-45.64.55-20.04-10.32-28.12-29.49-28.98-45.54-.39-7.24,3.48-12.17.89-12.06-10.55.44-17.46-1.18-18,0l-.18-.47c-.06.54-1.69-6.21-1.69-6.21l44.07-17.71,3.28,5.12s-23.32,20.84-19.6,38.53c2.49,11.88,18.99,40.47,44.95,27.26,23.24-11.82,13.62-52.79,16.23-71.07,2.61-18.29,23.73-35.75,49.44-30.59,25.71,5.16,35.38,20.63,34.69,54.7-.15,7.49,2.28,3.92,4.4,2.54,4.7-3.88,7.88-4.25,7.88-4.25l.75,4.74,2.1,3.98-37.7,16.49-4.44-4.39s.11-.19.34-.56"/>
        <path class="cls-9" d="m302.01,1402.85c12.62-9.17,23.36-23.91,17.88-42.6-5.47-18.69-28.88-23.57-40.31-14.33-11.43,9.23-9.79,28.59-8.16,45.61,2.18,22.89-2.26,40.27-21,50.29-8.04,4.3-28.89,9.18-45.64.55-20.04-10.32-28.12-29.49-28.98-45.54-.39-7.24,3.48-12.17.89-12.06-10.55.44-17.46-1.18-18,0l-.18-.47c-.06.54-1.69-6.21-1.69-6.21l44.07-17.71,3.28,5.12s-23.32,20.84-19.6,38.53c2.49,11.88,18.99,40.47,44.95,27.26,23.24-11.82,13.62-52.79,16.23-71.07,2.61-18.29,23.73-35.75,49.44-30.59s35.38,20.63,34.69,54.7c-.15,7.49,2.28,3.92,4.4,2.54,4.7-3.88,7.88-4.25,7.88-4.25l.75,4.74,2.1,3.98-37.7,16.49-4.44-4.39s.11-.19.34-.56"/>
        <path class="cls-19" d="m370.27,1539.51s13.49-6.57,20.44-20.48c4.9-9.82,5.05-24.88,1.02-37.49-3.95-12.38-12.11-25.99-35.43-38.34-22.7-12.02-43.86-10.48-60.73-6.88-43.14,9.22-67.01,49.81-60.23,72.76,8.44,28.54,15.95,52.28,75.06,58.57,3.24.35,1.29-2.15.89-4.82-.35-2.29.68-3.42-2.08-2.85-9.7,2.03-22.17-2.48-22.17-2.48,0,0-30.21-5.38-37.52-39.5-5.5-25.63,35.21-49.8,61.3-59.57,1.59-.59,3.52,2.78,6.5,7.26,8.88,13.4,24.93,36.18,32.53,46.27,17.29,22.94,20.42,27.55,20.42,27.55Z"/>
        <path class="cls-9" d="m370.27,1539.51s13.49-6.57,20.44-20.48c4.9-9.82,5.05-24.88,1.02-37.49-3.95-12.38-12.11-25.99-35.43-38.34-22.7-12.02-43.86-10.48-60.73-6.88-43.14,9.22-67.01,49.81-60.23,72.76,8.44,28.54,15.95,52.28,75.06,58.57,3.24.35,1.29-2.15.89-4.82-.35-2.29.68-3.42-2.08-2.85-9.7,2.03-22.17-2.48-22.17-2.48,0,0-30.21-5.38-37.52-39.5-5.5-25.63,35.21-49.8,61.3-59.57,1.59-.59,3.52,2.78,6.5,7.26,8.88,13.4,24.93,36.18,32.53,46.27,17.29,22.94,20.42,27.55,20.42,27.55Z"/>
        <path class="cls-20" d="m320.22,1456.41s39.6-14.03,56.98,14.75c17.39,28.78-12.84,40.47-18.31,40.31-5.56-.17-38.67-55.06-38.67-55.06Z"/>
        <path class="cls-9" d="m320.22,1456.41s39.6-14.03,56.98,14.75c17.39,28.78-12.84,40.47-18.31,40.31-5.56-.17-38.67-55.06-38.67-55.06Z"/>
        <path class="cls-19" d="m672.61,1682.5l3.4-6.62,101.34,24.98s57.33,15.47,30.28,63.89c-9.21,16.48-23.99,25.01-42.89,27.65-16.88,2.35-26.51-2.84-29.35-.83-3.1,2.2,63.07,15.4,41.68,70.44-20.15,51.85-75.55,36.98-84.94,36.17-28.63-2.5-94.54-29.15-103.73-27.92-7.35.98-.14-3.92-.14-3.92,0,0,14.29,4.63,27.81.74,6.12-1.76,12.27-8.73,15.88-16.41,42.8-91.08,67.66-135.61,64.82-155.14-1.3-8.95-16.82-11.93-24.16-13.03Z"/>
        <path class="cls-9" d="m672.61,1682.5l3.4-6.62,101.34,24.98s57.33,15.47,30.28,63.89c-9.21,16.48-23.99,25.01-42.89,27.65-16.88,2.35-26.51-2.84-29.35-.83-3.1,2.2,63.07,15.4,41.68,70.44-20.15,51.85-75.55,36.98-84.94,36.17-28.63-2.5-94.54-29.15-103.73-27.92-7.35.98-.14-3.92-.14-3.92,0,0,14.29,4.63,27.81.74,6.12-1.76,12.27-8.73,15.88-16.41,42.8-91.08,67.66-135.61,64.82-155.14-1.3-8.95-16.82-11.93-24.16-13.03Z"/>
        <path class="cls-20" d="m733.27,1697.99s69.28,4.52,48.04,49.77c-18.75,39.93-25.96,39.87-69.04,34.22-19.41-2.55-16.16-3-13.29-8.61,11.2-21.9,34.29-75.38,34.29-75.38Z"/>
        <path class="cls-9" d="m733.27,1697.99s69.28,4.52,48.04,49.77c-18.75,39.93-25.96,39.87-69.04,34.22-19.41-2.55-16.16-3-13.29-8.61,11.2-21.9,34.29-75.38,34.29-75.38Z"/>
        <path class="cls-20" d="m694.22,1786.9s64.85,6.4,58.04,45.01c-6.82,38.61-35.25,69.34-77.38,55.54-14.5-4.75-9.62-3.69-16.21-8.84-2.64-2.06,1.9-15.49,3.49-19.72,5.36-14.19,11.02-26.29,16.82-39.32,3.96-8.92,15.24-32.67,15.24-32.67Z"/>
        <path class="cls-9" d="m694.22,1786.9s64.85,6.4,58.04,45.01c-6.82,38.61-35.25,69.34-77.38,55.54-14.5-4.75-9.62-3.69-16.21-8.84-2.64-2.06,1.9-15.49,3.49-19.72,5.36-14.19,11.02-26.29,16.82-39.32,3.96-8.92,15.24-32.67,15.24-32.67Z"/>
        <path class="cls-19" d="m898.59,1916.64c-16.19,1.03-36.08-2.05-52.02-10.65-10.07-5.43-18.56-13.05-23.54-23.23-7.88-16.09-16.59-43.65,5.72-77.78,31.26-47.83,73.15-56.81,102.73-49.71,27.37,6.57,60.18,33.96,49.45,76-13.08,51.27-35.71,74.65-82.34,85.37Z"/>
        <path class="cls-9" d="m898.59,1916.64c-16.19,1.03-36.08-2.05-52.02-10.65-10.07-5.43-18.56-13.06-23.54-23.23-7.88-16.09-16.59-43.65,5.72-77.78,31.26-47.83,73.15-56.81,102.73-49.71,27.37,6.57,60.18,33.96,49.45,76-13.08,51.27-35.71,74.65-82.34,85.37Z"/>
        <path class="cls-20" d="m843.47,1850.41c4.41-21.32,7.98-50.37,36.81-77.81,26.98-25.68,74.59-6.38,75.46,24.41.94,33.39-17.75,89.5-42.95,103.82-16.6,9.44-75.57,24.58-69.32-50.42Z"/>
        <path class="cls-9" d="m843.47,1850.41c4.41-21.32,7.98-50.37,36.81-77.81,26.98-25.68,74.59-6.38,75.46,24.41.94,33.39-17.75,89.5-42.95,103.82-16.6,9.44-75.57,24.58-69.32-50.42Z"/>
        <path class="cls-19" d="m1128.7,1911.57c-23.72,11.73-60.76,17.16-82.78-2.15-13.47-11.8-32.13-33.88-24.7-73.97,10.42-56.19,45.6-80.61,75.65-85.46,27.78-4.48,68.61,8.14,74.91,51.07,7.69,52.35-4.19,82.65-43.08,110.51Z"/>
        <path class="cls-9" d="m1128.7,1911.57c-23.72,11.73-60.76,17.16-82.78-2.15-13.47-11.8-32.13-33.88-24.7-73.97,10.42-56.19,45.6-80.61,75.65-85.46,27.78-4.48,68.61,8.14,74.91,51.07,7.69,52.35-4.19,82.65-43.08,110.51Z"/>
        <path class="cls-20" d="m1052.32,1871.7c-4.16-21.38-12.05-49.56,3.98-85.99,15-34.09,66.37-34.63,79.03-6.56,13.74,30.46,18.11,89.43.38,112.36-11.68,15.11-60.27,51.8-83.39-19.81Z"/>
        <path class="cls-9" d="m1052.32,1871.7c-4.16-21.38-12.05-49.56,3.98-85.99,15-34.09,66.37-34.63,79.03-6.56,13.74,30.46,18.11,89.43.38,112.36-11.68,15.11-60.27,51.8-83.39-19.81Z"/>
        <path class="cls-19" d="m1207.14,1695.61s1.3,2.09,20.07-6.72c18.77-8.82,4.64-7.89,6.59,11.06,2.1,20.48,25.69,150.09,27.18,158.91,2.12,12.58,5.42,18.1,13.29,14.06,2.68-1.37,9.46-3.11,7.84,0-2.18,4.17-.96,5.74-.85,7.28l-59.39,21.26-1.64-7.03s23.56-6.68,20.86-21.1c-2.69-14.41-24.22-154.17-26.93-159.14-2.71-4.97-7.02-18.58-7.02-18.58Z"/>
        <path class="cls-9" d="m1207.14,1695.61s1.3,2.09,20.07-6.72c18.77-8.82,4.64-7.89,6.59,11.06,2.1,20.48,25.69,150.09,27.18,158.91,2.12,12.58,5.42,18.1,13.29,14.06,2.68-1.37,9.46-3.11,7.84,0-2.18,4.17-.96,5.74-.85,7.28l-59.39,21.26-1.64-7.03s23.56-6.68,20.86-21.1c-2.69-14.41-24.22-154.17-26.93-159.14-2.71-4.97-7.02-18.58-7.02-18.58Z"/>
        <path class="cls-19" d="m1254.23,1813.33s36.23-32.35,44.43-49.54c8.21-17.18.62-17.49-11.61-15.17-12.23,2.32-2.51-4.52-2.51-4.52,0,0,56.6-18.42,63.12-22.22,6.53-3.81,2.9,5.82,2.61,6.47,3.13-1.05-55.67,44.3-66.04,65.18-10.38,20.88,73.35,34.86,90.19,43.53,16.85,8.68,15.96-9.41,17.86-1.72,1.9,7.69,1.72,6.33,1.72,6.33,0,0-76.88,25.16-78.72,28.07-1.84,2.91-2.6-7.05-2.6-7.05,0,0,18.39-9.2,18.54-11.8.16-2.61-51.21-30-54.75-30.75-3.54-.74-13.6-8.94-20.87.75"/>
        <path class="cls-9" d="m1254.23,1813.33s36.23-32.35,44.43-49.54c8.21-17.18.62-17.49-11.61-15.17-12.23,2.32-2.51-4.52-2.51-4.52,0,0,56.6-18.42,63.12-22.22,6.53-3.81,2.9,5.82,2.61,6.47,3.13-1.05-55.67,44.3-66.04,65.18-10.38,20.88,73.35,34.86,90.19,43.53,16.85,8.68,15.96-9.41,17.86-1.72,1.9,7.69,1.72,6.33,1.72,6.33,0,0-76.88,25.16-78.72,28.07-1.84,2.91-2.6-7.05-2.6-7.05,0,0,18.39-9.2,18.54-11.8.16-2.61-51.21-30-54.75-30.75-3.54-.74-13.6-8.94-20.87.75"/>
        <path class="cls-19" d="m1643.22,1336.43l1.57-7.16,65.56,35.74-1,6.96s-38.36-15.51-63.26.69c-23.52,15.3-47.81,54.92-9.56,106.32,37.62,50.57,114.04,72.92,141.11,39,20.73-25.99,18.49-60.8,12-77.67-6.5-16.87-36.14-43.52-36.14-43.52l1.37-5.78,60.51,34.48-1.34,6.3s-21.11-4.36-20.99-1.67c.11,2.69,14.15,43.66,5.83,71.44-5.64,18.83-19.83,52.02-70.02,62.03-35.91,7.16-107.58-34.29-120.04-103.83-12.33-68.82,36.79-96.07,51.84-103.84,5.7-2.94-17.44-19.49-17.44-19.49Z"/>
        <path class="cls-9" d="m1643.22,1336.43l1.57-7.16,65.56,35.74-1,6.96s-38.36-15.51-63.26.69c-23.52,15.3-47.81,54.92-9.56,106.32,37.62,50.57,114.04,72.92,141.11,39,20.73-25.99,18.49-60.8,12-77.67-6.5-16.87-36.14-43.52-36.14-43.52l1.37-5.78,60.51,34.48-1.34,6.3s-21.11-4.36-20.99-1.67c.11,2.69,14.15,43.66,5.83,71.44-5.64,18.83-19.83,52.02-70.02,62.03-35.91,7.16-107.58-34.29-120.04-103.83-12.33-68.82,36.79-96.07,51.84-103.84,5.7-2.94-17.44-19.49-17.44-19.49Z"/>
        <path class="cls-19" d="m1671.59,1313.88s7.53-29.38,8.03-36.61c.2-3.03,20.65,11.76,46.97,27.1,36.57,21.31,83.23,46.5,91.73,51.64,4.63,2.8,7.99,7.1,17.51,6.35,2.25-.18,4.4-2.31,5.72-4.74,2.56-4.72,4.4-12.97,7.34-7.14,1.29,2.57,1.21,2.49,1.21,2.49l-19.14,54.14-6.49-2.29s8.16-18.77-2.78-24.71c-11.75-6.4-84.26-50.15-94.62-55.15-4.1-1.98-37.55-21.6-40.61-21.26-4.77.52-7.3,13.07-9.93,12.73-3.06-.4-6.22.72-4.95-2.55Z"/>
        <path class="cls-9" d="m1671.59,1313.88s7.53-29.38,8.03-36.61c.2-3.03,20.65,11.76,46.97,27.1,36.57,21.31,83.23,46.5,91.73,51.64,4.63,2.8,7.99,7.1,17.51,6.35,2.25-.18,4.4-2.31,5.72-4.74,2.56-4.72,4.4-12.97,7.34-7.14,1.29,2.57,1.21,2.49,1.21,2.49l-19.14,54.15-6.49-2.29s8.16-18.77-2.78-24.71c-11.75-6.4-84.26-50.15-94.62-55.15-4.1-1.98-37.55-21.6-40.61-21.26-4.77.52-7.3,13.07-9.93,12.73-3.06-.4-6.22.72-4.95-2.55Z"/>
        <path class="cls-21" d="m1729.12,1123.89s-4.16-37.3-7.79-40.47c-3.63-3.16,86.84,12.93,93.17,11.31,6.32-1.61-44.61-40.39-3.77-83.91,15.53-16.56,40.53-14.54,59.52-9.83,30.91,7.68,50.13,42.03,54.34,57.05,4.26,15.22,1.66,37.1-13.73,43.6-7.41,3.13-7.25,4.28-2.9,6.91,6.47,3.91,21.39,11.48,20.13,18.32-.76,4.11-170.72-18.49-170.72-18.49-8.04.36-22.91-5.74-23.66,15.5-.11,3.05-2.91.28-4.59.01Z"/>
        <path class="cls-9" d="m1729.12,1123.89s-4.16-37.3-7.79-40.47c-3.63-3.16,86.84,12.93,93.17,11.31,6.32-1.61-44.61-40.39-3.77-83.91,15.53-16.56,40.53-14.54,59.52-9.83,30.91,7.68,50.13,42.03,54.34,57.05,4.26,15.22,1.66,37.1-13.73,43.6-7.41,3.13-7.25,4.28-2.9,6.91,6.47,3.91,21.39,11.48,20.13,18.32-.76,4.11-170.72-18.49-170.72-18.49-8.04.36-22.91-5.74-23.66,15.5-.11,3.05-2.91.28-4.59.01Z"/>
        <path class="cls-20" d="m1823.97,1095.08l74.08,6.57s38.68-16.27,7.68-58.98c-22.75-31.34-99.85-25.95-102.87,4.53-2.13,21.52,21.11,47.88,21.11,47.88Z"/>
        <path class="cls-9" d="m1823.97,1095.08l74.08,6.57s38.68-16.27,7.68-58.98c-22.75-31.34-99.85-25.95-102.87,4.53-2.13,21.52,21.11,47.88,21.11,47.88Z"/>
        <path class="cls-19" d="m1728.93,1274.5l6.91,2.98s3.42-17.11,13.02-15.72c5.8.85,19.86,5.8,35.67,13.39,9.65,4.63,23.53,11.95,38.43,17.76,13.46,5.24,26.26,7.76,33.34,4.94,16.91-6.71,29.74-17.91,28.55-55.88-.31-9.88-9.5-28.18-18.77-38.84-2.5-2.87,23.6,7.54,29.35,6.23,1.84-.42.4-30.59,5.45-42.08.2-.45-5.09-4.11-5.09-4.11,0,0-3.05,19.24-13.24,17.12-32.58-6.76-108.85-37.73-119.21-47.57-3.31-3.13-6.73,32.47-12.66,46.33l7.93,3.5c7.31-25.52,6-26.89,70.28,3.21,21.25,9.95,39.47,30.64,43,41.73,6.21,19.57,3.4,43.45-13,46.62-17.96,3.46-65.08-22.01-92.19-35.17-9.74-4.73-23.89-13.92-24.89-9.16-3.7,17.56-12.88,44.72-12.88,44.72Z"/>
        <path class="cls-9" d="m1728.93,1274.5l6.91,2.98s3.42-17.11,13.02-15.72c5.8.85,19.86,5.8,35.67,13.39,9.65,4.63,23.53,11.95,38.43,17.76,13.46,5.24,26.26,7.76,33.34,4.94,16.91-6.71,29.74-17.91,28.55-55.88-.31-9.88-9.5-28.18-18.77-38.84-2.5-2.87,23.6,7.54,29.35,6.23,1.84-.42.4-30.59,5.45-42.08.2-.45-5.09-4.11-5.09-4.11,0,0-3.05,19.24-13.24,17.12-32.58-6.76-108.85-37.73-119.21-47.57-3.31-3.13-6.73,32.47-12.66,46.33l7.93,3.5c7.31-25.52,6-26.89,70.28,3.21,21.25,9.95,39.47,30.64,43,41.73,6.21,19.57,3.4,43.45-13,46.62-17.96,3.46-65.08-22.01-92.19-35.17-9.74-4.73-23.89-13.92-24.89-9.16-3.7,17.56-12.88,44.72-12.88,44.72Z"/>
      </g>
    </g>
  </g>
  <g>
    <path class="cls-18" d="m2638.13,1163.53h-476.73c-39.04,0-64.78-1.66-90.53-4.15v97.17c29.07-3.32,53.99-4.15,92.19-4.15h475.07v45.68h-410.29c-39.87,0-62.29-.83-86.38-3.32v96.34c29.07-3.32,51.49-4.15,87.21-4.15h408.63v31.56h107.97c-3.32-24.09-4.15-44.02-4.15-73.09v-91.36h22.43c24.09,0,42.36.83,65.61,3.32v-101.33c-19.93,3.32-36.54,4.15-65.61,4.15h-22.43v-66.44c0-27.41.83-41.53,2.49-58.97-19.1,1.66-39.04,2.49-75.58,2.49h-442.68c-36.54,0-57.31-.83-79.73-4.15v93.85c21.59-2.49,41.53-3.32,78.07-3.32h414.44v39.87Zm28.24-473.41c0-22.43,1.66-35.71,4.15-48.17h-103.82c2.49,15.78,4.15,28.24,4.15,48.17h-40.7c-36.54,0-53.16-.83-77.24-3.32v85.55c23.26-2.49,41.53-3.32,74.75-3.32h43.19v31.56h-32.39c-32.39,0-52.32-.83-72.26-3.32v79.73c19.1-2.49,40.7-3.32,72.26-3.32h32.39v29.07h-49.83c-35.71,0-55.65-.83-78.07-3.32v86.38c20.76-2.49,41.53-3.32,75.58-3.32h52.32c-.83,20.76-1.66,29.07-3.32,39.04h102.16c-1.66-9.14-2.49-19.1-3.32-39.04h79.73c34.05,0,53.98.83,75.58,3.32v-86.38c-23.26,2.49-42.36,3.32-78.07,3.32h-77.24v-29.07h52.32c30.73,0,52.32.83,71.43,3.32v-79.73c-19.93,2.49-39.87,3.32-71.43,3.32h-52.32v-31.56h69.77c33.22,0,50.66.83,73.92,3.32v-85.55c-23.25,2.49-40.7,3.32-76.41,3.32h-67.28Zm-348.83,0c0-24.09.83-34.88,4.15-48.17h-103.82c2.49,12.46,4.15,27.41,4.15,48.17h-60.63c-36.54,0-53.16-.83-77.24-3.32v85.55c23.26-2.49,41.53-3.32,74.75-3.32h63.12v30.73h-46.51c-31.56,0-52.32-.83-71.43-3.32v79.73c21.59-2.49,40.7-3.32,71.43-3.32h46.51v35.71c-61.46,3.32-85.55,4.15-138.7,4.15-1.66,0-5.81,0-12.46-.83l12.46,86.38c15.78-2.49,55.65-5.81,138.7-11.63-.83,20.76-1.66,24.92-3.32,34.88h102.16c-1.66-10.8-3.32-24.92-3.32-43.19l103.82-9.97v-76.41c-48.17,4.98-61.46,6.64-103.82,9.97v-29.07h24.09c31.56,0,50.66.83,72.26,3.32v-79.73c-19.1,2.49-39.87,3.32-72.26,3.32h-24.09v-30.73h35.71c34.05,0,50.66.83,74.75,3.32v-85.55c-24.09,2.49-40.7,3.32-77.24,3.32h-33.22Z"/>
    <path class="cls-18" d="m3069.19,872.01h389.53v40.7h-389.53v-40.7Zm0-114.62h389.53v39.87h-389.53v-39.87Zm147.01,367.93v44.02h-117.11c-42.36,0-63.95-.83-83.05-2.49,13.29-14.95,19.93-24.09,32.39-41.53h167.77Zm-148.67-133.72h148.67v48.17h-111.29c6.64-12.46,9.14-15.78,15.78-29.07l-53.16-19.1Zm-63.95,267.44c24.09-3.32,49.83-4.15,95.51-4.15h117.11v48.17h-228.4c-44.85,0-72.26-.83-98-4.15v102.16c29.07-3.32,60.63-4.98,103.82-4.98h539.03c45.68,0,80.56,1.66,109.63,4.98v-102.16c-24.09,2.49-53.98,4.15-102.99,4.15h-216.77v-48.17h145.35c47.34,0,75.58.83,102.99,4.15v-93.85c-22.43,3.32-44.85,4.15-102.99,4.15h-145.35v-44.02h188.53c44.85,0,74.75,1.66,98,4.15v-93.85c-21.59,2.49-50.66,4.15-98,4.15h-188.53v-48.17h168.6c43.19,0,60.63.83,78.9,2.49-2.49-19.93-3.32-39.87-3.32-75.58v-173.58c0-34.05.83-53.16,3.32-73.92-27.41,3.32-37.38,3.32-82.22,3.32h-447.67c-41.53,0-58.14-.83-81.39-3.32,2.49,23.26,3.32,42.36,3.32,74.75v174.42c0,31.56-1.66,53.99-3.32,73.92,15.78-1.66,29.07-1.66,54.82-2.49-29.9,61.46-79.73,117.94-140.36,161.13,29.9,25.75,45.68,43.19,73.92,82.22,23.26-19.1,35.71-31.56,56.48-53.16v77.24Z"/>
    <path class="cls-18" d="m4330.71,648.59c28.24,39.04,47.34,71.43,64.78,111.29l68.1-29.07c-15.78-39.03-37.38-73.09-65.61-108.8l-67.27,26.58Zm3.32,129.57l32.39-12.46c-16.61-38.2-34.05-68.94-65.61-111.29l-68.94,25.75c19.1,25.75,26.58,36.54,42.36,66.44-17.44,1.66-27.41,2.49-45.68,2.49h-377.07c-68.94,0-94.68-.83-130.4-5.81v127.07c34.05-4.15,60.63-4.98,128.74-4.98h363.78c-38.21,151.16-119.6,264.95-247.5,346.34-60.63,38.21-106.31,59.8-178.57,82.22,47.34,47.34,60.63,65.61,88.04,118.77,119.6-53.16,199.33-104.65,270.76-173.58,95.51-92.19,162.79-213.45,201.82-364.61q11.63-44.85,18.27-60.63l-32.39-35.71Z"/>
    <path class="cls-18" d="m4847.58,843.77c-.83,27.41-4.98,54.82-14.95,95.51-34.05,132.89-88.87,218.43-185.21,288.2-47.34,33.22-83.05,52.32-146.18,76.41,41.53,39.87,53.15,54.82,78.9,98.84,131.23-66.44,205.15-125.41,264.11-210.13,49-71.43,84.72-162.79,108.8-274.91,6.65-29.9,7.48-32.39,12.46-46.51l-117.94-27.41Zm-285.71,11.63c32.39,64.78,58.97,136.21,74.75,201.82l108.8-33.22c-20.76-75.58-36.54-112.96-80.56-196.84l-102.99,28.24Zm-181.06,35.71c36.54,73.92,52.32,117.11,74.75,207.64l111.29-34.05c-29.07-93.85-45.68-135.38-82.22-203.48l-103.82,29.9Z"/>
    <path class="cls-18" d="m5239.11,653.57c-4.15,29.07-15.78,60.63-39.87,105.48-54.82,104.65-120.43,179.4-217.6,246.67,49,29.9,63.95,42.36,98.83,84.72,76.41-59.8,141.19-131.23,191.86-211.79l235.88-2.49c-68.1,209.3-197.67,339.69-421.92,426.9,44.02,39.87,58.14,56.48,85.55,107.14,132.06-60.63,226.74-127.9,301.49-213.45,72.26-82.22,130.4-194.35,170.26-323.91,9.97-33.22,13.29-40.7,21.59-53.98l-60.63-59.8c-15.78,5.81-32.39,8.31-59.8,9.14l-215.94,2.49c9.14-18.27,12.46-25.75,19.93-42.36,11.63-26.58,19.93-43.19,24.09-49l-133.72-25.75Z"/>
    <path class="cls-18" d="m6009.55,653.57c-4.15,29.07-15.78,60.63-39.87,105.48-54.82,104.65-134.43,179.4-231.6,246.67,49,29.9,63.95,42.36,98.83,84.72,76.41-59.8,155.19-131.23,205.86-211.79l235.88-2.49c-68.1,209.3-211.67,339.69-435.92,426.9,44.02,39.87,72.14,56.48,99.55,107.14,132.06-60.63,226.74-127.9,301.49-213.45,72.26-82.22,130.4-194.35,170.26-323.91,9.97-33.22,13.29-40.7,21.59-53.98l-60.63-59.8c-15.78,5.81-32.39,8.31-59.8,9.14l-215.94,2.49c9.14-18.27,12.46-25.75,19.93-42.36,11.63-26.58,19.93-43.19,24.09-49l-133.72-25.75Z"/>
    <path class="cls-18" d="m6480.91,1012.37c30.73-3.32,55.65-4.15,123.75-4.15h377.9c-33.22,80.56-70.6,132.06-131.23,180.23-61.46,48.17-124.58,77.24-225.08,102.99,44.02,49,55.65,66.44,78.07,115.45,113.78-44.85,170.26-73.92,226.74-119.6,82.23-66.44,146.18-161.96,188.54-284.05,10.8-29.07,14.12-37.37,23.25-52.32l-55.65-61.46c-24.09,7.48-32.39,8.31-80.56,8.31h-400.32c-73.92,0-89.7-.83-125.41-5.81v120.43Zm69.77-204.32c25.75-2.49,58.97-4.15,112.12-4.15h276.57c70.6,0,83.06.83,111.29,4.15v-120.43c-29.9,5.81-45.68,6.64-112.95,6.64h-272.42c-57.31,0-84.72-1.66-114.62-6.64v120.43Z"/>
    <path class="cls-18" d="m7787.99,648.59c28.24,39.04,47.34,71.43,64.78,111.29l68.1-29.07c-15.78-39.03-37.38-73.09-65.61-108.8l-67.27,26.58Zm3.32,129.57l32.39-12.46c-16.61-38.2-34.05-68.94-65.61-111.29l-68.94,25.75c19.1,25.75,26.58,36.54,42.36,66.44-17.44,1.66-27.41,2.49-45.68,2.49h-377.07c-68.94,0-94.68-.83-130.4-5.81v127.07c34.05-4.15,60.63-4.98,128.73-4.98h363.78c-38.2,151.16-119.6,264.95-247.5,346.34-60.63,38.21-106.31,59.8-178.57,82.22,47.34,47.34,60.63,65.61,88.04,118.77,119.6-53.16,199.33-104.65,270.76-173.58,95.51-92.19,162.79-213.45,201.82-364.61q11.63-44.85,18.27-60.63l-32.39-35.71Z"/>
  </g>
  <rect class="cls-6" x="21" y="22" width="7920" height="1956"/>
</svg>