<?xml version="1.0" encoding="UTF-8"?><svg id="_レイヤー_1" xmlns="http://www.w3.org/2000/svg" width="595.3" height="599.8" viewBox="0 0 595.3 599.8"><defs><style>.cls-1,.cls-2,.cls-3,.cls-4,.cls-5,.cls-6,.cls-7,.cls-8,.cls-9,.cls-10,.cls-11,.cls-12,.cls-13,.cls-14,.cls-15{stroke:#000;}.cls-1,.cls-3,.cls-4,.cls-5,.cls-7,.cls-16,.cls-8,.cls-9,.cls-10,.cls-11,.cls-13,.cls-14{stroke-linejoin:round;}.cls-1,.cls-3,.cls-9{isolation:isolate;opacity:.94;}.cls-1,.cls-9{stroke-width:6.7px;}.cls-2,.cls-3,.cls-4,.cls-6,.cls-7,.cls-16,.cls-8,.cls-9,.cls-10,.cls-11,.cls-12,.cls-13,.cls-14{stroke-linecap:round;}.cls-2,.cls-3,.cls-4,.cls-6,.cls-7,.cls-9,.cls-11,.cls-12,.cls-13,.cls-14{fill:none;}.cls-2,.cls-4,.cls-5{stroke-width:2.93px;}.cls-2,.cls-6,.cls-12,.cls-15{stroke-miterlimit:2.98;}.cls-3{stroke-width:4.25px;}.cls-17,.cls-16,.cls-8{fill:#fff;}.cls-6{stroke-width:3.06px;}.cls-7{stroke-width:5.16px;}.cls-16{stroke:#154396;}.cls-16,.cls-8,.cls-10{stroke-width:.89px;}.cls-11{stroke-width:4.59px;}.cls-12{stroke-width:.95px;}.cls-13{stroke-width:7.15px;}.cls-14{stroke-width:2.98px;}.cls-15{stroke-width:.03px;}</style></defs><rect class="cls-17" width="595.3" height="599.8"/><g id="_レイヤー_2_のコピー"><path class="cls-13" d="m238.1,579.2c-4-.9-12.6-3-17-4.2-4.1-1.2-12.2-3.7-16.2-5.1-4-1.5-12-4.4-16-6-4-1.7-11.8-5.3-15.8-7.1-3.8-1.9-11.4-5.8-15.2-7.9-3.7-2.1-11-6.6-14.9-9-4-2.6-11.1-7.6-14.6-10.2-3.4-2.6-10.2-7.9-13.5-10.6-3.2-2.8-9.6-8.5-12.8-11.4-3.2-3.1-9.7-9.7-12.7-12.8-2.9-3.2-8.5-9.6-11.3-12.9-2.8-3.4-7.9-10.2-10.5-13.6-2.5-3.5-7.3-10.5-9.6-14.1-2.2-3.6-6.6-11-8.7-14.6-2-3.7-6-11.3-7.9-15.3-1.8-3.9-5.4-11.8-7.1-16-1.7-4.4-4.7-12.6-6.1-16.6-1.4-4.1-3.8-12.3-4.9-16.4-1.1-4.2-3.1-12.6-4-16.9-.8-4.2-2.2-12.7-2.9-16.9-.6-4.3-1.6-12.9-1.9-17.1-.3-4.3-.7-12.8-.8-17.1-.1-4.3.1-12.8.2-17,.2-4.3.8-12.8,1.2-17.1.5-4.2,1.6-12.8,2.3-17.1.7-4.3,2.3-12.6,3.2-16.8,1-4.2,3.1-12.5,4.2-16.6,1.4-4.5,4.2-13.1,5.6-17.1,1.5-4,4.6-12,6.2-15.9,1.7-3.9,5.3-11.7,7.2-15.5s5.9-11.2,8.2-15.1c3.5-5.9,4.3-7.1,4.4-7.3"/><path class="cls-13" d="m122.8,75.4l16.1-9.4c2.1-1.4,10.4-6.6,14.1-8.9,3.7-2.1,11.1-6.2,14.8-8.2,3.8-1.9,11.6-5.6,15.5-7.4,4.2-1.8,12.7-5.2,16.8-6.7,4.1-1.4,12.2-4.2,16.4-5.4,4.2-1.2,12.6-3.4,16.7-4.4,4.2-1,12.5-2.6,16.7-3.4,4.2-.6,12.7-1.8,16.9-2.4,4.2-.4,12.8-1,17-1.3,4.3-.1,12.7-.4,17-.3s12.9.5,17.3.7c4.3.3,13.5,1.3,18,1.9,4.2.6,12.7,2,16.9,2.8,4.1.9,12.4,2.8,16.6,3.9,4.1,1.1,12.3,3.5,16.4,4.8,4,1.4,12.1,4.3,16.1,5.8,4,1.6,11.8,5,15.8,6.8,3.9,1.9,11.6,5.7,15.3,7.7,3.7,2.1,11,6.4,14.7,8.6,3.6,2.3,10.7,7,14.2,9.5,3.4,2.5,10.3,7.7,13.7,10.3,3.4,2.8,9.9,8.4,13.1,11.3,3.1,2.9,9.3,8.8,12.3,11.9,2.9,3.1,8.8,9.5,11.7,12.8,2.8,3.3,8.1,9.9,10.7,13.2,2.5,3.4,7.6,10.4,10,13.9,2.3,3.6,6.8,10.8,9.1,14.5,2.3,4,6.8,12.2,8.9,16.4,1.9,3.9,5.5,11.7,7.3,15.6,1.7,4,4.9,12.4,6.4,16.6,1.4,4.1,4,12.1,5.2,16.2,1.1,4.1,3.2,12.4,4.2,16.6.9,4.2,2.5,12.5,3.2,16.7.6,4.3,1.8,12.9,2.3,17.6.4,4.4.9,12.9,1.1,17.2.1,4.3.2,12.7.1,17-.2,4.3-.6,12.8-.9,17.1-.4,4.3-1.4,12.8-2,17.1-.7,4.3-2.1,12.7-2.9,16.9-.9,4.2-2.9,12.6-4,16.8-1.1,4.2-3.6,12.3-5,16.4s-4.4,12.2-6,16.3c-1.6,3.9-5.1,11.7-6.9,15.5-1.9,3.8-5.7,11.4-7.8,15.2-2.1,3.7-6.5,11.1-8.7,14.7-2.3,3.6-7.2,10.7-9.7,14.3-2.6,3.5-7.8,10.3-10.4,13.6-2.7,3.3-8.4,9.7-11.3,12.9-2.9,3.1-9,9.3-12,12.2-3.1,2.9-9.5,8.6-12.8,11.5-3.4,2.9-10.2,8.2-13.7,10.8-3.5,2.5-10.4,7.4-14,9.8-3.6,2.3-10.9,6.7-14.6,8.9-3.7,2.1-11.2,6.1-15,8-3.9,1.8-11.6,5.5-15.8,7.2-4.4,1.8-12.6,4.9-16.6,6.4-4.1,1.4-12.2,4-16.4,5.2-4.1,1.1-12.5,3.2-16.7,4.2-4.1.9-12.5,2.4-16.7,3.1-4.3.6-12.9,1.8-17.2,2.2-4.2.3-12.8.9-17.1,1.1-4.3.1-12.7.2-17,.1-4.3-.2-12.9-.6-17.3-1-4.3-.4-12.7-1.4-16.9-2-4.2-.7-12.6-2.1-16.8-3-4.1-.9-12.4-3-16.6-4-4.1-1.1-12.3-3.6-16.3-5s-12.1-4.4-16.5-6.2-12.1-5.4-16-7.2c-3.9-1.9-11.4-5.8-15.1-7.9-3.7-2.2-11-6.6-14.7-8.8-3.5-2.3-10.5-7.1-14-9.7-3.4-2.6-10.2-7.8-13.8-10.8-3.6-3.1-10-8.8-13.2-11.7-3.1-2.9-9.2-9.1-12.2-12.2-2.9-3.2-8.6-9.6-11.4-12.8-2.7-3.3-8-10.1-10.6-13.6-2.5-3.5-7.4-10.6-10-14.5-2.5-4-6.9-11.4-9-15.1-2.1-3.8-6-11.4-7.9-15.2-1.8-3.9-5.4-11.8-7.1-15.8-1-2.4-2.4-6.2-2.9-7.4"/></g><g id="_レイヤー_5_のコピー"><path class="cls-7" d="m334.1,515.3c-3.8.6-13.7,1.9-17,2.2-4.2.3-12.8.7-17.1.8-4.4,0-12.9-.3-17.3-.5-4.3-.3-12.9-1.3-17.2-1.9-4.2-.7-12.7-2.3-16.9-3.2-4.2-1-13.4-3.5-16.4-4.5-4.1-1.4-12.3-4.3-16.3-5.9-3.9-1.7-11.7-5.2-15.5-7.1-7.8-4-15.1-8.7-15.8-9.1"/><path class="cls-7" d="m168.2,474.3c-6.2-3.9-10.1-7-13.4-9.9-3.1-2.8-10.1-9.4-12.3-11.7-3-3.1-8.7-9.4-11.4-12.7-2.7-3.4-8.1-10.4-10.6-13.9-1.9-2.7-7.2-10.9-9.4-14.6-2.2-3.8-6.3-11.4-8.2-15.2-1.9-3.9-5.3-11.9-7-15.9-1.6-4.1-4.4-12.5-5.8-16.8-1.1-4-3.3-12.3-4.2-16.5-.7-3.2-2.3-12.8-3-17.1-.5-4.3-1.4-13.7-1.6-18.1-.2-4.3-.3-13.2-.2-17.5.2-4.4.8-13.1,1.2-17.3.5-4.3,1.8-12.7,2.6-16.9.8-4.1,2.8-12.4,3.9-16.6,1.2-4.1,3.8-12.2,5.2-16.2,1.9-5,4.4-11.6,5.2-13.4"/><path class="cls-7" d="m104.9,201.9c1.2-2.3,8.3-14.2,10.6-17.9,2.3-3.5,7.2-10.4,9.7-13.8,2.6-3.4,8.1-10,11-13.3,2.9-3.2,9.1-9.6,12.6-12.9,3.2-3,9.7-8.6,13-11.3,3.3-2.6,10.2-7.7,13.7-10.2,3.6-2.4,11-7,14.7-9.2,3.8-2.1,11.4-6.1,15.3-7.9,3.9-1.8,11.6-5.1,15.6-6.6s12.1-4.2,16.2-5.4c4.1-1.1,12.5-3.2,16.7-4.1,4.2-.8,12.6-2.2,16.8-2.8,4.2-.5,12.7-1.2,17-1.5,4.3-.2,12.8-.2,17.1-.1,4.2.2,12.9.8,17.5,1.3,4.8.6,7.9.8,18,4"/><path class="cls-7" d="m385.8,104.3c2.9.7,15.6,6.5,19.4,8.6,3.7,2.2,12.9,8.1,16.4,10.5,3.5,2.5,10.4,7.7,13.8,10.4,3.3,2.7,9.7,8.4,12.8,11.4,3.9,3.8,9,9.2,11.9,12.4,2.9,3.3,8.3,9.9,10.9,13.3,2.5,3.4,6.8,9.5,9.7,14,2.3,3.6,6.6,11.1,8.7,14.9,2,3.9,5.8,11.7,7.5,15.7s4.8,12.1,6.2,16.2c1.3,4,3.7,12.2,4.8,16.4,1,4.1,2.8,12.5,3.6,16.8.7,4.3,1.8,12.8,2.2,17,.3,4.3.8,12.8.9,17.1,0,4.3-.2,12.8-.5,17.1-.3,4.2-1.1,11.7-1.8,17.1-.7,4.3-2.3,12.8-3.2,16.9-1,4.2-3.5,13.3-4.5,16.4-1.4,4.2-4.3,12.2-5.8,16.2-1.7,4-5.2,11.8-7.1,15.7-1.4,2.8-6.1,11.3-8.2,15-2.3,3.7-5.8,8.7-8.3,12.2-2.5,3.4-3.2,4.2-6,7.6-1.2,1.4-2.1,2.5-3.1,3.4"/><path class="cls-7" d="m397,493.9c-4.5,2.5-8.1,4.2-12.1,6s-8.7,3.7-12.8,5.2c-1.7.6-4,1.4-6.5,2.2-3.4,1.1-7.1,2.3-10.1,3.1-1.9.5-4.7,1.2-7.6,1.9-3.4.8-6.9,1.6-9.1,2-4.2.8-12.8,2.1-17.1,2.6-4.3.4-13,1-17.3,1.2-4.3.1-13.1,0-17.5-.2-4.4-.3-13.4-1.1-17.6-1.6-4.6-.7-11.2-1.8-12.5-2"/></g><g id="_レイヤー_14_のコピー"><path class="cls-14" d="m72.2,294.5c.1-4,.8-14.1,1.2-17.4.5-4.2,1.8-12.7,2.5-17,.9-4.3,2.8-12.9,3.9-17.1,1.2-4.3,3.9-13.1,5.3-17.1,3.2-8.8,7.5-18.3,8.2-20"/><path class="cls-14" d="m102,189.2c2.1-3.4,7.2-11.8,9.3-14.9,2.6-3.7,7.8-10.7,10.5-14.1,2.7-3.3,8.4-9.8,11.2-12.9,2.9-3.1,9.1-9.2,12.3-12.1,3.2-2.9,9.7-8.4,13-11.1,3.4-2.6,10.4-7.7,14-10.1s11-6.9,14.7-9c4.7-2.6,11.4-6,15.2-7.8,3.9-1.8,11.9-5.1,16-6.7,4.1-1.5,12.3-4.2,16.4-5.5,4.1-1.2,12.6-3.3,16.8-4.2,4.2-.8,12.8-2.3,17-2.9,4.3-.5,12.9-1.3,17.3-1.6,4.3-.2,13-.3,17.3-.2,9.6.3,18.7,1.3,19,1.3"/><path class="cls-14" d="m375.6,90.1c2.7,1,12.3,4.9,16.2,6.7,3.8,1.8,12.5,6.2,15.3,7.8,3.8,2.2,11.1,6.6,14.7,8.9,3.5,2.4,10.5,7.4,14,10.1,3.4,2.7,10.1,8.3,13.3,11.2,3.1,2.9,9.2,8.8,12.2,11.9,3,3.2,8.7,9.7,11.4,13,2.6,3.4,7.8,10.2,10.3,13.8,2.4,3.6,7,10.9,9.3,14.6,2.1,3.7,6.2,11.3,8.1,15.1,1.8,3.9,5.8,12.8,6.9,15.8,1.5,4,4.4,12.2,5.7,16.3,1.2,4.1,3.4,12.5,4.4,16.7.9,4.2,2.5,12.6,3.1,16.9.6,4.3,1.5,12.8,1.8,17,.2,4.3.5,13,.5,17.3-.1,4.2-.6,13.2-.9,17.8"/><path class="cls-14" d="m519.6,339.9c-.2,1-2.5,12.3-3.5,16.4-1,4-3.4,12.2-4.8,16.5-1.8,5.3-3.4,9.4-3.6,10.1"/><path class="cls-14" d="m475.8,439.4l-13.3,15.7-.4.5"/><path class="cls-14" d="m401.4,501.5c-4.2,2.1-11.9,5.7-16.2,7.6-6.5,2.6-9,3.6-9.6,3.8"/><path class="cls-14" d="m356.5,519l-14.4,3.5"/><path class="cls-14" d="m309.9,526.5l-17,.3"/><path class="cls-14" d="m258.6,523.5l-8.5-1.7"/><path class="cls-14" d="m195.1,502.4l-8.8-4.8"/><path class="cls-14" d="m157,477.7c-6.7-5.2-14.1-12.2-14.6-12.7"/><path class="cls-14" d="m125,446.6c-3-3.7-8.7-11.1-11.2-14.5-1.3-1.9-3.4-5-4.1-6"/><path class="cls-14" d="m85.1,377.1c-1.6-4.6-3.9-12-5.1-16.2-2.1-8-4.3-18.7-4.7-20.9"/><path class="cls-14" d="m72.1,295.1c.2-4,.8-13.6,1.1-17,.5-4.3,1.8-13,2.5-17.4.8-4.4,2.7-12.7,3.8-16.8,1.1-4.1,3.6-12.2,5-16.3,3.1-8.5,7.8-19.6,9.4-22.9"/><path class="cls-14" d="m350.5,571l5.4-1.2"/><path class="cls-14" d="m421.5,546.5c4.1-2.1,11-5.9,14.9-8.1,9.3-5.6,17.7-11.3,20.3-13.1"/><path class="cls-14" d="m474.9,511.1c3.2-2.8,9.7-8.6,12.8-11.6,3.1-3,9.4-9.5,12.3-12.6,2.9-3.2,7.3-8.3,8.4-9.6"/><path class="cls-14" d="m552.9,402.3l.4-.9,2-5.4"/><path class="cls-14" d="m568.4,346.4l.4-2.7"/><path class="cls-14" d="m572,308.6c.1-4.7,0-13.7-.1-17.9-.2-4.3-.8-12.8-1.2-17.2-.5-4.3-1.6-12.9-2.3-17.1-.7-4.3-2.4-12.7-3.4-16.9s-3.2-12.5-4.4-16.6c-1.3-4.1-4-12.2-5.5-16.3-1.5-4-4.6-11.9-6.4-15.8-1.8-3.9-5.5-11.8-7.4-15.6-2-3.8-6.2-11.2-8.3-14.9-2.3-3.7-6.9-11-9.4-14.7-2.5-3.5-7.6-10.4-10.2-13.8-2.8-3.5-8.7-10.6-11.6-13.8-2.9-3.2-8.8-9.4-12-12.6-3.3-3.2-9.6-8.9-12.9-11.8-3.2-2.8-9.9-8.1-13.2-10.7-3.5-2.5-10.4-7.5-13.9-9.9-3.6-2.3-11-6.9-14.7-9.1-3.7-2.1-11.4-6.3-15.2-8.2-3.8-1.8-11.6-5.4-15.5-7.1-4-1.7-12-4.7-16-6.2-4-1.4-12.1-4-16.2-5.1s-12.4-3.2-16.6-4.1c-4.1-.9-12.7-2.4-16.9-3.1-4.2-.6-12.8-1.7-17.1-2.1-4.3-.3-12.9-.8-17.2-1-4.3-.1-12.9,0-17.2.1-4.3.2-12.7.8-17,1.1-4.2.5-12.7,1.6-16.9,2.2-4.2.7-12.6,2.3-16.8,3.3s-12.6,3.2-16.8,4.3c-4.2,1.3-12.6,4.1-16.8,5.6-4,1.5-12,4.7-15.8,6.3-8,3.6-16.8,8.1-17.5,8.4"/><path class="cls-14" d="m57.1,168.7c-2,3.7-6,11.5-7.8,15.3-1.8,3.9-5.2,11.7-6.9,15.8-1.6,4.1-4.5,12.2-5.9,16.3-1.3,4.1-3.7,12.3-4.8,16.4-1,4.2-3,12.6-3.8,16.9-.8,4.2-2.1,12.8-2.7,17-.5,4.3-1.4,13-1.7,17.5-.2,4.2-.5,10-.5,11.2"/><path class="cls-14" d="m26.1,343.3l.8,4.8"/><path class="cls-14" d="m57.9,435.7l6.3,10.6"/><path class="cls-14" d="m105.5,497.9l9.6,8.9"/><path class="cls-14" d="m141.1,527.2l.5.4"/><path class="cls-14" d="m168.3,543.9l14.2,7"/><path class="cls-14" d="m230.2,567.8l15.6,3.5"/><path class="cls-14" d="m276.1,575.3c4.1.3,12.6.7,17.1.8,4.3,0,10.7-.1,12.5-.1"/><path class="cls-14" d="m420.7,546.9c3.7-1.9,11.4-6.1,15.5-8.4,4.2-2.5,10.1-6.2,11.8-7.3"/></g><g id="_レイヤー_19_のコピー"><path class="cls-9" d="m283.9,86.9s-13.4,51.4-14.9,111.6c-1.3,52.7-15.2,76.3-17,76.6"/><path class="cls-9" d="m69.7,201.9c-17.9-27.7-15.2-59.6-5.6-78.7,7.5-14.9,24.3-27.7,48-41.8,14.8-8.8,29.8-15.5,44.1-19.3,19.2-5,49-8.4,67.9-10.8s52.4-2.8,73.7,1c1.1.2,16.4,3.9,21.7,5.9,41.9,15.9,81,40.8,85.1,100.2,2.7,38.8-14.3,61.5-33.7,78.4-43.6,38.2-124,36-137.7,80.7-.1.2-14.2-45.9,80.4-71.9,65.5-18,71.9-71.8,72.1-88.8l-1.2-5.2"/><path class="cls-9" d="m69.7,201.9s-7.3-17.3,5.2-39.9c0,0,5.1,33.7,34.1,58,29,24.3-95.1-84,120-169.2"/><path class="cls-9" d="m213.3,57.7s142.1-17.8,173.4,100.5c3.4,12.9,7.5,31.3,8,47.6"/><path class="cls-9" d="m233.2,316.8s37.6,36.5,46.7,82.5"/><path class="cls-9" d="m242.6,305.4c9.9,11.7,41.9,50.8,47.6,78.5"/><path class="cls-9" d="m236.1,323.6c-10.4,42.3-13.4,57.8-9.6,73.9,3.9,16.6,15,17.2,23.1,18.8,19.2,3.7,32.2-10.3,51.7-54.2.1-.1.1-.2.1-.4.5-5.8,1.3-56.9,5.3-89.7"/><path class="cls-9" d="m231.8,341.4c-13,55.8-15.4,79.2-14.4,96.4,1.1,17.2-4,48.9,6.9,51.3s15.6,4,19.3,3.5c3.6-.5,10.1-8.5,10.1-8.5,0,0,14.8-14.9,28.1-42.9,11.4-23.8,18.1-70.3,19.5-78.1.2-1.4.3-5.2.2-3.9"/><path class="cls-9" d="m313,245.8s28.7-56.7,44.6-138.5"/><path class="cls-9" d="m358.7,292.4c-8,13.4-31,42.4-48.2,95.6-10.6,32.7-16.9,38.5-20.3,38.1"/><path class="cls-9" d="m303.8,307.4s23.6-36.8,44.8-45"/><path class="cls-3" d="m306.8,281c4.6-5.2,11.3-11.8,18.1-17"/><path class="cls-9" d="m369.5,123.2c-17.5,49.7-26.4,74.6-24.1,105.5"/><path class="cls-9" d="m349.3,254.3c1.6,7.1,3.7,14.8,6.3,23.3.1.2.1.4.2.7,5.3,17.9,13,22.2,18.1,29.6,1.9,2.9,2.2,3.3,2.4,3.8,11.2,24.2-47.4,106.7-49.1,115.2-1.4,7.2-5,48.8-7.2,52.7-2.2,3.9-14.3,18.6-25.6,14.3-11.4-4.3-12.3-20.7-17.1-42.6"/><path class="cls-9" d="m364.2,243.5c22.5-4.3,56.4-8.5,46.2,8.7-11.5,19.3-9.4,29.8-11.2,31.4-6.3,5.8-30.9-4.3-43.4-9.9l-2.1-2.4c.2-4.9,20.5-9.6,45.3,10"/><path class="cls-9" d="m395,286.1c2,3.9,35,45.6,27.7,43.6-12.4-3.4-19.3,7.6-27.7,27.7-3.5,8.3-8.7-39.5-19-46.6"/><path class="cls-1" d="m359.5,274l-2.4-5.3,29.6,5.3c4.6,3.3,11.8,5.7,10.2,7-2.7,2.2-15.3,0-15.3,0l-22.1-7Z"/><path class="cls-1" d="m377.8,197.2c1.8,1,5.3,1.5,8.1,4.7,2.3,2.7,4.1,9.6,5.5,9.3,4.2-1-2.2-36.8-2.2-36.8-1-1.9-7.7,11.3-11.3,19.5-1.7,3.6-1.2,2.7-.1,3.3Z"/></g><g id="_レイヤー_3_のコピー"><path class="cls-11" d="m328.2,425.6c.8-7.6,38.7-106.2,47.3-106.7"/></g><g id="_レイヤー-1"><path class="cls-6" d="m182,473l-5.4,25.7,19.9,18.9"/><path class="cls-6" d="m134.3,473l5.4,25.7-19.9,18.9"/><path class="cls-6" d="m119.9,518.1l26.1,2.8,11.8,24.7"/><path class="cls-6" d="m158.4,545.6l10.8-24,27.2-3.6"/><path class="cls-6" d="m134.7,472.7l22.8,13.1,24.1-13.1"/><path class="cls-12" d="m120.4,517.6l8.2-2.8,13-4.4,5.1-1.7,1.6-.5,5.1-1.7,2.8-1,5.1-1.7,5.1-1.7,6.2-2.1,3.8-1.3"/><path class="cls-12" d="m157.6,486v44.5l.1,7.5.1,6.7"/><path class="cls-12" d="m134.8,473.4l1.6,2.2,4,5.4.3.5,5.5,7.5,3.2,4.4,3.6,5,.9,1.3,3.3,4.5,1.2,1.7,1.7,2.3,1.5,2.1,3.5,4.8,1.1,1.4,3.8,5.2"/><path class="cls-12" d="m196.1,517.7l-3.3-1.1-.7-.2-9.9-3.3-6-2-3.2-1.1-8.3-2.8-2.3-.8-3.4-1.1-2.6-.9-11.5-3.9-5.4-1.8"/><path class="cls-12" d="m181.1,473.7l-10.3,13.9-2.1,2.9-.7,1-8.1,11-3.5,4.8-.4.5-.4.5-4.8,6.5-3.1,4.2-1.6,2.2"/><path class="cls-15" d="m181.8,472.6l-23.4,31.9,19-6,4.4-25.9Z"/><path class="cls-15" d="m157.8,504.9l37.8,13-25.8,3-12.4-15.3.4,39.4-11.7-23.6,11.7-16.5Z"/><path class="cls-15" d="m119.9,517.6l37.7-12.6-17.8-6.1"/><path class="cls-15" d="m156.8,503.8l-21.6-30.2,22,12.1.3,18.5"/></g><g id="_レイヤー-2"><path class="cls-2" d="m462,429.5l-12.1,12-10,28.2-.8,9.2-2.3-8.9-15.2-25.8-14.2-9.5"/><path class="cls-2" d="m384.6,484.8l15.3-7.5,30-.3,9,2.3-7.7-5.1-19.5-22.8-4.4-16.5"/><path class="cls-2" d="m493.9,474.2l-16.5-4.4-29.5,5.5-8.4,4,6.6-6.5,14.7-26.1,1.1-17"/><path class="cls-2" d="m493.9,474.3l-15.3,7.5-30,.3-8.9-2.4,7.6,5.3,19.5,22.8,4.4,16.5-14.3-9.4-15.2-25.9-2.5-8.9-.6,9.2-10,28.2-12.1,12,1-17.1,14.7-26.1,6.5-6.6-8.3,4.1-29.5,5.5-16.5-4.5"/><path class="cls-2" d="m417.2,495.1l-7.8,2.6-4.1,5.9"/><path class="cls-2" d="m460.7,464.2l5.3-7,7.5-2.1"/><path class="cls-2" d="m414.8,468.2l-6.1-5.4-7.1-.6"/><path class="cls-2" d="m436.5,452.7l-3.2-7.5,1.8-6.9"/><path class="cls-2" d="m436.7,453.3l1.8-8.7-3.3-7"/><path class="cls-2" d="m415.3,468.6l-8.8-1.1-5.6-5.4"/><path class="cls-2" d="m460.7,464.2l8.4-2.8,4.4-6.4"/><path class="cls-2" d="m417.8,494.8l-5.3,7-7.5,2.2"/><path class="cls-2" d="m463.7,490.9l6.1,5.4,7.1.6"/><path class="cls-2" d="m442.1,506.4l3.2,7.5-1.8,6.9"/><path class="cls-2" d="m441.8,505.7l-1.8,8.7,3.3,7"/><path class="cls-2" d="m463.2,490.4l8.8,1.1,5.6,5.4"/><path class="cls-4" d="m438.7,478.8l-30.7-43.1"/><path class="cls-4" d="m470.4,523.1l-30.9-43.2"/><path class="cls-4" d="m493,474.3l-53.1,5.1"/><path class="cls-4" d="m461.6,430.6l-22.1,48.3"/><path class="cls-4" d="m417,528.5l21.7-48"/><path class="cls-4" d="m385.8,484.7l52.3-5.2"/><path class="cls-5" d="m440.9,475.3l20.1-42.6-.7,15.2-18,27.9,3.8,3.7,41.7-3.6-10.7,6-30.5-.7-4.1,3.1,25.2,36.3-10.9-6.4-14.8-25.6-.9-4-5.1.7-17.9,40.1-.4-13.2,17.1-31.4-43.7,3,9.1-6.2,34.3,1.3,1.2-3.9-25.3-35.5,10.7,5.2,17.1,29.6,2.7,1Z"/></g><g id="s_のコピー"><path class="cls-10" d="m83.6,329.5c.1-.5.4,2.5.4,2.5l-15.6,1.4-.5-1.9s11-4.5,10.9-13-6.4-12.3-10.2-12.7c-3.2-.4-8.3-1.2-11.5,9.8-1.1,3.8-.5,10.2-3.6,16.6-3.3,6.9-8.6,7.8-13.1,8.8-3.4.8-7.6-.2-12.5-2.8-4.9-2.7-8.8-9-10.1-17.1-1.3-8.1,3.2-12.4,3.8-12.9.6-.6-4.8-2.4-5.6-2.1-.8.3-.8-1.7-.8-1.7l19.2-1.8.3,1.8s-13.6,1.9-14.7,13.5c-1.6,15.9,18.8,22.8,24.1,11.9s1.8-25.1,13.8-28.5c19.3-5.5,27.5,14.9,20.5,26.6-1.1,1.8.5,1.2,1.6,1.6.5.2,3.5.4,3.6,0Z"/><path class="cls-10" d="m97.1,384.9s-5.1-5.1-8.4.4c-1.2,2,2.3,5,4.3,5.3,3.2.5,6.4-2.8,4.1-5.7Z"/><path class="cls-10" d="m74.6,384.3l-1.7.7s3.6,4.9,0,6.2c-3.6,1.3-19.8,5.2-25.5,6.1s-5-1.3-6.1-4.2c-.3-.8-.6-2.6-1.2-2.1-.7.6-1.7,1-1.7,1,0,0,8,18.4,7.5,18.7-.5.3,2.2-.4,2.2-.4,0,0-4.1-4.5,1.3-6.7,4.9-2,28.6-7.4,31.5-6.8,2.1.4-.3-2.4-2.4-5.8-2-3.2-3.9-6.7-3.9-6.7Z"/></g><g id="__のコピー_3"><path class="cls-10" d="m97.1,384.9s-5.1-5.1-8.4.4c-1.2,2,2.3,5,4.3,5.3,3.2.5,6.4-2.8,4.1-5.7Z"/><path class="cls-10" d="m74.6,384.3l-1.7.7s3.6,4.9,0,6.2c-3.6,1.3-19.8,5.2-25.5,6.1s-5-1.3-6.1-4.2c-.3-.8-.6-2.6-1.2-2.1-.7.6-1.7,1-1.7,1,0,0,8,18.4,7.5,18.7-.5.3,2.2-.4,2.2-.4,0,0-4.1-4.5,1.3-6.7,4.9-2,28.6-7.4,31.5-6.8,2.1.4-.3-2.4-2.4-5.8-2-3.2-3.9-6.7-3.9-6.7Z"/></g><g id="__のコピー_2"><path class="cls-10" d="m139.5,450.6s-6.7-2.8-7.7,3.6c-.4,2.3,4,3.7,6,3.3,3.2-.9,4.9-5.2,1.7-6.9Z"/><path class="cls-10" d="m118.4,458.5l-1.3,1.3s5.2,3.1,2.4,5.7c-2.9,2.6-16.3,12.4-21.2,15.4-4.9,3-5.1.7-7.2-1.5-.6-.6-1.6-2.2-1.9-1.5-.4.9-1.2,1.5-1.2,1.5,0,0,14.4,14,14.1,14.4-.4.5,1.9-1.2,1.9-1.2,0,0-5.5-2.6-1.3-6.7,3.8-3.7,23.6-17.8,26.5-18.3,2.1-.4-1.2-2.1-4.4-4.4-3.2-2.1-6.4-4.7-6.4-4.7Z"/></g><g id="u_のコピー_3"><path class="cls-10" d="m68.2,337.7l-2.2.2s1.5,5-1.3,5.9c-1.6.6-6,1.2-11.3,1.4-3.2.1-7.9.1-12.6.6-4.3.5-8,1.6-9.5,3.3-3.5,4.1-5.4,8.8.2,18.7,1.4,2.6,6.4,6.1,10.3,7.7,1.1.4-7.3,1.3-8.6,2.4-.4.4,4.1,8.1,4.4,11.9,0,.1,1.9.4,1.9.4,0,0-1.8-5.5,1.1-6.3,9.5-2.7,33.9-5,38-3.9,1.3.4-2.7-9.5-3-14l-2.6.2c1.6,7.7,2.1,7.9-19,8.8-7,.3-14.6-2.6-17.1-5.1-4.3-4.3-6.9-11-3-14.1,4.3-3.4,20.2-3.2,29.2-3.4,3.2-.1,8.2.4,7.8-1-1.4-5.2-2.7-13.7-2.7-13.7Z"/></g><g id="_レイヤー_15_のコピー"><path class="cls-10" d="m89.9,421.4c3.8-2.7,7-7.1,5.3-12.7-1.6-5.6-8.6-7-12-4.3s-2.9,8.5-2.4,13.6c.6,6.8-.7,12-6.3,15-2.4,1.3-8.6,2.7-13.6.2-6-3.1-8.4-8.8-8.6-13.6-.1-2.2,1-3.6.3-3.6-3.1.1-5.2-.4-5.4,0l-.1-.1c0,.2-.5-1.8-.5-1.8l13.1-5.3,1,1.5s-6.9,6.2-5.8,11.5c.7,3.5,5.7,12,13.4,8.1,6.9-3.5,4.1-15.7,4.8-21.2.8-5.4,7.1-10.6,14.7-9.1s10.5,6.1,10.3,16.3c0,2.2.7,1.2,1.3.8,1.4-1.2,2.3-1.3,2.3-1.3l.2,1.4.6,1.2-11.2,4.9-1.3-1.3s0-.1.1-.2"/></g><g id="_レイヤー_18_のコピー"><path class="cls-10" d="m110.2,462.1s4-2,6.1-6.1c1.5-2.9,1.5-7.4.3-11.2-1.2-3.7-3.6-7.7-10.5-11.4-6.8-3.6-13.1-3.1-18.1-2-12.9,2.7-20,14.8-18,21.6,2.5,8.5,4.7,15.6,22.3,17.4,1,.1.4-.6.3-1.4-.1-.7.2-1-.6-.8-2.9.6-6.6-.7-6.6-.7,0,0-9-1.6-11.2-11.8-1.6-7.6,10.5-14.8,18.2-17.7.5-.2,1,.8,1.9,2.2,2.6,4,7.4,10.8,9.7,13.8,5.3,6.7,6.2,8.1,6.2,8.1Z"/><path class="cls-8" d="m95.3,437.3s11.8-4.2,17,4.4-3.8,12-5.4,12c-1.7,0-11.6-16.4-11.6-16.4Z"/></g><g id="_レイヤー_19_のコピー_2"><path class="cls-10" d="m200.2,504.6l1-2,30.2,7.4s17.1,4.6,9,19c-2.7,4.9-7.1,7.4-12.8,8.2-5,.7-7.9-.8-8.7-.2-.9.7,18.8,4.6,12.4,21-6,15.4-22.5,11-25.3,10.8-8.5-.7-28.1-8.7-30.9-8.3-2.2.3,0-1.2,0-1.2,0,0,4.3,1.4,8.3.2,1.8-.5,3.7-2.6,4.7-4.9,12.7-27.1,20.1-40.4,19.3-46.2-.4-2.6-5-3.4-7.2-3.8Z"/><path class="cls-16" d="m218.2,509.2s20.6,1.3,14.3,14.8c-5.6,11.9-7.7,11.9-20.5,10.2-5.8-.8-4.8-.9-4-2.6,3.4-6.4,10.2-22.4,10.2-22.4Z"/><path class="cls-16" d="m206.6,535.7s19.3,1.9,17.3,13.4-10.5,20.6-23,16.5c-4.3-1.4-2.9-1.1-4.8-2.6-.8-.6.6-4.6,1-5.9,1.6-4.2,3.3-7.8,5-11.7,1.2-2.6,4.5-9.7,4.5-9.7Z"/></g><g id="_レイヤー_20_のコピー_3"><path class="cls-10" d="m267.5,574.3c-4.8.3-10.7-.6-15.5-3.2-3-1.6-5.5-3.9-7-6.9-2.3-4.8-4.9-13,1.7-23.2,9.3-14.2,21.8-16.9,30.6-14.8,8.1,2,17.9,10.1,14.7,22.6-3.9,15.4-10.7,22.3-24.5,25.5Z"/><path class="cls-16" d="m251,554.6c1.3-6.3,2.4-15,11-23.2,8-7.6,22.2-1.9,22.5,7.3.3,9.9-5.3,26.6-12.8,30.9-5,2.8-22.5,7.3-20.7-15Z"/></g><g id="_レイヤー_20_のコピー_2"><path class="cls-10" d="m335.9,572.8c-7.1,3.5-18.1,5.1-24.6-.6-4-3.5-9.6-10.1-7.4-22,3.1-16.7,13.6-24,22.5-25.4,8.3-1.3,20.4,2.4,22.3,15.2,2.4,15.5-1.2,24.5-12.8,32.8Z"/><path class="cls-16" d="m313.2,560.9c-1.2-6.4-3.6-14.8,1.2-25.6,4.5-10.1,19.8-10.3,23.5-2,4.1,9.1,5.4,26.6.1,33.4-3.4,4.6-17.9,15.6-24.8-5.8Z"/></g><g id="_レイヤー_21_のコピー"><path class="cls-10" d="m359.3,508.5s.4.6,6-2,1.4-2.3,2,3.3c.6,6.1,7.6,44.7,8.1,47.3.6,3.7,1.6,5.4,4,4.2.8-.4,2.8-.9,2.3,0-.6,1.2-.3,1.7-.3,2.2l-17.7,6.3-.5-2.1s7-2,6.2-6.3-7.2-45.9-8-47.4c-.8-1.4-2.1-5.5-2.1-5.5Z"/><path class="cls-10" d="m373.3,543.6s10.8-9.6,13.2-14.7c2.4-5.1.2-5.2-3.5-4.5-3.6.7-.7-1.3-.7-1.3,0,0,16.8-5.5,18.8-6.6,1.9-1.1.9,1.7.8,1.9.9-.3-16.6,13.2-19.7,19.4s21.8,10.4,26.8,13,4.8-2.8,5.3-.5c.6,2.3.5,1.9.5,1.9,0,0-22.9,7.5-23.4,8.4s-.8-2.1-.8-2.1c0,0,5.5-2.7,5.5-3.5s-15.2-8.9-16.3-9.2c-1.1-.2-4-2.7-6.2.2"/></g><g id="_レイヤー_22_のコピー"><path class="cls-10" d="m489.1,401.6l.5-2.1,19.5,10.6-.3,2.1s-11.4-4.6-18.8.2c-7,4.6-14.2,16.3-2.8,31.6,11.2,15.1,33.9,21.7,42,11.6,6.2-7.7,5.5-18.1,3.6-23.1s-10.8-13-10.8-13l.4-1.7,18,10.3-.4,1.9s-6.3-1.3-6.2-.5c0,.8,4.2,13,1.7,21.3-1.7,5.6-5.9,15.5-20.8,18.5-10.7,2.1-32-10.2-35.7-30.9-3.7-20.5,11-28.6,15.4-30.9,1.6-1-5.3-5.9-5.3-5.9Z"/></g><g id="_レイヤー_23_のコピー"><path class="cls-10" d="m497.5,394.9s2.2-8.7,2.4-10.9c.1-.9,6.1,3.5,14,8.1,10.9,6.3,24.8,13.8,27.3,15.4,1.4.8,2.4,2.1,5.2,1.9.7-.1,1.3-.7,1.7-1.4.8-1.4,1.3-3.9,2.2-2.1.4.8.4.7.4.7l-5.7,16.1-2-.7s2.4-5.6-.8-7.4c-3.5-1.9-25.1-14.9-28.2-16.4-1.2-.6-11.2-6.4-12.1-6.3-1.4.2-2.2,3.9-3,3.8-.8-.2-1.7.2-1.4-.8Z"/></g><g id="_レイヤー_24_のコピー"><path class="cls-10" d="m514.7,338.4s-1.2-11.1-2.3-12c-1.1-.9,25.8,3.8,27.7,3.4,1.9-.5-13.3-12-1.1-25,4.6-4.9,12.1-4.3,17.7-2.9,9.2,2.3,14.9,12.5,16.2,17s.5,11-4.1,13c-2.2.9-2.2,1.3-.9,2.1,1.9,1.2,6.4,3.4,6,5.5-.2,1.2-50.8-5.5-50.8-5.5-2.4.1-6.8-1.7-7,4.6-.1.7-.9-.2-1.4-.2Z"/><path class="cls-16" d="m542.9,329.8l22,2s11.5-4.8,2.3-17.6c-6.8-9.3-29.7-7.7-30.6,1.3-.6,6.4,6.3,14.3,6.3,14.3Z"/></g><g id="u_のコピー_2"><path class="cls-10" d="m514.6,383.2l2.1.9s1-5.1,3.9-4.7c1.7.3,5.9,1.7,10.6,4,2.9,1.4,7,3.6,11.4,5.3,4,1.6,7.8,2.3,9.9,1.5,5-2,8.9-5.3,8.5-16.6-.1-2.9-2.8-8.4-5.6-11.6-.7-.9,7,2.2,8.7,1.9.5-.1.1-9.1,1.6-12.5.1-.1-1.5-1.2-1.5-1.2,0,0-.9,5.7-3.9,5.1-9.7-2-32.4-11.2-35.5-14.2-1-.9-2,9.7-3.8,13.8l2.4,1c2.2-7.6,1.8-8,20.9,1,6.3,3,11.7,9.1,12.8,12.4,1.8,5.8,1,12.9-3.9,13.9-5.3,1-19.4-6.6-27.4-10.5-2.9-1.4-7.1-4.1-7.4-2.7-1.1,5.1-3.8,13.2-3.8,13.2Z"/></g></svg>