<svg width="102" height="50" viewBox="0 0 102 50" fill="none" xmlns="http://www.w3.org/2000/svg">
<mask id="mask0_428_853" style="mask-type:luminance" maskUnits="userSpaceOnUse" x="0" y="0" width="102" height="50">
<path d="M101.887 0H3.05176e-05V50H101.887V0Z" fill="white"/>
</mask>
<g mask="url(#mask0_428_853)">
<path d="M49.4676 6.9365C49.9047 7.36371 50.2509 7.87333 50.4856 8.43523C50.7203 8.99714 50.8388 9.59992 50.8341 10.2079V16.6464C50.8217 17.8566 50.3296 19.0136 49.4639 19.8682C48.5982 20.7229 47.428 21.2069 46.2053 21.2161H43.6812C42.9444 21.2161 42.3133 21.4235 41.8922 21.9427C41.6485 22.1702 41.4533 22.4437 41.3178 22.7469C41.1824 23.0502 41.1095 23.3772 41.1034 23.7087C41.1197 24.2922 41.3223 24.8557 41.6822 25.3182L42.1033 25.786L50.5191 34.1458C50.9398 34.5611 50.9398 35.0802 50.5191 35.5469C50.0461 36.0151 49.5199 36.0151 49.0462 35.5469L40.4197 27.0317C39.5255 26.0453 39.0517 25.0065 39.0517 23.7089C39.0473 23.1086 39.1663 22.5137 39.4015 21.9603C39.6367 21.407 39.9831 20.9067 40.4197 20.49C40.8428 20.0618 41.3512 19.7252 41.9127 19.5017C42.4741 19.2783 43.0764 19.1727 43.6812 19.1918H46.206C46.5414 19.1856 46.8722 19.1136 47.1793 18.9799C47.4864 18.8461 47.7635 18.6533 47.9946 18.4127C48.2315 18.1828 48.4188 17.9078 48.5453 17.6042C48.6718 17.3007 48.7349 16.975 48.7307 16.6467V10.2079C48.7498 9.87015 48.6937 9.53235 48.5666 9.21833C48.4394 8.90432 48.2441 8.62174 47.9946 8.39052C47.5094 7.9381 46.8724 7.67917 46.206 7.66351H33.0028C32.6625 7.65497 32.3241 7.71489 32.0079 7.83965C31.6917 7.96441 31.4045 8.15141 31.1635 8.38931C30.9225 8.62722 30.7328 8.91108 30.606 9.22368C30.4791 9.53629 30.4177 9.87114 30.4254 10.2079V34.819C30.418 35.0926 30.3047 35.353 30.1089 35.5463C29.913 35.7396 29.6497 35.8511 29.3732 35.8577C29.2434 35.856 29.1154 35.8272 28.9976 35.7734C28.8797 35.7196 28.7746 35.6419 28.689 35.5453C28.5904 35.4509 28.5117 35.3381 28.4577 35.2134C28.4036 35.0886 28.3751 34.9545 28.374 34.8187V10.2079C28.3684 9.6053 28.4843 9.00761 28.7151 8.44991C28.9459 7.89221 29.2868 7.38572 29.718 6.96012C30.1491 6.53452 30.6617 6.19837 31.2257 5.97139C31.7898 5.74441 32.3939 5.63115 33.0028 5.63826H46.2062C46.8095 5.6312 47.4082 5.74226 47.968 5.96507C48.5277 6.18787 49.0372 6.51801 49.4676 6.9365Z" fill="white"/>
<path d="M82.9904 21.5815C83.4359 22.0283 83.7875 22.558 84.0248 23.1402C84.2622 23.7223 84.3805 24.3452 84.373 24.9729V31.703C84.3573 32.9555 83.8438 34.1515 82.9438 35.032C82.0437 35.9125 80.8295 36.4067 79.5639 36.4077H75.2522C75.1108 36.4214 74.968 36.404 74.8342 36.3566C74.7005 36.3092 74.579 36.233 74.4785 36.1336C74.3781 36.0341 74.3012 35.9138 74.2534 35.7814C74.2055 35.649 74.188 35.5077 74.2019 35.3677C74.2099 35.1066 74.3073 34.856 74.4781 34.6568C74.7002 34.4867 74.9713 34.3909 75.2522 34.3835H79.5637C79.9197 34.3989 80.2745 34.3327 80.6004 34.1903C80.9264 34.0478 81.2148 33.8328 81.4431 33.5621C81.9333 33.0642 82.2105 32.3982 82.2168 31.703V24.9732C82.2242 24.6189 82.1595 24.2669 82.0266 23.9379C81.8937 23.609 81.6953 23.3099 81.4431 23.0584C81.2032 22.8054 80.9113 22.6062 80.5872 22.4742C80.263 22.3421 79.914 22.2802 79.5637 22.2927H72.2665C71.5661 22.3095 70.8968 22.5822 70.3875 23.0584C70.125 23.3023 69.9198 23.6001 69.786 23.9308C69.6523 24.2616 69.5934 24.6174 69.6134 24.9732V47.8424C69.6153 48.1054 69.5167 48.3593 69.3373 48.5533C69.1152 48.7233 68.8443 48.8191 68.5636 48.8271C68.2641 48.8284 67.9725 48.7322 67.7337 48.5533C67.6344 48.4647 67.5577 48.3541 67.5097 48.2305C67.4618 48.107 67.4439 47.974 67.4576 47.8424V24.9732C67.4375 24.3439 67.5499 23.7174 67.7877 23.1336C68.0256 22.5497 68.3836 22.0212 68.8391 21.5817C69.2907 21.141 69.8261 20.7932 70.4144 20.5584C71.0026 20.3236 71.632 20.2066 72.2662 20.214H79.5635C80.1976 20.2064 80.827 20.3234 81.4151 20.5582C82.0033 20.793 82.5385 21.1409 82.99 21.5817" fill="white"/>
<path d="M91.9921 32.4836C91.9908 32.8175 92.0588 33.148 92.1919 33.4548C92.3251 33.7615 92.5206 34.0378 92.7662 34.2666C92.9962 34.5348 93.2851 34.7473 93.6109 34.8879C93.9367 35.0285 94.2906 35.0935 94.6456 35.0779H95.751C96.0568 35.0887 96.3495 35.2032 96.5802 35.4021C96.6823 35.4894 96.7646 35.597 96.8217 35.718C96.8788 35.8389 96.9094 35.9705 96.9115 36.104C96.9149 36.2384 96.8868 36.3717 96.8293 36.4935C96.7718 36.6153 96.6865 36.7222 96.5802 36.8059C96.3493 37.0044 96.0566 37.1186 95.751 37.1294H94.6456C93.368 37.1458 92.1359 36.6607 91.2187 35.7802C90.3406 34.9023 89.8446 33.719 89.8368 32.4836V21.9222C89.8382 21.7806 89.8683 21.6407 89.9251 21.5108C89.982 21.3809 90.0646 21.2636 90.168 21.1657C90.3702 20.9981 90.6234 20.9024 90.887 20.894C91.1675 20.9018 91.4383 20.9969 91.6611 21.1657C91.7645 21.2636 91.8471 21.3809 91.904 21.5108C91.9609 21.6407 91.9909 21.7806 91.9923 21.9222L91.9921 32.4836ZM91.4394 48.0486C91.0191 47.6535 90.6884 47.1745 90.4692 46.6434C90.2499 46.1123 90.1472 45.5412 90.1678 44.9678L90.2236 43.7789C90.2218 43.5186 90.3208 43.2674 90.5002 43.077C90.5716 42.9863 90.6643 42.9141 90.7702 42.8667C90.8762 42.8194 90.9922 42.7983 91.1082 42.8053C91.3717 42.8133 91.6248 42.909 91.8265 43.077C91.9331 43.1605 92.0186 43.2673 92.0762 43.3892C92.1338 43.511 92.162 43.6444 92.1584 43.7789V44.9678C92.1412 45.6082 92.3795 46.2296 92.8218 46.6974C93.3046 47.1314 93.9383 47.3639 94.5903 47.3463H97.4646C98.0984 47.3538 98.7112 47.1217 99.1779 46.6974C99.4074 46.473 99.5854 46.2025 99.6999 45.9041C99.8143 45.6056 99.8626 45.2863 99.8413 44.9678V21.9763C99.8399 21.716 99.9388 21.465 100.118 21.2744C100.339 21.1073 100.616 21.03 100.892 21.0584C101.15 21.0381 101.407 21.1153 101.61 21.2744C101.79 21.4648 101.889 21.716 101.887 21.9763V44.9678C101.897 45.5448 101.784 46.1175 101.556 46.6484C101.327 47.1792 100.988 47.6564 100.56 48.0486C100.162 48.4605 99.6806 48.7843 99.1471 48.9985C98.6135 49.2128 98.0402 49.3127 97.4648 49.2916H94.5905C94.0068 49.3129 93.425 49.2133 92.8824 48.9993C92.3398 48.7853 91.8483 48.4614 91.4394 48.0486Z" fill="white"/>
<path d="M59.0733 36.1675C58.9714 36.0827 58.889 35.9773 58.8318 35.8583C58.7745 35.7393 58.7437 35.6096 58.7414 35.4778V21.3142C58.7436 21.1824 58.7744 21.0526 58.8316 20.9336C58.8889 20.8147 58.9713 20.7092 59.0733 20.6245C59.2763 20.4595 59.529 20.3662 59.7916 20.3594C59.907 20.352 60.0224 20.3723 60.1282 20.4184C60.234 20.4646 60.327 20.5353 60.3994 20.6245C60.5699 20.8155 60.6677 21.0594 60.676 21.3142V35.4781C60.6675 35.7328 60.5697 35.9766 60.3994 36.1677C60.327 36.2569 60.2339 36.3275 60.1282 36.3737C60.0224 36.4198 59.907 36.4401 59.7916 36.4329C59.5273 36.4355 59.2713 36.3408 59.0733 36.1675Z" fill="white"/>
<path d="M26.0901 27.983C26.1968 28.0682 26.2823 28.1767 26.3397 28.2999C26.3972 28.4231 26.4251 28.5578 26.4213 28.6935C26.4145 28.9816 26.2958 29.256 26.09 29.4598C25.8842 29.6637 25.607 29.7813 25.316 29.7882L23.824 29.8428H24.1002C23.8869 29.8345 23.6742 29.869 23.4748 29.9441C23.2753 30.0193 23.0933 30.1336 22.9397 30.2802C22.7965 30.4245 22.6836 30.5955 22.6077 30.7833C22.5318 30.9711 22.4944 31.172 22.4975 31.3742C22.5024 32.0065 22.3775 32.6331 22.1304 33.2162C21.8834 33.7993 21.5193 34.3267 21.0602 34.7664C20.6086 35.2071 20.0732 35.5549 19.4849 35.7896C18.8967 36.0244 18.2673 36.1415 17.6331 36.1341H4.86427C4.23006 36.1414 3.60067 36.0243 3.01244 35.7896C2.4242 35.5548 1.88878 35.207 1.43709 34.7664C0.978111 34.3267 0.614092 33.7993 0.367081 33.2163C0.12007 32.6333 -0.00479289 32.0067 5.7059e-05 31.3745V10.202C-0.0100289 9.56901 0.112472 8.94084 0.359838 8.35707C0.607204 7.77329 0.974071 7.24656 1.43732 6.81009C1.87837 6.3516 2.41058 5.9885 3.00043 5.74367C3.59028 5.49883 4.22496 5.37758 4.8645 5.38754H17.6331C18.2726 5.37752 18.9073 5.49875 19.4972 5.74359C20.087 5.98842 20.6192 6.35155 21.0602 6.81009C21.5234 7.24658 21.8903 7.77332 22.1376 8.35709C22.3849 8.94087 22.5074 9.56903 22.4973 10.202V26.0689C22.5009 26.4919 22.6578 26.8996 22.9395 27.2178C23.0818 27.3824 23.2606 27.5124 23.4619 27.5976C23.6631 27.6829 23.8815 27.7212 24.1002 27.7095H25.316C25.597 27.717 25.8682 27.8131 26.0901 27.9839M20.3417 10.202C20.3354 9.85279 20.2589 9.50837 20.1165 9.18882C19.9742 8.86926 19.7689 8.581 19.5127 8.34086C19.2736 8.0832 18.9832 7.8773 18.6597 7.73613C18.3363 7.59496 17.9868 7.52157 17.6333 7.52057H4.86427C4.51176 7.5269 4.16406 7.60271 3.84148 7.74355C3.5189 7.88439 3.22791 8.08745 2.98552 8.34086C2.7363 8.58334 2.53924 8.87323 2.40621 9.19308C2.27317 9.51292 2.20691 9.85611 2.21142 10.202V31.3745C2.19155 31.7222 2.25079 32.0699 2.38477 32.3919C2.51875 32.7139 2.72404 33.0021 2.98552 33.2351C3.228 33.4885 3.51904 33.6915 3.84165 33.8323C4.16425 33.9732 4.51197 34.049 4.8645 34.0554H17.6331C17.9865 34.0543 18.336 33.9808 18.6594 33.8397C18.9828 33.6985 19.2733 33.4927 19.5125 33.2351C19.7815 33.0053 19.9954 32.719 20.1388 32.3972C20.2823 32.0754 20.3516 31.7261 20.3417 31.3745C20.3475 31.1668 20.3057 30.9605 20.2196 30.771C20.1335 30.5815 20.0052 30.4138 19.8444 30.2802C19.523 30.0015 19.1111 29.8462 18.6837 29.8426H13.6539C13.5104 29.848 13.368 29.8154 13.2415 29.748C13.115 29.6806 13.009 29.581 12.9345 29.4595C12.8307 29.3599 12.748 29.2408 12.6911 29.1093C12.6343 28.9778 12.6044 28.8364 12.6032 28.6933C12.5994 28.5576 12.6273 28.4229 12.6848 28.2997C12.7423 28.1764 12.8277 28.068 12.9345 27.9828C13.1359 27.8133 13.3896 27.7165 13.6539 27.7084H18.6837C18.9023 27.72 19.1207 27.6817 19.322 27.5964C19.5233 27.5112 19.702 27.3812 19.8444 27.2166C20.0021 27.0688 20.1276 26.8907 20.2131 26.6931C20.2987 26.4955 20.3425 26.2828 20.342 26.0678L20.3417 10.202Z" fill="white"/>
<path d="M18.2594 5.3243C18.2594 4.57306 17.6314 4.08288 16.4774 4.08288H13.7712C13.7712 4.08288 14.4655 -0.000244141 11.263 -0.000244141H11.2099C8.00825 -0.000244141 8.70091 4.08288 8.70091 4.08288H5.99567C4.84001 4.08288 4.21368 4.57306 4.21368 5.3243V6.79439H18.2591L18.2594 5.3243Z" fill="white"/>
<path d="M11.2073 3.24449C11.0246 3.24435 10.8461 3.1906 10.6942 3.09004C10.5424 2.98947 10.424 2.8466 10.3542 2.67949C10.2844 2.51238 10.2662 2.32853 10.3019 2.15118C10.3377 1.97384 10.4257 1.81096 10.5549 1.68313C10.6842 1.55531 10.8488 1.46828 11.028 1.43305C11.2072 1.39782 11.393 1.41597 11.5618 1.4852C11.7305 1.55444 11.8748 1.67165 11.9763 1.82202C12.0778 1.97239 12.132 2.14917 12.132 2.33001C12.132 2.45016 12.108 2.56913 12.0616 2.68012C12.0151 2.79111 11.947 2.89196 11.8611 2.97688C11.7752 3.06181 11.6733 3.12915 11.5611 3.17507C11.4489 3.22099 11.3287 3.24458 11.2073 3.24449Z" fill="white"/>
<path d="M5.79599 48.5415H5.21839L4.80275 45.1679L3.38059 48.0597H2.86795L1.43298 45.1675L1.0242 48.541H0.446136L0.991714 44.1138H1.52379L3.12118 47.3967L4.71147 44.1138H5.24447L5.79599 48.5415Z" fill="white"/>
<path d="M6.42867 47.0374C6.42231 46.8296 6.45888 46.6226 6.53614 46.4292C6.61341 46.2358 6.72974 46.06 6.87801 45.9127C7.02629 45.7653 7.20339 45.6495 7.39847 45.5722C7.59355 45.495 7.80251 45.458 8.01256 45.4634C8.4319 45.4684 8.83237 45.6368 9.12713 45.932C9.42189 46.2273 9.58719 46.6256 9.58719 47.0407C9.58719 47.4558 9.42189 47.8542 9.12713 48.1494C8.83237 48.4447 8.4319 48.613 8.01256 48.618C7.80213 48.6228 7.59293 48.5851 7.39772 48.5072C7.20251 48.4293 7.02538 48.3128 6.87716 48.1649C6.72894 48.017 6.61273 47.8407 6.53562 47.6469C6.45851 47.453 6.42212 47.2457 6.42867 47.0374ZM9.03829 47.0374C9.02956 46.8401 8.96252 46.6496 8.84548 46.4895C8.72844 46.3295 8.56654 46.2069 8.37983 46.1371C8.19312 46.0672 7.9898 46.0531 7.79506 46.0964C7.60032 46.1398 7.42271 46.2388 7.28423 46.3811C7.14576 46.5233 7.05249 46.7027 7.01599 46.8969C6.97949 47.0912 7.00135 47.2917 7.07888 47.4738C7.1564 47.6559 7.28618 47.8114 7.45214 47.9212C7.6181 48.031 7.81295 48.0901 8.01256 48.0914C8.15071 48.0918 8.28751 48.0645 8.41473 48.0112C8.54194 47.9579 8.65694 47.8797 8.75278 47.7812C8.84862 47.6827 8.92333 47.566 8.97239 47.4382C9.02146 47.3104 9.04388 47.1741 9.03829 47.0374Z" fill="white"/>
<path d="M13.5331 47.0377C13.5435 47.2415 13.5119 47.4452 13.4403 47.6365C13.3687 47.8279 13.2584 48.0028 13.1164 48.1506C12.9743 48.2985 12.8033 48.4162 12.6138 48.4966C12.4243 48.577 12.2203 48.6184 12.0142 48.6183C11.8026 48.6241 11.593 48.577 11.4046 48.4815C11.2163 48.386 11.0553 48.2451 10.9365 48.0717V48.5411H10.3712V43.9082H10.9365V46.0095C11.0531 45.8325 11.2146 45.6888 11.4049 45.5929C11.5951 45.497 11.8075 45.4522 12.0208 45.463C12.2265 45.4618 12.4302 45.5022 12.6195 45.582C12.8087 45.6617 12.9795 45.7789 13.1212 45.9265C13.2629 46.074 13.3726 46.2487 13.4435 46.4398C13.5144 46.631 13.5447 46.8344 13.5331 47.0377ZM12.9614 47.0313C12.9678 46.8972 12.9467 46.7632 12.8994 46.6374C12.852 46.5115 12.7794 46.3965 12.6859 46.2992C12.5925 46.2018 12.4801 46.1243 12.3555 46.0711C12.2309 46.0179 12.0967 45.9903 11.9611 45.9898C11.748 45.9773 11.5361 46.0285 11.3529 46.1368C11.1696 46.2451 11.0235 46.4054 10.9336 46.597C10.8436 46.7885 10.814 47.0025 10.8485 47.2109C10.8831 47.4194 10.9802 47.6127 11.1272 47.7658C11.2743 47.9189 11.4645 48.0247 11.673 48.0694C11.8816 48.114 12.099 48.0956 12.2968 48.0163C12.4947 47.9371 12.6639 47.8008 12.7824 47.6251C12.9009 47.4495 12.9633 47.2426 12.9614 47.0313Z" fill="white"/>
<path d="M14.1837 44.4347C14.1791 44.3554 14.1987 44.2766 14.2399 44.2085C14.2812 44.1404 14.3422 44.0861 14.415 44.0528C14.4878 44.0194 14.5691 44.0085 14.6483 44.0214C14.7275 44.0343 14.8009 44.0705 14.859 44.1253C14.9171 44.1801 14.9572 44.2509 14.9742 44.3285C14.9911 44.4061 14.9841 44.487 14.954 44.5606C14.9239 44.6343 14.8721 44.6972 14.8054 44.7414C14.7387 44.7855 14.6601 44.8087 14.5799 44.8081C14.529 44.8095 14.4784 44.801 14.431 44.7829C14.3835 44.7649 14.3401 44.7377 14.3032 44.703C14.2664 44.6683 14.2369 44.6268 14.2164 44.5807C14.1958 44.5347 14.1847 44.4851 14.1837 44.4347ZM14.3006 45.5405H14.8658V48.5414H14.3012L14.3006 45.5405Z" fill="white"/>
<path d="M16.393 43.9084H15.8278V48.5413H16.393V43.9084Z" fill="white"/>
<path d="M20.2047 47.282H17.7374C17.7647 47.518 17.8835 47.7343 18.0688 47.8854C18.2541 48.0364 18.4913 48.1104 18.7306 48.0917C18.9065 48.0979 19.081 48.0577 19.2361 47.9753C19.3912 47.8929 19.5215 47.7713 19.6136 47.6228L20.1001 47.8157C19.9684 48.0653 19.7683 48.273 19.5227 48.4151C19.2771 48.5571 18.9959 48.6277 18.7116 48.6188C18.5021 48.6224 18.2942 48.5835 18.1005 48.5044C17.9068 48.4254 17.7316 48.3079 17.5856 48.1591C17.4396 48.0104 17.3259 47.8337 17.2517 47.6398C17.1774 47.4459 17.1441 47.239 17.1538 47.0318C17.1445 46.8257 17.1782 46.6199 17.2529 46.4272C17.3275 46.2345 17.4415 46.0591 17.5877 45.912C17.7339 45.7649 17.9091 45.6491 18.1025 45.572C18.2958 45.4949 18.5032 45.458 18.7116 45.4637C19.5749 45.4637 20.2175 46.0805 20.2175 47.0318C20.2175 47.1154 20.2111 47.1985 20.2051 47.282M19.6529 46.8004C19.6331 46.5708 19.5237 46.3579 19.348 46.2066C19.1724 46.0554 18.9441 45.9778 18.7116 45.9901C18.4754 45.9731 18.2418 46.0484 18.0609 46.1998C17.8801 46.3513 17.7664 46.5668 17.7442 46.8002L19.6529 46.8004Z" fill="white"/>
<path d="M22.4145 46.3379C22.4221 45.8957 22.5615 45.4656 22.8154 45.1016C23.0693 44.7377 23.4262 44.4561 23.8413 44.2924C24.2564 44.1287 24.7111 44.0901 25.1483 44.1814C25.5855 44.2728 25.9856 44.49 26.2984 44.8059C26.6112 45.1217 26.8227 45.522 26.9062 45.9565C26.9898 46.3909 26.9417 46.8401 26.7681 47.2476C26.5944 47.6551 26.3029 48.0027 25.9302 48.2466C25.5575 48.4906 25.1202 48.62 24.6734 48.6187C24.0684 48.6125 23.4906 48.3687 23.067 47.941C22.6434 47.5133 22.4087 46.9367 22.4145 46.3379ZM26.3552 46.3379C26.3391 46.0137 26.2274 45.7012 26.0338 45.4392C25.8402 45.1772 25.5733 44.9771 25.266 44.8637C24.9588 44.7503 24.6246 44.7285 24.305 44.8011C23.9853 44.8737 23.6942 45.0374 23.4676 45.2721C23.241 45.5067 23.0889 45.8019 23.03 46.1212C22.9712 46.4406 23.0082 46.7699 23.1365 47.0687C23.2648 47.3674 23.4788 47.6223 23.7519 47.8019C24.0251 47.9815 24.3455 48.0779 24.6734 48.0792C25.129 48.0667 25.5612 47.8768 25.8761 47.5508C26.191 47.2247 26.3632 46.7888 26.3552 46.3379Z" fill="white"/>
<path d="M29.6888 45.5787L29.5973 46.1054C29.4595 46.04 29.3089 46.0051 29.1561 46.003C28.5519 46.003 28.3115 46.6519 28.3115 47.4428V48.5411H27.7396V45.5414H28.3115V46.2206C28.4675 45.694 28.7596 45.4626 29.162 45.4626C29.3442 45.4594 29.5245 45.4991 29.6881 45.5783" fill="white"/>
<path d="M32.6303 43.9082H33.1944V48.5411H32.6303V48.0717C32.5115 48.2451 32.3505 48.386 32.1622 48.4815C31.9738 48.577 31.7642 48.6241 31.5527 48.6183C31.1439 48.5985 30.7584 48.4241 30.4758 48.1311C30.1933 47.838 30.0352 47.4487 30.0344 47.0436C30.0336 46.6385 30.19 46.2486 30.4714 45.9545C30.7528 45.6603 31.1376 45.4843 31.5463 45.463C31.7595 45.4522 31.9719 45.497 32.1622 45.5929C32.3525 45.6888 32.514 45.8325 32.6305 46.0095L32.6303 43.9082ZM32.6303 47.0313C32.6322 46.8957 32.607 46.761 32.556 46.6351C32.505 46.5092 32.4294 46.3945 32.3334 46.2977C32.2374 46.2008 32.123 46.1238 31.9968 46.0709C31.8706 46.0181 31.735 45.9905 31.598 45.9898C31.4628 45.9911 31.3294 46.0193 31.2055 46.0728C31.0817 46.1263 30.97 46.204 30.8773 46.3013C30.7845 46.3985 30.7126 46.5133 30.6657 46.6388C30.6189 46.7642 30.5981 46.8977 30.6047 47.0313C30.5967 47.1679 30.6169 47.3046 30.6642 47.4332C30.7114 47.5617 30.7847 47.6793 30.8796 47.7788C30.9744 47.8783 31.0888 47.9575 31.2157 48.0117C31.3426 48.0659 31.4793 48.0938 31.6175 48.0938C31.7557 48.0938 31.8924 48.0659 32.0193 48.0117C32.1462 47.9575 32.2606 47.8783 32.3554 47.7788C32.4503 47.6793 32.5236 47.5617 32.5708 47.4332C32.6181 47.3046 32.6384 47.1679 32.6303 47.0313Z" fill="white"/>
<path d="M37.0149 47.282H34.5487C34.576 47.518 34.6948 47.7343 34.8801 47.8854C35.0654 48.0364 35.3026 48.1104 35.5419 48.0917C35.7178 48.0979 35.8923 48.0577 36.0474 47.9753C36.2026 47.8929 36.3328 47.7713 36.4249 47.6228L36.9115 47.8157C36.7797 48.0653 36.5795 48.2731 36.3338 48.4152C36.0881 48.5572 35.8069 48.6278 35.5225 48.6188C35.313 48.6224 35.105 48.5835 34.9113 48.5044C34.7177 48.4254 34.5424 48.3079 34.3964 48.1591C34.2504 48.0104 34.1368 47.8337 34.0625 47.6398C33.9883 47.4459 33.955 47.239 33.9647 47.0318C33.9554 46.8257 33.9891 46.6199 34.0637 46.4272C34.1384 46.2345 34.2524 46.0591 34.3985 45.912C34.5447 45.7649 34.72 45.6491 34.9133 45.572C35.1067 45.4949 35.3141 45.458 35.5225 45.4637C36.3858 45.4637 37.0283 46.0805 37.0283 47.0318C37.0283 47.1154 37.0219 47.1985 37.016 47.282M36.4638 46.8004C36.4439 46.5709 36.3345 46.358 36.1588 46.2068C35.9831 46.0556 35.7549 45.978 35.5225 45.9903C35.2862 45.9733 35.0526 46.0486 34.8718 46.2C34.6909 46.3515 34.5772 46.567 34.5551 46.8004H36.4638Z" fill="white"/>
<path d="M39.7309 45.5787L39.6394 46.1053C39.5015 46.04 39.3509 46.0051 39.1981 46.003C38.594 46.003 38.3535 46.6519 38.3535 47.4428V48.5411H37.783V45.5414H38.3549V46.2206C38.5109 45.694 38.803 45.4626 39.2059 45.4626C39.388 45.4596 39.5683 45.4992 39.732 45.5783" fill="white"/>
<path d="M41.7386 47.2882H42.3233C42.3428 47.6799 42.7195 48.079 43.3166 48.079C43.8942 48.079 44.219 47.7057 44.219 47.314C44.219 46.8838 43.8232 46.6909 43.446 46.5944L42.8684 46.4529C41.9205 46.2279 41.7718 45.6754 41.7718 45.3154C41.7718 44.5508 42.4663 44.0371 43.2452 44.0371C44.0307 44.0371 44.6603 44.5311 44.6603 45.322H44.076C44.076 44.8789 43.7064 44.5762 43.2255 44.5762C43.0127 44.5601 42.8021 44.6284 42.6401 44.766C42.4781 44.9035 42.3779 45.0991 42.3615 45.3098C42.3615 45.4635 42.4141 45.7721 43.0112 45.9265L43.5959 46.0803C44.3553 46.2795 44.8094 46.6653 44.8094 47.295C44.8094 47.9828 44.2448 48.6183 43.3166 48.6183C42.3752 48.6183 41.7457 47.976 41.7382 47.2886" fill="white"/>
<path d="M47.6489 45.5408H48.2595L46.3761 50.0011H45.7791L46.4157 48.4527L45.1951 45.5408H45.8052L46.7202 47.7508L47.6489 45.5408Z" fill="white"/>
<path d="M48.5793 47.6608H49.1054C49.1114 47.918 49.3387 48.1301 49.7091 48.1301C50.0918 48.1301 50.3192 47.9436 50.3192 47.6999C50.3192 47.4749 50.1444 47.3603 49.9035 47.3082L49.4884 47.2118C48.9817 47.0759 48.69 46.8325 48.69 46.3514C48.69 45.8563 49.1182 45.4641 49.7288 45.4641C50.2414 45.4641 50.7742 45.7342 50.7742 46.3385H50.2281C50.2117 46.225 50.1521 46.122 50.0616 46.0505C49.971 45.979 49.8564 45.9443 49.7409 45.9536C49.6809 45.9477 49.6204 45.954 49.5629 45.972C49.5055 45.9901 49.4524 46.0195 49.4068 46.0586C49.3613 46.0976 49.3243 46.1455 49.2981 46.1992C49.2718 46.2529 49.257 46.3113 49.2543 46.3709C49.2543 46.5767 49.4492 46.6858 49.6432 46.7309L50.0909 46.8396C50.7209 46.994 50.8833 47.3669 50.8833 47.707C50.8833 48.2664 50.3377 48.6194 49.7082 48.6194C49.1626 48.6194 48.6044 48.2786 48.5784 47.6619" fill="white"/>
<path d="M53.0796 45.5408V46.0223H52.424V48.5416H51.8594V46.0223H51.3138V45.5408H51.8594V44.4087H52.424V45.5408H53.0796Z" fill="white"/>
<path d="M56.5415 47.282H54.0742C54.1016 47.518 54.2204 47.7343 54.4057 47.8853C54.5909 48.0363 54.8282 48.1103 55.0674 48.0917C55.2434 48.0979 55.4178 48.0577 55.5729 47.9753C55.7281 47.8929 55.8583 47.7713 55.9504 47.6228L56.437 47.8157C56.3052 48.0653 56.105 48.2731 55.8593 48.4152C55.6136 48.5572 55.3324 48.6278 55.048 48.6188C54.8385 48.6224 54.6305 48.5835 54.4368 48.5044C54.2432 48.4254 54.0679 48.3079 53.9219 48.1591C53.7759 48.0104 53.6623 47.8337 53.588 47.6398C53.5138 47.4459 53.4805 47.239 53.4902 47.0318C53.4809 46.8257 53.5146 46.6199 53.5893 46.4272C53.6639 46.2345 53.7779 46.0591 53.9241 45.912C54.0702 45.7649 54.2455 45.6491 54.4388 45.572C54.6322 45.4949 54.8396 45.458 55.048 45.4637C55.9113 45.4637 56.5539 46.0805 56.5539 47.0318C56.5539 47.1154 56.5475 47.1985 56.5415 47.282ZM55.9893 46.8004C55.9694 46.5709 55.86 46.358 55.6843 46.2068C55.5087 46.0556 55.2804 45.978 55.048 45.9903C54.8117 45.9733 54.5781 46.0486 54.3973 46.2C54.2164 46.3515 54.1028 46.567 54.0806 46.8004H55.9893Z" fill="white"/>
<path d="M62.0808 46.8068V48.5415H61.5158V46.8389C61.5158 46.3379 61.2364 46.0037 60.7952 46.0037C60.256 45.9973 59.9772 46.3702 59.9772 47.0384V48.5417H59.4126V46.8389C59.4126 46.3311 59.1328 46.0037 58.7304 46.0037C58.6114 46.0005 58.4931 46.0224 58.3833 46.068C58.2735 46.1136 58.1747 46.1819 58.0937 46.2682C58.0126 46.3545 57.951 46.457 57.9131 46.5687C57.8751 46.6804 57.8616 46.7988 57.8735 46.9161V48.5417H57.3083V45.5416H57.8735V46.0034C57.9775 45.8304 58.1272 45.6888 58.3066 45.5938C58.486 45.4989 58.6881 45.4543 58.8913 45.4649C59.0944 45.4754 59.2907 45.5407 59.4591 45.6536C59.6275 45.7666 59.7614 45.9229 59.8465 46.1058C59.9417 45.9093 60.0922 45.7441 60.2799 45.6302C60.4677 45.5162 60.6846 45.4583 60.9048 45.4634C61.6642 45.4634 62.0805 45.965 62.0805 46.8068" fill="white"/>
<path d="M54.9231 13.565C56.1232 12.425 57.7222 11.7884 59.3857 11.7884C61.0491 11.7884 62.6482 12.425 63.8483 13.565C63.8992 13.6133 63.9591 13.6513 64.0247 13.6767C64.0904 13.7021 64.1604 13.7144 64.2309 13.713C64.3014 13.7116 64.3709 13.6965 64.4355 13.6685C64.5 13.6405 64.5584 13.6002 64.6072 13.5499C64.656 13.4996 64.6944 13.4403 64.72 13.3753C64.7457 13.3104 64.7582 13.241 64.7568 13.1713C64.7554 13.1015 64.7401 13.0327 64.7118 12.9688C64.6835 12.9049 64.6428 12.8471 64.592 12.7988C63.1918 11.4683 61.326 10.7251 59.3849 10.7249C57.4438 10.7246 55.5777 11.4671 54.1771 12.7972C54.0747 12.8953 54.0156 13.0295 54.0128 13.1706C54.01 13.3116 54.0636 13.448 54.162 13.5501C54.2107 13.6006 54.269 13.6411 54.3336 13.6693C54.3982 13.6974 54.4678 13.7126 54.5383 13.714C54.6089 13.7154 54.679 13.703 54.7447 13.6774C54.8104 13.6518 54.8703 13.6136 54.921 13.565H54.9231ZM59.3858 14.4457C60.3022 14.4443 61.1873 14.7754 61.8737 15.3763C61.9806 15.4697 62.1206 15.5173 62.263 15.5086C62.4053 15.4998 62.5383 15.4355 62.6327 15.3297C62.7271 15.2239 62.7752 15.0853 62.7664 14.9444C62.7575 14.8035 62.6925 14.6719 62.5856 14.5784C61.7019 13.8074 60.5644 13.382 59.3864 13.382C58.2084 13.382 57.0708 13.8074 56.1871 14.5784C56.0802 14.6719 56.0152 14.8035 56.0064 14.9444C55.9975 15.0853 56.0456 15.2239 56.14 15.3297C56.2344 15.4355 56.3674 15.4998 56.5098 15.5086C56.6521 15.5173 56.7921 15.4697 56.899 15.3763C57.5853 14.7748 58.4708 14.4437 59.3874 14.4457H59.3858ZM60.953 17.3502C60.953 17.0916 60.8755 16.8388 60.7304 16.6239C60.5853 16.4089 60.379 16.2413 60.1376 16.1424C59.8963 16.0434 59.6307 16.0175 59.3745 16.068C59.1183 16.1184 58.8829 16.2429 58.6982 16.4258C58.5135 16.6086 58.3877 16.8415 58.3367 17.0951C58.2858 17.3487 58.3119 17.6116 58.4119 17.8504C58.5119 18.0893 58.6812 18.2935 58.8984 18.4371C59.1156 18.5808 59.3709 18.6575 59.6322 18.6575C59.8056 18.6575 59.9774 18.6237 60.1377 18.558C60.2979 18.4923 60.4435 18.396 60.5662 18.2746C60.6889 18.1532 60.7861 18.0091 60.8525 17.8505C60.9189 17.6919 60.953 17.5218 60.953 17.3502Z" fill="white"/>
</g>
</svg>
