<svg xmlns="http://www.w3.org/2000/svg" xmlns:xlink="http://www.w3.org/1999/xlink" width="445.4" height="220.836" viewBox="0 0 445.4 220.836"><defs><style>.a{fill:none;}.b{clip-path:url(#a);}.c{fill:#fff;}.d{fill:#fcc800;}</style><clipPath id="a"><rect class="a" width="445.4" height="220.836"/></clipPath></defs><g transform="translate(0 0)"><g class="b" transform="translate(0 0)"><path d="M144.626,16.258A20.089,20.089,0,0,1,150.6,30.707V59.144a20.391,20.391,0,0,1-20.235,20.183H119.331c-3.221,0-5.98.916-7.821,3.209a11,11,0,0,0-3.448,7.8,12.206,12.206,0,0,0,2.53,7.109l1.841,2.066,36.79,36.923c1.839,1.834,1.839,4.127,0,6.188-2.068,2.068-4.368,2.068-6.439,0l-37.711-37.609c-3.909-4.357-5.98-8.945-5.98-14.676a19.554,19.554,0,0,1,5.98-14.217,19.093,19.093,0,0,1,14.258-5.734h11.037a11.069,11.069,0,0,0,7.819-3.441,10.736,10.736,0,0,0,3.218-7.8V30.707a10.216,10.216,0,0,0-3.218-8.027,11.811,11.811,0,0,0-7.819-3.211H72.65A10.991,10.991,0,0,0,61.383,30.707v108.7a4.716,4.716,0,0,1-4.6,4.588,4.053,4.053,0,0,1-2.991-1.38,4.517,4.517,0,0,1-1.377-3.209V30.707A20,20,0,0,1,72.65,10.524h57.719a20.007,20.007,0,0,1,14.258,5.734" transform="translate(71.622 14.379)"/><path d="M192.517,43.769a20.971,20.971,0,0,1,6.044,14.979V88.473a21.04,21.04,0,0,1-21.023,20.779H158.689a4.2,4.2,0,0,1-4.591-4.593,5.09,5.09,0,0,1,1.207-3.14,5.781,5.781,0,0,1,3.384-1.207h18.848a10.129,10.129,0,0,0,8.216-3.628,11.919,11.919,0,0,0,3.382-8.211V58.749a11.664,11.664,0,0,0-3.382-8.457,10.741,10.741,0,0,0-8.216-3.382h-31.9a12.4,12.4,0,0,0-8.214,3.382,10.778,10.778,0,0,0-3.384,8.457V159.756a4.6,4.6,0,0,1-1.207,3.14,5.8,5.8,0,0,1-3.382,1.209,5.967,5.967,0,0,1-3.628-1.209,3.716,3.716,0,0,1-1.207-3.14V58.749a20.034,20.034,0,0,1,6.039-14.979,20.987,20.987,0,0,1,14.982-6.041h31.9a20.969,20.969,0,0,1,14.979,6.041" transform="translate(170.277 51.55)"/><path d="M175.381,90.183a10.755,10.755,0,0,0,3.384,7.875,10.184,10.184,0,0,0,8.216,3.583h4.832a5.837,5.837,0,0,1,3.625,1.432,4.181,4.181,0,0,1,1.448,3.1,3.836,3.836,0,0,1-1.448,3.1,5.847,5.847,0,0,1-3.625,1.429h-4.832A21.123,21.123,0,0,1,172,104.743a20.88,20.88,0,0,1-6.041-14.56V43.536a4.686,4.686,0,0,1,1.448-3.341,5.15,5.15,0,0,1,3.143-1.2,5.833,5.833,0,0,1,3.384,1.2,4.686,4.686,0,0,1,1.448,3.341Zm-2.416,68.746a17.889,17.889,0,0,1-5.559-13.607l.244-5.251a4.5,4.5,0,0,1,1.209-3.1,3.128,3.128,0,0,1,2.658-1.2,5.119,5.119,0,0,1,3.14,1.2,3.825,3.825,0,0,1,1.451,3.1v5.251a10.76,10.76,0,0,0,2.9,7.639,11.048,11.048,0,0,0,7.731,2.866h12.565a10.878,10.878,0,0,0,7.49-2.866,9.826,9.826,0,0,0,2.9-7.639V43.775a4.515,4.515,0,0,1,1.209-3.1,4.76,4.76,0,0,1,3.384-.954,4.489,4.489,0,0,1,3.14.954,4.5,4.5,0,0,1,1.209,3.1V145.322a18.112,18.112,0,0,1-5.8,13.607,17.809,17.809,0,0,1-13.531,5.49H186.74a18.343,18.343,0,0,1-13.775-5.49" transform="translate(226.764 53.288)"/><path d="M109.966,107.82a4.071,4.071,0,0,1-1.451-3.046V42.217a4.064,4.064,0,0,1,1.451-3.046A5.16,5.16,0,0,1,113.106,38a3.147,3.147,0,0,1,2.657,1.171,4.836,4.836,0,0,1,1.209,3.046v62.558a4.846,4.846,0,0,1-1.209,3.046,3.153,3.153,0,0,1-2.657,1.171,4.668,4.668,0,0,1-3.14-1.171" transform="translate(148.274 51.922)"/><path d="M114.053,109.854a3.892,3.892,0,0,1,1.448,3.138,4.953,4.953,0,0,1-4.832,4.835l-6.522.241h1.207A6.918,6.918,0,0,0,100.281,120a6.747,6.747,0,0,0-1.933,4.832,20.631,20.631,0,0,1-6.283,14.982,20.989,20.989,0,0,1-14.982,6.041H21.264a20.993,20.993,0,0,1-14.982-6.041A20.631,20.631,0,0,1,0,124.833V31.32A20.243,20.243,0,0,1,6.283,16.339a20.247,20.247,0,0,1,14.982-6.283H77.083a20.243,20.243,0,0,1,14.982,6.283A20.243,20.243,0,0,1,98.347,31.32V101.4a7.8,7.8,0,0,0,1.933,5.074,6.237,6.237,0,0,0,5.074,2.172h5.315a5.764,5.764,0,0,1,3.384,1.212M88.924,31.32A11.607,11.607,0,0,0,85.3,23.1a11.2,11.2,0,0,0-8.216-3.623H21.264A11.6,11.6,0,0,0,13.051,23.1,11.322,11.322,0,0,0,9.667,31.32v93.513a10.278,10.278,0,0,0,3.384,8.218,11.608,11.608,0,0,0,8.214,3.623H77.083a11.21,11.21,0,0,0,8.216-3.623,10.475,10.475,0,0,0,3.625-8.218A6.092,6.092,0,0,0,86.75,120a7.8,7.8,0,0,0-5.074-1.933H59.688a3.521,3.521,0,0,1-3.145-1.692,4.768,4.768,0,0,1-1.448-3.384,3.892,3.892,0,0,1,1.448-3.138,5.1,5.1,0,0,1,3.145-1.212H81.676a6.24,6.24,0,0,0,5.074-2.172,6.964,6.964,0,0,0,2.175-5.074Z" transform="translate(0 13.739)"/><path d="M69.185,23.517c0-3.318-2.745-5.483-7.79-5.483H49.565S52.6,0,38.6,0h-.232C24.372,0,27.4,18.034,27.4,18.034H15.574c-5.052,0-7.79,2.165-7.79,5.483v6.493h61.4Z" transform="translate(10.636 -0.001)"/><path class="c" d="M23.036,10.721a4.039,4.039,0,1,1,4.042-4.039,4.039,4.039,0,0,1-4.042,4.039" transform="translate(25.957 3.609)"/><path d="M24.211,101.892H21.686l-1.817-14.9L13.652,99.764H11.411L5.138,86.99l-1.787,14.9H.824L3.209,82.336H5.535l6.983,14.5,6.952-14.5H21.8Z" transform="translate(1.126 112.502)"/><path d="M11.876,91.807A6.75,6.75,0,0,1,18.8,84.855a6.967,6.967,0,0,1,0,13.933,6.772,6.772,0,0,1-6.924-6.981m11.408,0A4.46,4.46,0,1,0,18.8,96.462a4.474,4.474,0,0,0,4.484-4.655" transform="translate(16.227 115.944)"/><path d="M32.981,95.774a6.645,6.645,0,0,1-6.64,6.981,5.508,5.508,0,0,1-4.711-2.414v2.073H19.159V81.952H21.63v9.281a5.332,5.332,0,0,1,4.74-2.414,6.583,6.583,0,0,1,6.612,6.955m-2.5-.028a4.393,4.393,0,0,0-4.373-4.6,4.649,4.649,0,1,0,4.373,4.6" transform="translate(26.179 111.978)"/><path d="M26.2,83.885a1.749,1.749,0,1,1,1.732,1.649A1.685,1.685,0,0,1,26.2,83.885m.511,4.884h2.471v13.254H26.714Z" transform="translate(35.804 112.371)"/><rect width="2.471" height="20.462" transform="translate(69.191 193.931)"/><path d="M45.027,92.887H34.241a4.05,4.05,0,0,0,4.342,3.576,4.348,4.348,0,0,0,3.86-2.071l2.127.852A6.611,6.611,0,0,1,38.5,98.791a6.7,6.7,0,0,1-6.81-7.009,6.633,6.633,0,0,1,6.81-6.926c3.774,0,6.583,2.724,6.583,6.926,0,.369-.028.736-.054,1.105m-2.414-2.127A3.919,3.919,0,0,0,38.5,87.181a3.959,3.959,0,0,0-4.229,3.578Z" transform="translate(43.298 115.944)"/><path d="M41.407,92.354a9.906,9.906,0,1,1,9.875,10.074,9.98,9.98,0,0,1-9.875-10.074m17.227,0a7.332,7.332,0,1,0-7.352,7.691,7.562,7.562,0,0,0,7.352-7.691" transform="translate(56.578 112.307)"/><path d="M59.763,85.365l-.4,2.326a4.617,4.617,0,0,0-1.929-.452c-2.641,0-3.692,2.866-3.692,6.359v4.851h-2.5V85.2h2.5V88.2c.682-2.326,1.959-3.348,3.718-3.348a5.038,5.038,0,0,1,2.3.511" transform="translate(70.022 115.943)"/><path d="M66.834,81.952H69.3v20.462H66.834v-2.073a5.508,5.508,0,0,1-4.711,2.414,6.977,6.977,0,0,1-.028-13.936,5.332,5.332,0,0,1,4.74,2.414Zm0,13.794a4.537,4.537,0,0,0-4.513-4.6,4.387,4.387,0,0,0-4.342,4.6,4.435,4.435,0,1,0,8.855,0" transform="translate(75.81 111.978)"/><path d="M76.081,92.887H65.3a4.05,4.05,0,0,0,4.342,3.576,4.348,4.348,0,0,0,3.86-2.071l2.127.852a6.611,6.611,0,0,1-6.072,3.547,6.7,6.7,0,0,1-6.81-7.009,6.633,6.633,0,0,1,6.81-6.926c3.774,0,6.583,2.724,6.583,6.926,0,.369-.028.736-.054,1.105m-2.414-2.127a3.919,3.919,0,0,0-4.115-3.578,3.959,3.959,0,0,0-4.229,3.578Z" transform="translate(85.73 115.944)"/><path d="M78.315,85.365l-.4,2.326a4.617,4.617,0,0,0-1.929-.452c-2.641,0-3.692,2.866-3.692,6.359v4.851H69.8V85.2h2.5V88.2c.682-2.326,1.959-3.348,3.72-3.348a5.054,5.054,0,0,1,2.3.511" transform="translate(95.369 115.943)"/><path d="M77.105,96.552h2.556c.085,1.73,1.732,3.493,4.342,3.493,2.525,0,3.945-1.649,3.945-3.379,0-1.9-1.73-2.752-3.379-3.178l-2.525-.625c-4.144-.994-4.794-3.434-4.794-5.024,0-3.377,3.036-5.646,6.441-5.646,3.434,0,6.186,2.182,6.186,5.675H87.323c0-1.957-1.616-3.294-3.718-3.294a3.52,3.52,0,0,0-3.777,3.24c0,.679.23,2.042,2.84,2.724l2.556.679c3.32.88,5.305,2.584,5.305,5.365,0,3.038-2.468,5.845-6.526,5.845-4.115,0-6.867-2.837-6.9-5.873" transform="translate(105.356 112.307)"/><path d="M94.217,85h2.669l-8.233,19.7h-2.61l2.783-6.839L83.49,85h2.667l4,9.761Z" transform="translate(114.081 116.141)"/><path d="M89.742,94.561h2.3c.026,1.136,1.02,2.073,2.639,2.073,1.673,0,2.667-.824,2.667-1.9,0-.994-.764-1.5-1.817-1.73l-1.815-.426c-2.215-.6-3.49-1.675-3.49-3.8,0-2.187,1.872-3.919,4.541-3.919,2.241,0,4.57,1.193,4.57,3.862H96.95a1.989,1.989,0,0,0-2.13-1.7,1.937,1.937,0,0,0-2.127,1.843c0,.909.852,1.391,1.7,1.59l1.957.48c2.754.682,3.464,2.329,3.464,3.831,0,2.471-2.385,4.03-5.137,4.03-2.385,0-4.825-1.505-4.939-4.229" transform="translate(122.623 115.943)"/><path d="M102.513,87.884v2.127H99.647v11.127H97.179V90.011H94.794V87.884h2.385v-5h2.468v5Z" transform="translate(129.525 113.257)"/><path d="M112.153,92.887H101.367a4.051,4.051,0,0,0,4.342,3.576,4.348,4.348,0,0,0,3.86-2.071l2.127.852a6.611,6.611,0,0,1-6.072,3.547,6.7,6.7,0,0,1-6.81-7.009,6.633,6.633,0,0,1,6.81-6.926c3.774,0,6.583,2.724,6.583,6.926,0,.369-.028.736-.054,1.105m-2.414-2.127a3.919,3.919,0,0,0-4.115-3.578,3.959,3.959,0,0,0-4.229,3.578Z" transform="translate(135.019 115.944)"/><path d="M126.73,90.788V98.45H124.26V90.93c0-2.213-1.221-3.689-3.15-3.689-2.357-.028-3.576,1.619-3.576,4.57v6.64h-2.468V90.93c0-2.243-1.223-3.689-2.982-3.689a3.665,3.665,0,0,0-3.746,4.03v7.18h-2.471V85.2h2.471V87.24a4.879,4.879,0,0,1,8.625.452,5,5,0,0,1,4.626-2.837c3.32,0,5.14,2.215,5.14,5.933" transform="translate(144.657 115.944)"/><path class="d" d="M103.759,32.562a28.174,28.174,0,0,1,39.017,0,2.346,2.346,0,1,0,3.251-3.384,32.876,32.876,0,0,0-45.529-.007,2.36,2.36,0,0,0-.066,3.325,2.337,2.337,0,0,0,3.318.066Zm19.509,3.89a16.377,16.377,0,0,1,10.876,4.11,2.35,2.35,0,0,0,3.112-3.524,21.149,21.149,0,0,0-27.971,0,2.35,2.35,0,0,0,3.112,3.524,16.351,16.351,0,0,1,10.878-4.11Zm6.851,12.828a5.774,5.774,0,1,0-5.774,5.774,5.773,5.773,0,0,0,5.774-5.774" transform="translate(136.338 27.351)"/></g></g></svg>